<?xml version="1.0"?>
<svg xmlns="http://www.w3.org/2000/svg" xmlns:xlink="http://www.w3.org/1999/xlink" version="1.1" width="420px" height="420px" viewBox="0 0 420 420"><rect x="0" y="0" width="420" height="420" fill="#ffffff" fill-opacity="1"/><path fill="#000000" fill-opacity="1" d="M48,48L76,48L76,52L48,52ZM80,48L88,48L88,52L80,52ZM92,48L96,48L96,52L92,52ZM104,48L112,48L112,52L104,52ZM132,48L136,48L136,52L132,52ZM164,48L168,48L168,52L164,52ZM172,48L176,48L176,52L172,52ZM184,48L192,48L192,52L184,52ZM204,48L208,48L208,52L204,52ZM212,48L220,48L220,52L212,52ZM228,48L240,48L240,52L228,52ZM244,48L248,48L248,52L244,52ZM252,48L256,48L256,52L252,52ZM268,48L272,48L272,52L268,52ZM276,48L292,48L292,52L276,52ZM296,48L300,48L300,52L296,52ZM320,48L328,48L328,52L320,52ZM344,48L372,48L372,52L344,52ZM48,52L52,52L52,56L48,56ZM72,52L76,52L76,56L72,56ZM80,52L84,52L84,56L80,56ZM88,52L92,52L92,56L88,56ZM96,52L100,52L100,56L96,56ZM108,52L112,52L112,56L108,56ZM116,52L124,52L124,56L116,56ZM128,52L144,52L144,56L128,56ZM148,52L156,52L156,56L148,56ZM160,52L168,52L168,56L160,56ZM176,52L180,52L180,56L176,56ZM188,52L208,52L208,56L188,56ZM216,52L224,52L224,56L216,56ZM228,52L232,52L232,56L228,56ZM236,52L240,52L240,56L236,56ZM264,52L268,52L268,56L264,56ZM276,52L280,52L280,56L276,56ZM288,52L292,52L292,56L288,56ZM300,52L308,52L308,56L300,56ZM328,52L340,52L340,56L328,56ZM344,52L348,52L348,56L344,56ZM368,52L372,52L372,56L368,56ZM48,56L52,56L52,60L48,60ZM56,56L68,56L68,60L56,60ZM72,56L76,56L76,60L72,60ZM80,56L84,56L84,60L80,60ZM88,56L92,56L92,60L88,60ZM100,56L112,56L112,60L100,60ZM116,56L120,56L120,60L116,60ZM124,56L128,56L128,60L124,60ZM132,56L136,56L136,60L132,60ZM140,56L144,56L144,60L140,60ZM148,56L156,56L156,60L148,60ZM164,56L168,56L168,60L164,60ZM176,56L192,56L192,60L176,60ZM200,56L204,56L204,60L200,60ZM208,56L220,56L220,60L208,60ZM232,56L236,56L236,60L232,60ZM244,56L252,56L252,60L244,60ZM272,56L280,56L280,60L272,60ZM284,56L292,56L292,60L284,60ZM300,56L304,56L304,60L300,60ZM328,56L332,56L332,60L328,60ZM336,56L340,56L340,60L336,60ZM344,56L348,56L348,60L344,60ZM352,56L364,56L364,60L352,60ZM368,56L372,56L372,60L368,60ZM48,60L52,60L52,64L48,64ZM56,60L68,60L68,64L56,64ZM72,60L76,60L76,64L72,64ZM92,60L128,60L128,64L92,64ZM132,60L156,60L156,64L132,64ZM168,60L176,60L176,64L168,64ZM184,60L188,60L188,64L184,64ZM204,60L208,60L208,64L204,64ZM224,60L228,60L228,64L224,64ZM248,60L256,60L256,64L248,64ZM260,60L272,60L272,64L260,64ZM296,60L316,60L316,64L296,64ZM320,60L332,60L332,64L320,64ZM336,60L340,60L340,64L336,64ZM344,60L348,60L348,64L344,64ZM352,60L364,60L364,64L352,64ZM368,60L372,60L372,64L368,64ZM48,64L52,64L52,68L48,68ZM56,64L68,64L68,68L56,68ZM72,64L76,64L76,68L72,68ZM96,64L108,64L108,68L96,68ZM112,64L116,64L116,68L112,68ZM124,64L128,64L128,68L124,68ZM140,64L172,64L172,68L140,68ZM176,64L180,64L180,68L176,68ZM192,64L196,64L196,68L192,68ZM208,64L212,64L212,68L208,68ZM216,64L220,64L220,68L216,68ZM224,64L228,64L228,68L224,68ZM240,64L264,64L264,68L240,68ZM268,64L296,64L296,68L268,68ZM300,64L304,64L304,68L300,68ZM316,64L320,64L320,68L316,68ZM324,64L328,64L328,68L324,68ZM344,64L348,64L348,68L344,68ZM352,64L364,64L364,68L352,68ZM368,64L372,64L372,68L368,68ZM48,68L52,68L52,72L48,72ZM72,68L76,68L76,72L72,72ZM80,68L88,68L88,72L80,72ZM96,68L112,68L112,72L96,72ZM132,68L136,68L136,72L132,72ZM144,68L148,68L148,72L144,72ZM160,68L168,68L168,72L160,72ZM172,68L184,68L184,72L172,72ZM200,68L208,68L208,72L200,72ZM212,68L244,68L244,72L212,72ZM256,68L260,68L260,72L256,72ZM264,68L272,68L272,72L264,72ZM288,68L304,68L304,72L288,72ZM308,68L312,68L312,72L308,72ZM324,68L328,68L328,72L324,72ZM332,68L336,68L336,72L332,72ZM344,68L348,68L348,72L344,72ZM368,68L372,68L372,72L368,72ZM48,72L76,72L76,76L48,76ZM80,72L84,72L84,76L80,76ZM88,72L92,72L92,76L88,76ZM96,72L100,72L100,76L96,76ZM104,72L108,72L108,76L104,76ZM112,72L116,72L116,76L112,76ZM120,72L124,72L124,76L120,76ZM128,72L132,72L132,76L128,76ZM136,72L140,72L140,76L136,76ZM144,72L148,72L148,76L144,76ZM152,72L156,72L156,76L152,76ZM160,72L164,72L164,76L160,76ZM168,72L172,72L172,76L168,76ZM176,72L180,72L180,76L176,76ZM184,72L188,72L188,76L184,76ZM192,72L196,72L196,76L192,76ZM200,72L204,72L204,76L200,76ZM208,72L212,72L212,76L208,76ZM216,72L220,72L220,76L216,76ZM224,72L228,72L228,76L224,76ZM232,72L236,72L236,76L232,76ZM240,72L244,72L244,76L240,76ZM248,72L252,72L252,76L248,76ZM256,72L260,72L260,76L256,76ZM264,72L268,72L268,76L264,76ZM272,72L276,72L276,76L272,76ZM280,72L284,72L284,76L280,76ZM288,72L292,72L292,76L288,76ZM296,72L300,72L300,76L296,76ZM304,72L308,72L308,76L304,76ZM312,72L316,72L316,76L312,76ZM320,72L324,72L324,76L320,76ZM328,72L332,72L332,76L328,76ZM336,72L340,72L340,76L336,76ZM344,72L372,72L372,76L344,76ZM80,76L92,76L92,80L80,80ZM96,76L104,76L104,80L96,80ZM108,76L116,76L116,80L108,80ZM120,76L124,76L124,80L120,80ZM128,76L132,76L132,80L128,80ZM144,76L148,76L148,80L144,80ZM160,76L164,76L164,80L160,80ZM168,76L176,76L176,80L168,80ZM180,76L184,76L184,80L180,80ZM196,76L200,76L200,80L196,80ZM204,76L208,76L208,80L204,80ZM216,76L224,76L224,80L216,80ZM240,76L244,76L244,80L240,80ZM256,76L260,76L260,80L256,80ZM272,76L280,76L280,80L272,80ZM284,76L288,76L288,80L284,80ZM296,76L304,76L304,80L296,80ZM312,76L328,76L328,80L312,80ZM336,76L340,76L340,80L336,80ZM56,80L68,80L68,84L56,84ZM72,80L76,80L76,84L72,84ZM80,80L84,80L84,84L80,84ZM96,80L100,80L100,84L96,84ZM104,80L112,80L112,84L104,84ZM124,80L136,80L136,84L124,84ZM144,80L168,80L168,84L144,84ZM172,80L176,80L176,84L172,84ZM188,80L192,80L192,84L188,84ZM196,80L204,80L204,84L196,84ZM208,80L212,80L212,84L208,84ZM228,80L236,80L236,84L228,84ZM240,80L272,80L272,84L240,84ZM280,80L296,80L296,84L280,84ZM300,80L320,80L320,84L300,84ZM324,80L332,80L332,84L324,84ZM336,80L352,80L352,84L336,84ZM360,80L372,80L372,84L360,84ZM48,84L52,84L52,88L48,88ZM56,84L68,84L68,88L56,88ZM76,84L80,84L80,88L76,88ZM84,84L88,84L88,88L84,88ZM92,84L96,84L96,88L92,88ZM100,84L112,84L112,88L100,88ZM116,84L136,84L136,88L116,88ZM144,84L152,84L152,88L144,88ZM160,84L164,84L164,88L160,88ZM176,84L200,84L200,88L176,88ZM208,84L212,84L212,88L208,88ZM216,84L228,84L228,88L216,88ZM232,84L236,84L236,88L232,88ZM244,84L248,84L248,88L244,88ZM268,84L280,84L280,88L268,88ZM284,84L292,84L292,88L284,88ZM296,84L300,84L300,88L296,88ZM312,84L320,84L320,88L312,88ZM356,84L364,84L364,88L356,88ZM368,84L372,84L372,88L368,88ZM60,88L64,88L64,92L60,92ZM72,88L84,88L84,92L72,92ZM88,88L96,88L96,92L88,92ZM100,88L108,88L108,92L100,92ZM112,88L116,88L116,92L112,92ZM132,88L136,88L136,92L132,92ZM148,88L164,88L164,92L148,92ZM168,88L172,88L172,92L168,92ZM176,88L180,88L180,92L176,92ZM192,88L212,88L212,92L192,92ZM216,88L220,88L220,92L216,92ZM224,88L244,88L244,92L224,92ZM248,88L260,88L260,92L248,92ZM264,88L272,88L272,92L264,92ZM276,88L284,88L284,92L276,92ZM288,88L292,88L292,92L288,92ZM300,88L308,88L308,92L300,92ZM312,88L316,88L316,92L312,92ZM320,88L324,88L324,92L320,92ZM332,88L340,88L340,92L332,92ZM348,88L364,88L364,92L348,92ZM48,92L64,92L64,96L48,96ZM68,92L72,92L72,96L68,96ZM80,92L96,92L96,96L80,96ZM100,92L108,92L108,96L100,96ZM116,92L132,92L132,96L116,96ZM140,92L144,92L144,96L140,96ZM152,92L168,92L168,96L152,96ZM172,92L176,92L176,96L172,96ZM180,92L184,92L184,96L180,96ZM188,92L196,92L196,96L188,96ZM200,92L204,92L204,96L200,96ZM208,92L212,92L212,96L208,96ZM220,92L228,92L228,96L220,96ZM232,92L240,92L240,96L232,96ZM248,92L260,92L260,96L248,96ZM264,92L284,92L284,96L264,96ZM312,92L316,92L316,96L312,96ZM320,92L332,92L332,96L320,96ZM336,92L344,92L344,96L336,96ZM356,92L372,92L372,96L356,96ZM48,96L76,96L76,100L48,100ZM80,96L84,96L84,100L80,100ZM88,96L92,96L92,100L88,100ZM96,96L104,96L104,100L96,100ZM108,96L112,96L112,100L108,100ZM120,96L124,96L124,100L120,100ZM128,96L140,96L140,100L128,100ZM168,96L172,96L172,100L168,100ZM176,96L188,96L188,100L176,100ZM196,96L220,96L220,100L196,100ZM224,96L228,96L228,100L224,100ZM240,96L248,96L248,100L240,100ZM256,96L260,96L260,100L256,100ZM272,96L284,96L284,100L272,100ZM292,96L296,96L296,100L292,100ZM300,96L308,96L308,100L300,100ZM320,96L324,96L324,100L320,100ZM352,96L364,96L364,100L352,100ZM48,100L52,100L52,104L48,104ZM60,100L64,100L64,104L60,104ZM80,100L88,100L88,104L80,104ZM96,100L100,100L100,104L96,104ZM108,100L112,100L112,104L108,104ZM116,100L124,100L124,104L116,104ZM136,100L140,100L140,104L136,104ZM144,100L148,100L148,104L144,104ZM152,100L160,100L160,104L152,104ZM164,100L172,100L172,104L164,104ZM176,100L180,100L180,104L176,104ZM184,100L192,100L192,104L184,104ZM196,100L200,100L200,104L196,104ZM204,100L212,100L212,104L204,104ZM216,100L220,100L220,104L216,104ZM228,100L232,100L232,104L228,104ZM240,100L248,100L248,104L240,104ZM268,100L272,100L272,104L268,104ZM276,100L280,100L280,104L276,104ZM284,100L292,100L292,104L284,104ZM296,100L300,100L300,104L296,104ZM308,100L316,100L316,104L308,104ZM320,100L352,100L352,104L320,104ZM360,100L364,100L364,104L360,104ZM48,104L56,104L56,108L48,108ZM60,104L64,104L64,108L60,108ZM68,104L76,104L76,108L68,108ZM92,104L108,104L108,108L92,108ZM116,104L120,104L120,108L116,108ZM124,104L136,104L136,108L124,108ZM140,104L152,104L152,108L140,108ZM168,104L172,104L172,108L168,108ZM176,104L180,104L180,108L176,108ZM192,104L208,104L208,108L192,108ZM212,104L216,104L216,108L212,108ZM228,104L264,104L264,108L228,108ZM272,104L280,104L280,108L272,108ZM300,104L304,104L304,108L300,108ZM308,104L312,104L312,108L308,108ZM324,104L328,104L328,108L324,108ZM332,104L336,104L336,108L332,108ZM348,104L352,104L352,108L348,108ZM356,104L360,104L360,108L356,108ZM364,104L368,104L368,108L364,108ZM60,108L64,108L64,112L60,112ZM80,108L84,108L84,112L80,112ZM88,108L92,108L92,112L88,112ZM104,108L112,108L112,112L104,112ZM116,108L124,108L124,112L116,112ZM140,108L144,108L144,112L140,112ZM152,108L156,108L156,112L152,112ZM172,108L180,108L180,112L172,112ZM188,108L192,108L192,112L188,112ZM196,108L228,108L228,112L196,112ZM232,108L236,108L236,112L232,112ZM248,108L252,108L252,112L248,112ZM268,108L272,108L272,112L268,112ZM276,108L284,108L284,112L276,112ZM288,108L292,108L292,112L288,112ZM300,108L304,108L304,112L300,112ZM312,108L316,108L316,112L312,112ZM320,108L328,108L328,112L320,112ZM332,108L336,108L336,112L332,112ZM356,108L364,108L364,112L356,112ZM368,108L372,108L372,112L368,112ZM48,112L52,112L52,116L48,116ZM60,112L64,112L64,116L60,116ZM68,112L88,112L88,116L68,116ZM100,112L116,112L116,116L100,116ZM124,112L128,112L128,116L124,116ZM140,112L148,112L148,116L140,116ZM152,112L164,112L164,116L152,116ZM168,112L172,112L172,116L168,116ZM176,112L196,112L196,116L176,116ZM212,112L220,112L220,116L212,116ZM224,112L228,112L228,116L224,116ZM236,112L248,112L248,116L236,116ZM256,112L268,112L268,116L256,116ZM272,112L276,112L276,116L272,116ZM284,112L288,112L288,116L284,116ZM292,112L296,112L296,116L292,116ZM300,112L316,112L316,116L300,116ZM320,112L324,112L324,116L320,116ZM332,112L340,112L340,116L332,116ZM348,112L356,112L356,116L348,116ZM368,112L372,112L372,116L368,116ZM48,116L56,116L56,120L48,120ZM64,116L72,116L72,120L64,120ZM80,116L84,116L84,120L80,120ZM88,116L92,116L92,120L88,120ZM96,116L100,116L100,120L96,120ZM104,116L108,116L108,120L104,120ZM116,116L120,116L120,120L116,120ZM124,116L132,116L132,120L124,120ZM136,116L140,116L140,120L136,120ZM148,116L152,116L152,120L148,120ZM156,116L168,116L168,120L156,120ZM188,116L192,116L192,120L188,120ZM212,116L216,116L216,120L212,120ZM228,116L232,116L232,120L228,120ZM236,116L244,116L244,120L236,120ZM256,116L264,116L264,120L256,120ZM268,116L272,116L272,120L268,120ZM276,116L292,116L292,120L276,120ZM296,116L300,116L300,120L296,120ZM316,116L320,116L320,120L316,120ZM324,116L332,116L332,120L324,120ZM340,116L348,116L348,120L340,120ZM352,116L356,116L356,120L352,120ZM360,116L364,116L364,120L360,120ZM48,120L52,120L52,124L48,124ZM56,120L60,120L60,124L56,124ZM64,120L68,120L68,124L64,124ZM72,120L76,120L76,124L72,124ZM80,120L100,120L100,124L80,124ZM104,120L112,120L112,124L104,124ZM120,120L128,120L128,124L120,124ZM132,120L148,120L148,124L132,124ZM152,120L160,120L160,124L152,124ZM168,120L172,120L172,124L168,124ZM180,120L184,120L184,124L180,124ZM204,120L208,120L208,124L204,124ZM212,120L224,120L224,124L212,124ZM232,120L240,120L240,124L232,124ZM244,120L248,120L248,124L244,124ZM264,120L268,120L268,124L264,124ZM280,120L284,120L284,124L280,124ZM296,120L312,120L312,124L296,124ZM324,120L340,120L340,124L324,124ZM348,120L352,120L352,124L348,124ZM356,120L360,120L360,124L356,124ZM364,120L372,120L372,124L364,124ZM48,124L52,124L52,128L48,128ZM56,124L60,124L60,128L56,128ZM64,124L72,124L72,128L64,128ZM84,124L96,124L96,128L84,128ZM112,124L116,124L116,128L112,128ZM120,124L128,124L128,128L120,128ZM136,124L144,124L144,128L136,128ZM164,124L176,124L176,128L164,128ZM180,124L184,124L184,128L180,128ZM192,124L200,124L200,128L192,128ZM204,124L208,124L208,128L204,128ZM236,124L240,124L240,128L236,128ZM252,124L260,124L260,128L252,128ZM268,124L284,124L284,128L268,128ZM288,124L292,124L292,128L288,128ZM300,124L304,124L304,128L300,128ZM312,124L316,124L316,128L312,128ZM324,124L332,124L332,128L324,128ZM336,124L344,124L344,128L336,128ZM352,124L356,124L356,128L352,128ZM360,124L364,124L364,128L360,128ZM368,124L372,124L372,128L368,128ZM48,128L52,128L52,132L48,132ZM56,128L76,128L76,132L56,132ZM80,128L88,128L88,132L80,132ZM104,128L108,128L108,132L104,132ZM112,128L124,128L124,132L112,132ZM156,128L160,128L160,132L156,132ZM172,128L180,128L180,132L172,132ZM184,128L188,128L188,132L184,132ZM192,128L220,128L220,132L192,132ZM224,128L232,128L232,132L224,132ZM236,128L240,128L240,132L236,132ZM244,128L252,128L252,132L244,132ZM256,128L268,128L268,132L256,132ZM272,128L276,128L276,132L272,132ZM284,128L288,128L288,132L284,132ZM292,128L296,128L296,132L292,132ZM300,128L304,128L304,132L300,132ZM308,128L316,128L316,132L308,132ZM320,128L324,128L324,132L320,132ZM336,128L340,128L340,132L336,132ZM348,128L356,128L356,132L348,132ZM360,128L372,128L372,132L360,132ZM56,132L60,132L60,136L56,136ZM64,132L72,132L72,136L64,136ZM80,132L84,132L84,136L80,136ZM88,132L100,132L100,136L88,136ZM104,132L108,132L108,136L104,136ZM120,132L124,132L124,136L120,136ZM132,132L136,132L136,136L132,136ZM140,132L144,132L144,136L140,136ZM152,132L160,132L160,136L152,136ZM164,132L172,132L172,136L164,136ZM188,132L192,132L192,136L188,136ZM200,132L204,132L204,136L200,136ZM208,132L216,132L216,136L208,136ZM224,132L228,132L228,136L224,136ZM236,132L240,132L240,136L236,136ZM248,132L252,132L252,136L248,136ZM256,132L260,132L260,136L256,136ZM268,132L272,132L272,136L268,136ZM276,132L292,132L292,136L276,136ZM296,132L308,132L308,136L296,136ZM316,132L320,132L320,136L316,136ZM324,132L332,132L332,136L324,136ZM340,132L348,132L348,136L340,136ZM352,132L356,132L356,136L352,136ZM360,132L364,132L364,136L360,136ZM368,132L372,132L372,136L368,136ZM52,136L64,136L64,140L52,140ZM68,136L76,136L76,140L68,140ZM100,136L104,136L104,140L100,140ZM116,136L120,136L120,140L116,140ZM124,136L128,136L128,140L124,140ZM132,136L136,136L136,140L132,140ZM140,136L144,136L144,140L140,140ZM152,136L164,136L164,140L152,140ZM172,136L176,136L176,140L172,140ZM180,136L188,136L188,140L180,140ZM192,136L196,136L196,140L192,140ZM200,136L208,136L208,140L200,140ZM212,136L224,136L224,140L212,140ZM232,136L240,136L240,140L232,140ZM252,136L260,136L260,140L252,140ZM276,136L280,136L280,140L276,140ZM296,136L308,136L308,140L296,140ZM320,136L328,136L328,140L320,140ZM332,136L340,136L340,140L332,140ZM348,136L352,136L352,140L348,140ZM356,136L360,136L360,140L356,140ZM364,136L372,136L372,140L364,140ZM48,140L52,140L52,144L48,144ZM84,140L88,140L88,144L84,144ZM104,140L108,140L108,144L104,144ZM120,140L128,140L128,144L120,144ZM136,140L140,140L140,144L136,144ZM152,140L156,140L156,144L152,144ZM160,140L168,140L168,144L160,144ZM172,140L180,140L180,144L172,144ZM188,140L204,140L204,144L188,144ZM208,140L212,140L212,144L208,144ZM220,140L224,140L224,144L220,144ZM232,140L236,140L236,144L232,144ZM272,140L276,140L276,144L272,144ZM288,140L292,140L292,144L288,144ZM296,140L304,140L304,144L296,144ZM316,140L328,140L328,144L316,144ZM348,140L352,140L352,144L348,144ZM360,140L364,140L364,144L360,144ZM368,140L372,140L372,144L368,144ZM48,144L52,144L52,148L48,148ZM60,144L92,144L92,148L60,148ZM104,144L112,144L112,148L104,148ZM116,144L120,144L120,148L116,148ZM132,144L164,144L164,148L132,148ZM168,144L172,144L172,148L168,148ZM188,144L196,144L196,148L188,148ZM200,144L208,144L208,148L200,148ZM212,144L220,144L220,148L212,148ZM228,144L268,144L268,148L228,148ZM272,144L276,144L276,148L272,148ZM280,144L284,144L284,148L280,148ZM296,144L304,144L304,148L296,148ZM308,144L316,144L316,148L308,148ZM320,144L332,144L332,148L320,148ZM336,144L356,144L356,148L336,148ZM52,148L60,148L60,152L52,152ZM64,148L68,148L68,152L64,152ZM80,148L84,148L84,152L80,152ZM92,148L96,148L96,152L92,152ZM104,148L108,148L108,152L104,152ZM112,148L120,148L120,152L112,152ZM128,148L132,148L132,152L128,152ZM136,148L140,148L140,152L136,152ZM144,148L148,148L148,152L144,152ZM160,148L172,148L172,152L160,152ZM176,148L192,148L192,152L176,152ZM200,148L204,148L204,152L200,152ZM212,148L236,148L236,152L212,152ZM240,148L244,148L244,152L240,152ZM256,148L260,148L260,152L256,152ZM268,148L276,148L276,152L268,152ZM284,148L296,148L296,152L284,152ZM304,148L308,148L308,152L304,152ZM320,148L328,148L328,152L320,152ZM336,148L340,148L340,152L336,152ZM352,148L356,148L356,152L352,152ZM360,148L364,148L364,152L360,152ZM64,152L68,152L68,156L64,156ZM72,152L76,152L76,156L72,156ZM80,152L88,152L88,156L80,156ZM92,152L100,152L100,156L92,156ZM104,152L108,152L108,156L104,156ZM112,152L128,152L128,156L112,156ZM136,152L148,152L148,156L136,156ZM152,152L156,152L156,156L152,156ZM160,152L164,152L164,156L160,156ZM168,152L188,152L188,156L168,156ZM192,152L200,152L200,156L192,156ZM204,152L224,152L224,156L204,156ZM232,152L236,152L236,156L232,156ZM240,152L244,152L244,156L240,156ZM248,152L252,152L252,156L248,156ZM256,152L260,152L260,156L256,156ZM276,152L284,152L284,156L276,156ZM288,152L292,152L292,156L288,156ZM300,152L308,152L308,156L300,156ZM320,152L324,152L324,156L320,156ZM336,152L340,152L340,156L336,156ZM344,152L348,152L348,156L344,156ZM352,152L360,152L360,156L352,156ZM52,156L56,156L56,160L52,160ZM60,156L68,156L68,160L60,160ZM80,156L96,156L96,160L80,160ZM104,156L112,156L112,160L104,160ZM124,156L128,156L128,160L124,160ZM132,156L148,156L148,160L132,160ZM160,156L164,156L164,160L160,160ZM168,156L176,156L176,160L168,160ZM192,156L204,156L204,160L192,160ZM212,156L216,156L216,160L212,160ZM228,156L232,156L232,160L228,160ZM240,156L244,156L244,160L240,160ZM256,156L260,156L260,160L256,160ZM272,156L276,156L276,160L272,160ZM284,156L288,156L288,160L284,160ZM296,156L308,156L308,160L296,160ZM324,156L340,156L340,160L324,160ZM352,156L372,156L372,160L352,160ZM52,160L56,160L56,164L52,164ZM60,160L84,160L84,164L60,164ZM100,160L104,160L104,164L100,164ZM108,160L124,160L124,164L108,164ZM128,160L140,160L140,164L128,164ZM144,160L176,160L176,164L144,164ZM180,160L200,160L200,164L180,164ZM204,160L208,160L208,164L204,164ZM212,160L216,160L216,164L212,164ZM220,160L224,160L224,164L220,164ZM228,160L236,160L236,164L228,164ZM240,160L268,160L268,164L240,164ZM280,160L296,160L296,164L280,164ZM300,160L308,160L308,164L300,164ZM312,160L316,160L316,164L312,164ZM320,160L356,160L356,164L320,164ZM360,160L364,160L364,164L360,164ZM48,164L52,164L52,168L48,168ZM64,164L72,164L72,168L64,168ZM84,164L100,164L100,168L84,168ZM104,164L120,164L120,168L104,168ZM148,164L168,164L168,168L148,168ZM192,164L208,164L208,168L192,168ZM216,164L220,164L220,168L216,168ZM224,164L228,164L228,168L224,168ZM240,164L244,164L244,168L240,168ZM248,164L252,164L252,168L248,168ZM256,164L260,164L260,168L256,168ZM272,164L276,164L276,168L272,168ZM284,164L292,164L292,168L284,168ZM296,164L300,164L300,168L296,168ZM316,164L320,164L320,168L316,168ZM324,164L328,164L328,168L324,168ZM336,164L344,164L344,168L336,168ZM352,164L356,164L356,168L352,168ZM360,164L364,164L364,168L360,168ZM48,168L52,168L52,172L48,172ZM68,168L84,168L84,172L68,172ZM92,168L100,168L100,172L92,172ZM104,168L112,168L112,172L104,172ZM124,168L128,168L128,172L124,172ZM140,168L144,168L144,172L140,172ZM148,168L168,168L168,172L148,172ZM176,168L184,168L184,172L176,172ZM196,168L224,168L224,172L196,172ZM228,168L240,168L240,172L228,172ZM248,168L256,168L256,172L248,172ZM260,168L264,168L264,172L260,172ZM276,168L284,168L284,172L276,172ZM288,168L292,168L292,172L288,172ZM296,168L308,168L308,172L296,172ZM312,168L316,168L316,172L312,172ZM324,168L340,168L340,172L324,172ZM348,168L352,168L352,172L348,172ZM356,168L360,168L360,172L356,172ZM60,172L64,172L64,176L60,176ZM76,172L84,172L84,176L76,176ZM108,172L112,172L112,176L108,176ZM116,172L120,172L120,176L116,176ZM124,172L132,172L132,176L124,176ZM136,172L148,172L148,176L136,176ZM152,172L156,172L156,176L152,176ZM164,172L176,172L176,176L164,176ZM188,172L204,172L204,176L188,176ZM216,172L220,172L220,176L216,176ZM228,172L232,172L232,176L228,176ZM236,172L256,172L256,176L236,176ZM264,172L280,172L280,176L264,176ZM288,172L292,172L292,176L288,176ZM300,172L304,172L304,176L300,176ZM316,172L320,172L320,176L316,176ZM324,172L328,172L328,176L324,176ZM336,172L344,172L344,176L336,176ZM348,172L356,172L356,176L348,176ZM360,172L372,172L372,176L360,176ZM48,176L60,176L60,180L48,180ZM64,176L84,176L84,180L64,180ZM88,176L104,176L104,180L88,180ZM112,176L116,176L116,180L112,180ZM120,176L124,176L124,180L120,180ZM128,176L132,176L132,180L128,180ZM144,176L152,176L152,180L144,180ZM156,176L168,176L168,180L156,180ZM172,176L180,176L180,180L172,180ZM196,176L200,176L200,180L196,180ZM212,176L228,176L228,180L212,180ZM240,176L244,176L244,180L240,180ZM252,176L268,176L268,180L252,180ZM272,176L276,176L276,180L272,180ZM292,176L296,176L296,180L292,180ZM308,176L316,176L316,180L308,180ZM320,176L324,176L324,180L320,180ZM336,176L340,176L340,180L336,180ZM48,180L56,180L56,184L48,184ZM60,180L72,180L72,184L60,184ZM80,180L84,180L84,184L80,184ZM88,180L92,180L92,184L88,184ZM96,180L104,180L104,184L96,184ZM108,180L124,180L124,184L108,184ZM128,180L136,180L136,184L128,184ZM160,180L168,180L168,184L160,184ZM172,180L176,180L176,184L172,184ZM180,180L184,180L184,184L180,184ZM204,180L208,180L208,184L204,184ZM212,180L228,180L228,184L212,184ZM236,180L248,180L248,184L236,184ZM252,180L256,180L256,184L252,184ZM268,180L272,180L272,184L268,184ZM276,180L292,180L292,184L276,184ZM296,180L308,180L308,184L296,184ZM316,180L320,180L320,184L316,184ZM324,180L340,180L340,184L324,184ZM352,180L356,180L356,184L352,184ZM360,180L364,180L364,184L360,184ZM48,184L52,184L52,188L48,188ZM56,184L60,184L60,188L56,188ZM72,184L84,184L84,188L72,188ZM88,184L92,184L92,188L88,188ZM96,184L100,184L100,188L96,188ZM108,184L120,184L120,188L108,188ZM128,184L132,184L132,188L128,188ZM140,184L148,184L148,188L140,188ZM152,184L156,184L156,188L152,188ZM160,184L164,184L164,188L160,188ZM168,184L172,184L172,188L168,188ZM176,184L180,184L180,188L176,188ZM188,184L200,184L200,188L188,188ZM216,184L224,184L224,188L216,188ZM228,184L236,184L236,188L228,188ZM244,184L252,184L252,188L244,188ZM256,184L260,184L260,188L256,188ZM264,184L268,184L268,188L264,188ZM296,184L308,184L308,188L296,188ZM312,184L316,184L316,188L312,188ZM324,184L328,184L328,188L324,188ZM332,184L352,184L352,188L332,188ZM356,184L360,184L360,188L356,188ZM52,188L60,188L60,192L52,192ZM84,188L96,188L96,192L84,192ZM100,188L104,188L104,192L100,192ZM112,188L120,188L120,192L112,192ZM124,188L144,188L144,192L124,192ZM152,188L156,188L156,192L152,192ZM168,188L180,188L180,192L168,192ZM184,188L196,188L196,192L184,192ZM204,188L224,188L224,192L204,192ZM244,188L248,188L248,192L244,192ZM252,188L260,188L260,192L252,192ZM272,188L280,188L280,192L272,192ZM288,188L292,188L292,192L288,192ZM296,188L308,188L308,192L296,192ZM312,188L316,188L316,192L312,192ZM320,188L328,188L328,192L320,192ZM332,188L344,188L344,192L332,192ZM360,188L372,188L372,192L360,192ZM60,192L68,192L68,196L60,196ZM72,192L76,192L76,196L72,196ZM84,192L92,192L92,196L84,196ZM96,192L112,192L112,196L96,196ZM120,192L128,192L128,196L120,196ZM132,192L136,192L136,196L132,196ZM148,192L152,192L152,196L148,196ZM160,192L168,192L168,196L160,196ZM176,192L180,192L180,196L176,196ZM196,192L200,192L200,196L196,196ZM208,192L212,192L212,196L208,196ZM216,192L220,192L220,196L216,196ZM224,192L228,192L228,196L224,196ZM232,192L252,192L252,196L232,196ZM256,192L260,192L260,196L256,196ZM272,192L284,192L284,196L272,196ZM292,192L296,192L296,196L292,196ZM300,192L320,192L320,196L300,196ZM340,192L344,192L344,196L340,196ZM356,192L364,192L364,196L356,196ZM56,196L64,196L64,200L56,200ZM68,196L72,196L72,200L68,200ZM84,196L100,196L100,200L84,200ZM108,196L112,196L112,200L108,200ZM128,196L136,196L136,200L128,200ZM140,196L152,196L152,200L140,200ZM160,196L164,196L164,200L160,200ZM188,196L196,196L196,200L188,200ZM200,196L208,196L208,200L200,200ZM228,196L236,196L236,200L228,200ZM240,196L244,196L244,200L240,200ZM264,196L272,196L272,200L264,200ZM288,196L300,196L300,200L288,200ZM316,196L340,196L340,200L316,200ZM352,196L356,196L356,200L352,200ZM360,196L368,196L368,200L360,200ZM48,200L80,200L80,204L48,204ZM84,200L92,200L92,204L84,204ZM100,200L104,200L104,204L100,204ZM120,200L136,200L136,204L120,204ZM140,200L148,200L148,204L140,204ZM152,200L156,200L156,204L152,204ZM164,200L168,200L168,204L164,204ZM172,200L188,200L188,204L172,204ZM204,200L216,200L216,204L204,204ZM220,200L224,200L224,204L220,204ZM236,200L240,200L240,204L236,204ZM264,200L268,200L268,204L264,204ZM272,200L276,200L276,204L272,204ZM280,200L284,200L284,204L280,204ZM288,200L292,200L292,204L288,204ZM300,200L304,200L304,204L300,204ZM308,200L312,200L312,204L308,204ZM316,200L320,200L320,204L316,204ZM336,200L352,200L352,204L336,204ZM356,200L360,200L360,204L356,204ZM368,200L372,200L372,204L368,204ZM52,204L60,204L60,208L52,208ZM68,204L72,204L72,208L68,208ZM76,204L80,204L80,208L76,208ZM84,204L88,204L88,208L84,208ZM96,204L100,204L100,208L96,208ZM108,204L116,204L116,208L108,208ZM120,204L124,204L124,208L120,208ZM128,204L144,204L144,208L128,208ZM148,204L152,204L152,208L148,208ZM160,204L164,204L164,208L160,208ZM168,204L184,204L184,208L168,208ZM188,204L200,204L200,208L188,208ZM212,204L220,204L220,208L212,208ZM232,204L236,204L236,208L232,208ZM240,204L244,204L244,208L240,208ZM248,204L260,204L260,208L248,208ZM268,204L280,204L280,208L268,208ZM288,204L292,204L292,208L288,208ZM312,204L316,204L316,208L312,208ZM320,204L332,204L332,208L320,208ZM336,204L340,204L340,208L336,208ZM360,204L372,204L372,208L360,208ZM52,208L56,208L56,212L52,212ZM72,208L76,208L76,212L72,212ZM92,208L108,208L108,212L92,212ZM116,208L120,208L120,212L116,212ZM128,208L132,208L132,212L128,212ZM140,208L164,208L164,212L140,212ZM176,208L192,208L192,212L176,212ZM196,208L216,208L216,212L196,212ZM220,208L224,208L224,212L220,212ZM240,208L252,208L252,212L240,212ZM260,208L268,208L268,212L260,212ZM272,208L276,208L276,212L272,212ZM288,208L308,208L308,212L288,212ZM320,208L324,208L324,212L320,212ZM328,208L336,208L336,212L328,212ZM348,208L352,208L352,212L348,212ZM356,208L360,208L360,212L356,212ZM56,212L60,212L60,216L56,216ZM64,212L68,212L68,216L64,216ZM76,212L84,212L84,216L76,216ZM88,212L92,212L92,216L88,216ZM96,212L104,212L104,216L96,216ZM112,212L124,212L124,216L112,216ZM136,212L152,212L152,216L136,216ZM156,212L160,212L160,216L156,216ZM172,212L176,212L176,216L172,216ZM184,212L200,212L200,216L184,216ZM212,212L220,212L220,216L212,216ZM224,212L228,212L228,216L224,216ZM236,212L240,212L240,216L236,216ZM272,212L276,212L276,216L272,216ZM280,212L284,212L284,216L280,216ZM288,212L308,212L308,216L288,216ZM316,212L320,212L320,216L316,216ZM328,212L332,212L332,216L328,216ZM336,212L340,212L340,216L336,216ZM352,212L356,212L356,216L352,216ZM360,212L372,212L372,216L360,216ZM56,216L60,216L60,220L56,220ZM64,216L68,216L68,220L64,220ZM72,216L76,216L76,220L72,220ZM80,216L84,216L84,220L80,220ZM88,216L92,216L92,220L88,220ZM96,216L100,216L100,220L96,220ZM104,216L108,216L108,220L104,220ZM112,216L120,216L120,220L112,220ZM124,216L132,216L132,220L124,220ZM144,216L164,216L164,220L144,220ZM168,216L172,216L172,220L168,220ZM188,216L196,216L196,220L188,220ZM204,216L212,216L212,220L204,220ZM216,216L220,216L220,220L216,220ZM224,216L236,216L236,220L224,220ZM244,216L248,216L248,220L244,220ZM260,216L264,216L264,220L260,220ZM276,216L280,216L280,220L276,220ZM288,216L292,216L292,220L288,220ZM300,216L312,216L312,220L300,220ZM320,216L328,216L328,220L320,220ZM332,216L336,216L336,220L332,220ZM340,216L352,216L352,220L340,220ZM356,216L360,216L360,220L356,220ZM52,220L56,220L56,224L52,224ZM60,220L64,220L64,224L60,224ZM84,220L88,220L88,224L84,224ZM92,220L112,220L112,224L92,224ZM116,220L124,220L124,224L116,224ZM128,220L136,220L136,224L128,224ZM148,220L172,220L172,224L148,224ZM180,220L184,220L184,224L180,224ZM196,220L204,220L204,224L196,224ZM220,220L228,220L228,224L220,224ZM232,220L236,220L236,224L232,224ZM244,220L248,220L248,224L244,224ZM252,220L256,220L256,224L252,224ZM264,220L268,220L268,224L264,224ZM276,220L280,220L280,224L276,224ZM296,220L304,220L304,224L296,224ZM316,220L320,220L320,224L316,224ZM324,220L328,220L328,224L324,224ZM336,220L340,220L340,224L336,224ZM348,220L356,220L356,224L348,224ZM360,220L372,220L372,224L360,224ZM48,224L52,224L52,228L48,228ZM56,224L60,224L60,228L56,228ZM64,224L68,224L68,228L64,228ZM72,224L80,224L80,228L72,228ZM88,224L92,224L92,228L88,228ZM96,224L100,224L100,228L96,228ZM108,224L112,224L112,228L108,228ZM124,224L128,224L128,228L124,228ZM132,224L136,224L136,228L132,228ZM140,224L148,224L148,228L140,228ZM168,224L172,224L172,228L168,228ZM196,224L200,224L200,228L196,228ZM204,224L208,224L208,228L204,228ZM216,224L232,224L232,228L216,228ZM236,224L244,224L244,228L236,228ZM248,224L252,224L252,228L248,228ZM264,224L268,224L268,228L264,228ZM272,224L276,224L276,228L272,228ZM296,224L300,224L300,228L296,228ZM308,224L316,224L316,228L308,228ZM324,224L336,224L336,228L324,228ZM340,224L352,224L352,228L340,228ZM356,224L364,224L364,228L356,228ZM48,228L52,228L52,232L48,232ZM60,228L64,228L64,232L60,232ZM68,228L72,228L72,232L68,232ZM80,228L92,228L92,232L80,232ZM96,228L100,228L100,232L96,232ZM104,228L108,228L108,232L104,232ZM112,228L116,228L116,232L112,232ZM136,228L140,228L140,232L136,232ZM148,228L152,228L152,232L148,232ZM160,228L172,228L172,232L160,232ZM176,228L180,228L180,232L176,232ZM184,228L188,228L188,232L184,232ZM192,228L196,228L196,232L192,232ZM220,228L236,228L236,232L220,232ZM244,228L252,228L252,232L244,232ZM268,228L272,228L272,232L268,232ZM276,228L296,228L296,232L276,232ZM300,228L308,228L308,232L300,232ZM320,228L332,228L332,232L320,232ZM336,228L344,228L344,232L336,232ZM352,228L356,228L356,232L352,232ZM360,228L364,228L364,232L360,232ZM52,232L56,232L56,236L52,236ZM60,232L64,232L64,236L60,236ZM68,232L76,232L76,236L68,236ZM84,232L96,232L96,236L84,236ZM100,232L108,232L108,236L100,236ZM112,232L120,232L120,236L112,236ZM128,232L132,232L132,236L128,236ZM136,232L144,232L144,236L136,236ZM148,232L156,232L156,236L148,236ZM164,232L168,232L168,236L164,236ZM172,232L180,232L180,236L172,236ZM184,232L192,232L192,236L184,236ZM220,232L224,232L224,236L220,236ZM228,232L236,232L236,236L228,236ZM240,232L244,232L244,236L240,236ZM252,232L260,232L260,236L252,236ZM264,232L268,232L268,236L264,236ZM272,232L280,232L280,236L272,236ZM288,232L304,232L304,236L288,236ZM312,232L316,232L316,236L312,236ZM320,232L324,232L324,236L320,236ZM332,232L340,232L340,236L332,236ZM348,232L352,232L352,236L348,236ZM356,232L360,232L360,236L356,236ZM364,232L368,232L368,236L364,236ZM52,236L72,236L72,240L52,240ZM76,236L84,236L84,240L76,240ZM88,236L92,236L92,240L88,240ZM116,236L124,236L124,240L116,240ZM132,236L140,236L140,240L132,240ZM152,236L172,236L172,240L152,240ZM176,236L180,236L180,240L176,240ZM196,236L200,236L200,240L196,240ZM204,236L208,236L208,240L204,240ZM212,236L220,236L220,240L212,240ZM224,236L228,236L228,240L224,240ZM232,236L236,236L236,240L232,240ZM248,236L252,236L252,240L248,240ZM256,236L260,236L260,240L256,240ZM276,236L280,236L280,240L276,240ZM288,236L292,236L292,240L288,240ZM300,236L304,236L304,240L300,240ZM312,236L316,236L316,240L312,240ZM324,236L328,236L328,240L324,240ZM340,236L348,236L348,240L340,240ZM360,236L372,236L372,240L360,240ZM48,240L52,240L52,244L48,244ZM56,240L60,240L60,244L56,244ZM64,240L84,240L84,244L64,244ZM104,240L108,240L108,244L104,244ZM112,240L120,240L120,244L112,244ZM128,240L132,240L132,244L128,244ZM136,240L140,240L140,244L136,244ZM144,240L168,240L168,244L144,244ZM180,240L184,240L184,244L180,244ZM188,240L192,240L192,244L188,244ZM204,240L216,240L216,244L204,244ZM228,240L260,240L260,244L228,244ZM264,240L268,240L268,244L264,244ZM272,240L276,240L276,244L272,244ZM292,240L296,240L296,244L292,244ZM300,240L316,240L316,244L300,244ZM320,240L324,240L324,244L320,244ZM336,240L364,240L364,244L336,244ZM56,244L60,244L60,248L56,248ZM64,244L68,244L68,248L64,248ZM80,244L84,244L84,248L80,248ZM88,244L108,244L108,248L88,248ZM116,244L120,244L120,248L116,248ZM124,244L132,244L132,248L124,248ZM136,244L140,244L140,248L136,248ZM144,244L148,244L148,248L144,248ZM160,244L168,244L168,248L160,248ZM176,244L184,244L184,248L176,248ZM192,244L196,244L196,248L192,248ZM224,244L228,244L228,248L224,248ZM232,244L236,244L236,248L232,248ZM240,244L244,244L244,248L240,248ZM256,244L260,244L260,248L256,248ZM268,244L272,244L272,248L268,248ZM276,244L292,244L292,248L276,248ZM296,244L300,244L300,248L296,248ZM316,244L320,244L320,248L316,248ZM324,244L332,244L332,248L324,248ZM336,244L340,244L340,248L336,248ZM352,244L356,244L356,248L352,248ZM360,244L364,244L364,248L360,248ZM48,248L52,248L52,252L48,252ZM64,248L68,248L68,252L64,252ZM72,248L76,248L76,252L72,252ZM80,248L88,248L88,252L80,252ZM100,248L104,248L104,252L100,252ZM108,248L116,248L116,252L108,252ZM128,248L132,248L132,252L128,252ZM144,248L148,248L148,252L144,252ZM152,248L156,248L156,252L152,252ZM160,248L168,248L168,252L160,252ZM184,248L192,248L192,252L184,252ZM204,248L216,248L216,252L204,252ZM220,248L224,248L224,252L220,252ZM228,248L232,248L232,252L228,252ZM236,248L244,248L244,252L236,252ZM248,248L252,248L252,252L248,252ZM256,248L260,248L260,252L256,252ZM264,248L268,248L268,252L264,252ZM272,248L284,248L284,252L272,252ZM292,248L304,248L304,252L292,252ZM312,248L316,248L316,252L312,252ZM320,248L328,248L328,252L320,252ZM332,248L340,248L340,252L332,252ZM344,248L348,248L348,252L344,252ZM352,248L360,248L360,252L352,252ZM48,252L60,252L60,256L48,256ZM64,252L68,252L68,256L64,256ZM80,252L92,252L92,256L80,256ZM108,252L116,252L116,256L108,256ZM132,252L140,252L140,256L132,256ZM144,252L148,252L148,256L144,256ZM160,252L168,252L168,256L160,256ZM172,252L176,252L176,256L172,256ZM180,252L188,252L188,256L180,256ZM196,252L208,252L208,256L196,256ZM212,252L220,252L220,256L212,256ZM228,252L236,252L236,256L228,256ZM240,252L244,252L244,256L240,256ZM256,252L264,252L264,256L256,256ZM268,252L284,252L284,256L268,256ZM288,252L292,252L292,256L288,256ZM296,252L304,252L304,256L296,256ZM324,252L332,252L332,256L324,256ZM336,252L340,252L340,256L336,256ZM352,252L372,252L372,256L352,256ZM48,256L60,256L60,260L48,260ZM64,256L104,256L104,260L64,260ZM112,256L116,256L116,260L112,260ZM132,256L168,256L168,260L132,260ZM176,256L180,256L180,260L176,260ZM184,256L188,256L188,260L184,260ZM200,256L204,256L204,260L200,260ZM212,256L216,256L216,260L212,260ZM220,256L224,256L224,260L220,260ZM236,256L260,256L260,260L236,260ZM264,256L268,256L268,260L264,260ZM272,256L276,256L276,260L272,260ZM284,256L288,256L288,260L284,260ZM292,256L296,256L296,260L292,260ZM300,256L308,256L308,260L300,260ZM336,256L364,256L364,260L336,260ZM52,260L60,260L60,264L52,264ZM64,260L68,260L68,264L64,264ZM92,260L100,260L100,264L92,264ZM104,260L108,260L108,264L104,264ZM116,260L136,260L136,264L116,264ZM148,260L152,260L152,264L148,264ZM164,260L168,260L168,264L164,264ZM172,260L176,260L176,264L172,264ZM184,260L188,260L188,264L184,264ZM192,260L200,260L200,264L192,264ZM204,260L208,260L208,264L204,264ZM212,260L220,260L220,264L212,264ZM228,260L232,260L232,264L228,264ZM252,260L256,260L256,264L252,264ZM264,260L272,260L272,264L264,264ZM276,260L284,260L284,264L276,264ZM296,260L300,260L300,264L296,264ZM308,260L316,260L316,264L308,264ZM320,260L336,260L336,264L320,264ZM344,260L348,260L348,264L344,264ZM360,260L368,260L368,264L360,264ZM56,264L60,264L60,268L56,268ZM64,264L68,264L68,268L64,268ZM72,264L80,264L80,268L72,268ZM88,264L92,264L92,268L88,268ZM96,264L100,264L100,268L96,268ZM108,264L112,264L112,268L108,268ZM116,264L124,264L124,268L116,268ZM128,264L160,264L160,268L128,268ZM180,264L192,264L192,268L180,268ZM196,264L200,264L200,268L196,268ZM216,264L228,264L228,268L216,268ZM240,264L244,264L244,268L240,268ZM248,264L252,264L252,268L248,268ZM256,264L264,264L264,268L256,268ZM272,264L284,264L284,268L272,268ZM296,264L308,264L308,268L296,268ZM324,264L344,264L344,268L324,268ZM352,264L360,264L360,268L352,268ZM48,268L60,268L60,272L48,272ZM64,268L68,268L68,272L64,272ZM76,268L88,268L88,272L76,272ZM92,268L104,268L104,272L92,272ZM124,268L140,268L140,272L124,272ZM144,268L148,268L148,272L144,272ZM152,268L160,268L160,272L152,272ZM172,268L180,268L180,272L172,272ZM184,268L188,268L188,272L184,272ZM196,268L212,268L212,272L196,272ZM216,268L224,268L224,272L216,272ZM232,268L236,268L236,272L232,272ZM240,268L248,268L248,272L240,272ZM264,268L268,268L268,272L264,272ZM276,268L280,268L280,272L276,272ZM296,268L300,268L300,272L296,272ZM304,268L308,268L308,272L304,272ZM320,268L328,268L328,272L320,272ZM332,268L340,268L340,272L332,272ZM348,268L352,268L352,272L348,272ZM360,268L372,268L372,272L360,272ZM52,272L60,272L60,276L52,276ZM68,272L76,272L76,276L68,276ZM80,272L84,272L84,276L80,276ZM88,272L92,272L92,276L88,276ZM100,272L104,272L104,276L100,276ZM108,272L116,272L116,276L108,276ZM140,272L148,272L148,276L140,276ZM156,272L160,272L160,276L156,276ZM164,272L168,272L168,276L164,276ZM180,272L184,272L184,276L180,276ZM200,272L208,272L208,276L200,276ZM212,272L220,272L220,276L212,276ZM224,272L228,272L228,276L224,276ZM232,272L236,272L236,276L232,276ZM240,272L248,272L248,276L240,276ZM264,272L292,272L292,276L264,276ZM296,272L308,272L308,276L296,276ZM320,272L324,272L324,276L320,276ZM344,272L348,272L348,276L344,276ZM356,272L364,272L364,276L356,276ZM48,276L64,276L64,280L48,280ZM68,276L72,276L72,280L68,280ZM88,276L96,276L96,280L88,280ZM112,276L116,276L116,280L112,280ZM120,276L124,276L124,280L120,280ZM128,276L140,276L140,280L128,280ZM144,276L148,276L148,280L144,280ZM152,276L168,276L168,280L152,280ZM192,276L200,276L200,280L192,280ZM204,276L216,276L216,280L204,280ZM220,276L232,276L232,280L220,280ZM240,276L252,276L252,280L240,280ZM260,276L264,276L264,280L260,280ZM268,276L272,276L272,280L268,280ZM276,276L288,276L288,280L276,280ZM300,276L308,276L308,280L300,280ZM316,276L356,276L356,280L316,280ZM360,276L372,276L372,280L360,280ZM56,280L60,280L60,284L56,284ZM64,280L68,280L68,284L64,284ZM72,280L80,280L80,284L72,284ZM88,280L96,280L96,284L88,284ZM104,280L108,280L108,284L104,284ZM112,280L116,280L116,284L112,284ZM124,280L128,280L128,284L124,284ZM132,280L148,280L148,284L132,284ZM164,280L168,280L168,284L164,284ZM172,280L176,280L176,284L172,284ZM180,280L200,280L200,284L180,284ZM208,280L212,280L212,284L208,284ZM216,280L220,280L220,284L216,284ZM224,280L236,280L236,284L224,284ZM240,280L260,280L260,284L240,284ZM272,280L276,280L276,284L272,284ZM280,280L284,280L284,284L280,284ZM288,280L296,280L296,284L288,284ZM300,280L308,280L308,284L300,284ZM312,280L316,280L316,284L312,284ZM320,280L328,280L328,284L320,284ZM352,280L360,280L360,284L352,284ZM364,280L368,280L368,284L364,284ZM52,284L72,284L72,288L52,288ZM76,284L84,284L84,288L76,288ZM88,284L100,284L100,288L88,288ZM116,284L120,284L120,288L116,288ZM128,284L132,284L132,288L128,288ZM140,284L156,284L156,288L140,288ZM160,284L164,284L164,288L160,288ZM176,284L180,284L180,288L176,288ZM184,284L192,284L192,288L184,288ZM200,284L208,284L208,288L200,288ZM216,284L224,284L224,288L216,288ZM248,284L256,284L256,288L248,288ZM264,284L284,284L284,288L264,288ZM288,284L300,284L300,288L288,288ZM316,284L320,284L320,288L316,288ZM324,284L328,284L328,288L324,288ZM332,284L352,284L352,288L332,288ZM360,284L372,284L372,288L360,288ZM48,288L56,288L56,292L48,292ZM60,288L64,288L64,292L60,292ZM72,288L80,288L80,292L72,292ZM84,288L104,288L104,292L84,292ZM108,288L120,288L120,292L108,292ZM124,288L132,288L132,292L124,292ZM136,288L140,288L140,292L136,292ZM144,288L156,288L156,292L144,292ZM164,288L188,288L188,292L164,292ZM192,288L196,288L196,292L192,292ZM200,288L204,288L204,292L200,292ZM216,288L228,288L228,292L216,292ZM236,288L244,288L244,292L236,292ZM264,288L272,288L272,292L264,292ZM292,288L304,288L304,292L292,292ZM308,288L316,288L316,292L308,292ZM320,288L328,288L328,292L320,292ZM336,288L344,288L344,292L336,292ZM360,288L364,288L364,292L360,292ZM48,292L64,292L64,296L48,296ZM68,292L72,292L72,296L68,296ZM76,292L80,292L80,296L76,296ZM92,292L100,292L100,296L92,296ZM108,292L116,292L116,296L108,296ZM120,292L124,292L124,296L120,296ZM128,292L144,292L144,296L128,296ZM152,292L172,292L172,296L152,296ZM176,292L180,292L180,296L176,296ZM184,292L204,292L204,296L184,296ZM208,292L216,292L216,296L208,296ZM232,292L240,292L240,296L232,296ZM260,292L268,292L268,296L260,296ZM272,292L296,292L296,296L272,296ZM300,292L308,292L308,296L300,296ZM316,292L320,292L320,296L316,296ZM324,292L332,292L332,296L324,296ZM340,292L352,292L352,296L340,296ZM360,292L364,292L364,296L360,296ZM52,296L56,296L56,300L52,300ZM64,296L76,296L76,300L64,300ZM80,296L84,296L84,300L80,300ZM96,296L100,296L100,300L96,300ZM104,296L108,296L108,300L104,300ZM116,296L124,296L124,300L116,300ZM132,296L136,296L136,300L132,300ZM140,296L144,296L144,300L140,300ZM152,296L156,296L156,300L152,300ZM164,296L168,296L168,300L164,300ZM176,296L188,296L188,300L176,300ZM192,296L208,296L208,300L192,300ZM212,296L232,296L232,300L212,300ZM240,296L248,296L248,300L240,300ZM252,296L256,296L256,300L252,300ZM260,296L268,296L268,300L260,300ZM272,296L280,296L280,300L272,300ZM288,296L292,296L292,300L288,300ZM296,296L316,296L316,300L296,300ZM320,296L328,296L328,300L320,300ZM352,296L364,296L364,300L352,300ZM368,296L372,296L372,300L368,300ZM48,300L60,300L60,304L48,304ZM68,300L72,300L72,304L68,304ZM76,300L84,300L84,304L76,304ZM88,300L100,300L100,304L88,304ZM104,300L108,300L108,304L104,304ZM112,300L116,300L116,304L112,304ZM120,300L124,300L124,304L120,304ZM132,300L136,300L136,304L132,304ZM140,300L152,300L152,304L140,304ZM156,300L160,300L160,304L156,304ZM168,300L176,300L176,304L168,304ZM180,300L184,300L184,304L180,304ZM188,300L192,300L192,304L188,304ZM200,300L212,300L212,304L200,304ZM216,300L228,300L228,304L216,304ZM236,300L240,300L240,304L236,304ZM244,300L252,300L252,304L244,304ZM264,300L268,300L268,304L264,304ZM276,300L280,300L280,304L276,304ZM284,300L292,300L292,304L284,304ZM300,300L304,300L304,304L300,304ZM312,300L320,300L320,304L312,304ZM324,300L352,300L352,304L324,304ZM360,300L372,300L372,304L360,304ZM52,304L56,304L56,308L52,308ZM72,304L80,304L80,308L72,308ZM84,304L92,304L92,308L84,308ZM108,304L112,304L112,308L108,308ZM116,304L120,304L120,308L116,308ZM128,304L132,304L132,308L128,308ZM136,304L140,304L140,308L136,308ZM144,304L148,304L148,308L144,308ZM160,304L168,304L168,308L160,308ZM172,304L204,304L204,308L172,308ZM220,304L224,304L224,308L220,308ZM228,304L236,304L236,308L228,308ZM244,304L252,304L252,308L244,308ZM260,304L264,304L264,308L260,308ZM272,304L276,304L276,308L272,308ZM292,304L296,304L296,308L292,308ZM300,304L308,304L308,308L300,308ZM320,304L324,304L324,308L320,308ZM356,304L364,304L364,308L356,308ZM48,308L52,308L52,312L48,312ZM56,308L60,308L60,312L56,312ZM76,308L80,308L80,312L76,312ZM84,308L92,308L92,312L84,312ZM96,308L100,308L100,312L96,312ZM128,308L132,308L132,312L128,312ZM140,308L152,308L152,312L140,312ZM168,308L180,308L180,312L168,312ZM184,308L196,308L196,312L184,312ZM200,308L204,308L204,312L200,312ZM208,308L212,308L212,312L208,312ZM224,308L228,308L228,312L224,312ZM232,308L248,308L248,312L232,312ZM252,308L264,308L264,312L252,312ZM268,308L272,308L272,312L268,312ZM276,308L292,308L292,312L276,312ZM296,308L300,308L300,312L296,312ZM308,308L320,308L320,312L308,312ZM324,308L332,308L332,312L324,312ZM340,308L356,308L356,312L340,312ZM360,308L372,308L372,312L360,312ZM48,312L52,312L52,316L48,316ZM60,312L80,312L80,316L60,316ZM96,312L108,312L108,316L96,316ZM116,312L120,312L120,316L116,316ZM124,312L128,312L128,316L124,316ZM144,312L148,312L148,316L144,316ZM164,312L168,312L168,316L164,316ZM172,312L176,312L176,316L172,316ZM180,312L192,312L192,316L180,316ZM196,312L200,312L200,316L196,316ZM204,312L208,312L208,316L204,316ZM212,312L220,312L220,316L212,316ZM228,312L244,312L244,316L228,316ZM248,312L260,312L260,316L248,316ZM264,312L268,312L268,316L264,316ZM272,312L284,312L284,316L272,316ZM300,312L304,312L304,316L300,316ZM324,312L328,312L328,316L324,316ZM348,312L352,312L352,316L348,316ZM360,312L364,312L364,316L360,316ZM52,316L60,316L60,320L52,320ZM68,316L72,316L72,320L68,320ZM76,316L80,316L80,320L76,320ZM92,316L112,316L112,320L92,320ZM132,316L136,316L136,320L132,320ZM144,316L156,316L156,320L144,320ZM164,316L168,316L168,320L164,320ZM176,316L180,316L180,320L176,320ZM188,316L200,316L200,320L188,320ZM208,316L212,316L212,320L208,320ZM216,316L220,316L220,320L216,320ZM240,316L248,316L248,320L240,320ZM252,316L260,316L260,320L252,320ZM264,316L268,316L268,320L264,320ZM276,316L280,316L280,320L276,320ZM296,316L308,316L308,320L296,320ZM316,316L320,316L320,320L316,320ZM324,316L328,316L328,320L324,320ZM332,316L348,316L348,320L332,320ZM360,316L372,316L372,320L360,320ZM48,320L56,320L56,324L48,324ZM60,320L68,320L68,324L60,324ZM72,320L76,320L76,324L72,324ZM80,320L88,320L88,324L80,324ZM96,320L104,320L104,324L96,324ZM112,320L128,320L128,324L112,324ZM132,320L136,320L136,324L132,324ZM140,320L144,320L144,324L140,324ZM160,320L172,320L172,324L160,324ZM176,320L184,320L184,324L176,324ZM204,320L208,320L208,324L204,324ZM236,320L248,320L248,324L236,324ZM252,320L256,320L256,324L252,324ZM272,320L284,320L284,324L272,324ZM296,320L300,320L300,324L296,324ZM308,320L316,320L316,324L308,324ZM320,320L324,320L324,324L320,324ZM336,320L344,320L344,324L336,324ZM348,320L356,320L356,324L348,324ZM360,320L364,320L364,324L360,324ZM48,324L52,324L52,328L48,328ZM56,324L60,324L60,328L56,328ZM80,324L92,324L92,328L80,328ZM100,324L104,324L104,328L100,328ZM112,324L116,324L116,328L112,328ZM124,324L132,324L132,328L124,328ZM140,324L152,324L152,328L140,328ZM156,324L164,324L164,328L156,328ZM172,324L176,324L176,328L172,328ZM180,324L184,324L184,328L180,328ZM208,324L212,324L212,328L208,328ZM216,324L220,324L220,328L216,328ZM224,324L228,324L228,328L224,328ZM232,324L240,324L240,328L232,328ZM260,324L264,324L264,328L260,328ZM284,324L296,324L296,328L284,328ZM304,324L308,324L308,328L304,328ZM316,324L320,324L320,328L316,328ZM324,324L336,324L336,328L324,328ZM344,324L348,324L348,328L344,328ZM360,324L364,324L364,328L360,328ZM368,324L372,324L372,328L368,328ZM52,328L64,328L64,332L52,332ZM72,328L84,328L84,332L72,332ZM92,328L108,328L108,332L92,332ZM136,328L140,328L140,332L136,332ZM144,328L148,328L148,332L144,332ZM152,328L156,328L156,332L152,332ZM160,328L172,328L172,332L160,332ZM180,328L184,328L184,332L180,332ZM188,328L192,328L192,332L188,332ZM196,328L200,328L200,332L196,332ZM204,328L208,328L208,332L204,332ZM228,328L232,328L232,332L228,332ZM248,328L264,328L264,332L248,332ZM272,328L280,328L280,332L272,332ZM296,328L300,328L300,332L296,332ZM304,328L308,328L308,332L304,332ZM312,328L316,328L316,332L312,332ZM320,328L328,328L328,332L320,332ZM332,328L340,328L340,332L332,332ZM352,328L360,328L360,332L352,332ZM52,332L56,332L56,336L52,336ZM68,332L72,332L72,336L68,336ZM76,332L80,332L80,336L76,336ZM84,332L88,332L88,336L84,336ZM96,332L104,332L104,336L96,336ZM108,332L112,332L112,336L108,336ZM120,332L132,332L132,336L120,336ZM136,332L140,332L140,336L136,336ZM148,332L152,332L152,336L148,336ZM164,332L168,332L168,336L164,336ZM176,332L196,332L196,336L176,336ZM200,332L208,332L208,336L200,336ZM220,332L224,332L224,336L220,336ZM228,332L240,332L240,336L228,336ZM248,332L256,332L256,336L248,336ZM264,332L268,332L268,336L264,336ZM276,332L292,332L292,336L276,336ZM296,332L304,332L304,336L296,336ZM312,332L328,332L328,336L312,336ZM340,332L344,332L344,336L340,336ZM348,332L352,332L352,336L348,336ZM356,332L364,332L364,336L356,336ZM52,336L64,336L64,340L52,340ZM72,336L76,336L76,340L72,340ZM80,336L84,336L84,340L80,340ZM88,336L100,336L100,340L88,340ZM104,336L108,336L108,340L104,340ZM120,336L140,336L140,340L120,340ZM144,336L172,336L172,340L144,340ZM176,336L180,336L180,340L176,340ZM188,336L196,336L196,340L188,340ZM208,336L212,336L212,340L208,340ZM220,336L228,336L228,340L220,340ZM232,336L236,336L236,340L232,340ZM240,336L264,336L264,340L240,340ZM272,336L276,336L276,340L272,340ZM280,336L284,336L284,340L280,340ZM292,336L296,336L296,340L292,340ZM300,336L308,336L308,340L300,340ZM316,336L320,336L320,340L316,340ZM336,336L356,336L356,340L336,340ZM364,336L368,336L368,340L364,340ZM80,340L88,340L88,344L80,344ZM96,340L100,340L100,344L96,344ZM104,340L108,340L108,344L104,344ZM116,340L120,340L120,344L116,344ZM124,340L128,340L128,344L124,344ZM136,340L148,340L148,344L136,344ZM160,340L164,340L164,344L160,344ZM176,340L180,340L180,344L176,344ZM188,340L192,340L192,344L188,344ZM208,340L216,340L216,344L208,344ZM220,340L232,340L232,344L220,344ZM240,340L244,340L244,344L240,344ZM256,340L268,340L268,344L256,344ZM296,340L300,340L300,344L296,344ZM320,340L324,340L324,344L320,344ZM332,340L340,340L340,344L332,344ZM352,340L368,340L368,344L352,344ZM48,344L76,344L76,348L48,348ZM84,344L88,344L88,348L84,348ZM92,344L100,344L100,348L92,348ZM108,344L120,344L120,348L108,348ZM140,344L148,344L148,348L140,348ZM152,344L156,344L156,348L152,348ZM160,344L164,344L164,348L160,348ZM172,344L192,344L192,348L172,348ZM196,344L200,344L200,348L196,348ZM212,344L220,344L220,348L212,348ZM224,344L228,344L228,348L224,348ZM236,344L244,344L244,348L236,348ZM248,344L252,344L252,348L248,348ZM256,344L268,344L268,348L256,348ZM272,344L276,344L276,348L272,348ZM280,344L284,344L284,348L280,348ZM300,344L304,344L304,348L300,348ZM312,344L316,344L316,348L312,348ZM320,344L324,344L324,348L320,348ZM328,344L340,344L340,348L328,348ZM344,344L348,344L348,348L344,348ZM352,344L356,344L356,348L352,348ZM360,344L364,344L364,348L360,348ZM48,348L52,348L52,352L48,352ZM72,348L76,348L76,352L72,352ZM92,348L116,348L116,352L92,352ZM124,348L140,348L140,352L124,352ZM144,348L148,348L148,352L144,352ZM160,348L164,348L164,352L160,352ZM168,348L188,348L188,352L168,352ZM192,348L212,348L212,352L192,352ZM216,348L220,348L220,352L216,352ZM236,348L244,348L244,352L236,352ZM256,348L260,348L260,352L256,352ZM272,348L280,348L280,352L272,352ZM288,348L292,348L292,352L288,352ZM296,348L304,348L304,352L296,352ZM312,348L320,348L320,352L312,352ZM324,348L328,348L328,352L324,352ZM332,348L340,348L340,352L332,352ZM352,348L356,348L356,352L352,352ZM360,348L372,348L372,352L360,352ZM48,352L52,352L52,356L48,356ZM56,352L68,352L68,356L56,356ZM72,352L76,352L76,356L72,356ZM80,352L96,352L96,356L80,356ZM100,352L104,352L104,356L100,356ZM108,352L120,352L120,356L108,356ZM136,352L140,352L140,356L136,356ZM144,352L168,352L168,356L144,356ZM172,352L180,352L180,356L172,356ZM184,352L196,352L196,356L184,356ZM204,352L208,352L208,356L204,356ZM216,352L224,352L224,356L216,356ZM228,352L260,352L260,356L228,356ZM264,352L268,352L268,356L264,356ZM272,352L284,352L284,356L272,356ZM292,352L296,352L296,356L292,356ZM304,352L308,352L308,356L304,356ZM320,352L324,352L324,356L320,356ZM336,352L356,352L356,356L336,356ZM48,356L52,356L52,360L48,360ZM56,356L68,356L68,360L56,360ZM72,356L76,356L76,360L72,360ZM80,356L92,356L92,360L80,360ZM96,356L100,356L100,360L96,360ZM108,356L124,356L124,360L108,360ZM140,356L144,356L144,360L140,360ZM152,356L156,356L156,360L152,360ZM160,356L164,356L164,360L160,360ZM172,356L180,356L180,360L172,360ZM196,356L212,356L212,360L196,360ZM216,356L220,356L220,360L216,360ZM232,356L244,356L244,360L232,360ZM248,356L252,356L252,360L248,360ZM256,356L264,356L264,360L256,360ZM268,356L272,356L272,360L268,360ZM276,356L292,356L292,360L276,360ZM296,356L300,356L300,360L296,360ZM312,356L320,356L320,360L312,360ZM324,356L336,356L336,360L324,360ZM348,356L356,356L356,360L348,360ZM360,356L368,356L368,360L360,360ZM48,360L52,360L52,364L48,364ZM56,360L68,360L68,364L56,364ZM72,360L76,360L76,364L72,364ZM80,360L84,360L84,364L80,364ZM88,360L100,360L100,364L88,364ZM108,360L112,360L112,364L108,364ZM120,360L128,360L128,364L120,364ZM140,360L144,360L144,364L140,364ZM156,360L160,360L160,364L156,364ZM168,360L172,360L172,364L168,364ZM180,360L184,360L184,364L180,364ZM188,360L192,360L192,364L188,364ZM204,360L208,360L208,364L204,364ZM212,360L216,360L216,364L212,364ZM224,360L236,360L236,364L224,364ZM244,360L248,360L248,364L244,364ZM256,360L260,360L260,364L256,364ZM264,360L268,360L268,364L264,364ZM288,360L292,360L292,364L288,364ZM300,360L304,360L304,364L300,364ZM308,360L312,360L312,364L308,364ZM336,360L344,360L344,364L336,364ZM348,360L352,360L352,364L348,364ZM356,360L360,360L360,364L356,364ZM48,364L52,364L52,368L48,368ZM72,364L76,364L76,368L72,368ZM92,364L112,364L112,368L92,368ZM120,364L136,364L136,368L120,368ZM144,364L172,364L172,368L144,368ZM180,364L188,364L188,368L180,368ZM192,364L200,364L200,368L192,368ZM220,364L224,364L224,368L220,368ZM236,364L240,364L240,368L236,368ZM248,364L252,364L252,368L248,368ZM276,364L280,364L280,368L276,368ZM288,364L292,364L292,368L288,368ZM316,364L320,364L320,368L316,368ZM324,364L332,364L332,368L324,368ZM336,364L340,364L340,368L336,368ZM352,364L356,364L356,368L352,368ZM360,364L372,364L372,368L360,368ZM48,368L76,368L76,372L48,372ZM112,368L116,368L116,372L112,372ZM124,368L128,368L128,372L124,372ZM132,368L140,368L140,372L132,372ZM160,368L164,368L164,372L160,372ZM168,368L172,368L172,372L168,372ZM176,368L180,368L180,372L176,372ZM184,368L188,368L188,372L184,372ZM192,368L204,368L204,372L192,372ZM208,368L228,368L228,372L208,372ZM240,368L248,368L248,372L240,372ZM256,368L260,368L260,372L256,372ZM272,368L276,368L276,372L272,372ZM292,368L296,368L296,372L292,372ZM300,368L316,368L316,372L300,372ZM320,368L324,368L324,372L320,372ZM336,368L352,368L352,372L336,372ZM360,368L368,368L368,372L360,372Z"/></svg>
