<?xml version="1.0"?>
<svg xmlns="http://www.w3.org/2000/svg" xmlns:xlink="http://www.w3.org/1999/xlink" version="1.1" width="420px" height="420px" viewBox="0 0 420 420"><rect x="0" y="0" width="420" height="420" fill="#ffffff" fill-opacity="1"/><path fill="#000000" fill-opacity="1" d="M48,48L76,48L76,52L48,52ZM80,48L88,48L88,52L80,52ZM92,48L96,48L96,52L92,52ZM104,48L108,48L108,52L104,52ZM136,48L144,48L144,52L136,52ZM148,48L156,48L156,52L148,52ZM164,48L168,48L168,52L164,52ZM172,48L176,48L176,52L172,52ZM184,48L192,48L192,52L184,52ZM204,48L208,48L208,52L204,52ZM212,48L220,48L220,52L212,52ZM228,48L240,48L240,52L228,52ZM244,48L248,48L248,52L244,52ZM252,48L256,48L256,52L252,52ZM268,48L272,48L272,52L268,52ZM276,48L292,48L292,52L276,52ZM296,48L300,48L300,52L296,52ZM320,48L328,48L328,52L320,52ZM344,48L372,48L372,52L344,52ZM48,52L52,52L52,56L48,56ZM72,52L76,52L76,56L72,56ZM80,52L84,52L84,56L80,56ZM88,52L92,52L92,56L88,56ZM96,52L104,52L104,56L96,56ZM108,52L112,52L112,56L108,56ZM116,52L124,52L124,56L116,56ZM128,52L132,52L132,56L128,56ZM152,52L160,52L160,56L152,56ZM164,52L168,52L168,56L164,56ZM176,52L180,52L180,56L176,56ZM188,52L208,52L208,56L188,56ZM216,52L224,52L224,56L216,56ZM228,52L232,52L232,56L228,56ZM236,52L240,52L240,56L236,56ZM264,52L268,52L268,56L264,56ZM276,52L280,52L280,56L276,56ZM288,52L292,52L292,56L288,56ZM300,52L308,52L308,56L300,56ZM328,52L340,52L340,56L328,56ZM344,52L348,52L348,56L344,56ZM368,52L372,52L372,56L368,56ZM48,56L52,56L52,60L48,60ZM56,56L68,56L68,60L56,60ZM72,56L76,56L76,60L72,60ZM80,56L84,56L84,60L80,60ZM88,56L92,56L92,60L88,60ZM104,56L112,56L112,60L104,60ZM116,56L120,56L120,60L116,60ZM124,56L128,56L128,60L124,60ZM136,56L140,56L140,60L136,60ZM144,56L152,56L152,60L144,60ZM156,56L160,56L160,60L156,60ZM164,56L168,56L168,60L164,60ZM176,56L180,56L180,60L176,60ZM184,56L188,56L188,60L184,60ZM200,56L204,56L204,60L200,60ZM208,56L220,56L220,60L208,60ZM232,56L236,56L236,60L232,60ZM244,56L252,56L252,60L244,60ZM272,56L280,56L280,60L272,60ZM284,56L292,56L292,60L284,60ZM300,56L304,56L304,60L300,60ZM328,56L332,56L332,60L328,60ZM336,56L340,56L340,60L336,60ZM344,56L348,56L348,60L344,60ZM352,56L364,56L364,60L352,60ZM368,56L372,56L372,60L368,60ZM48,60L52,60L52,64L48,64ZM56,60L68,60L68,64L56,64ZM72,60L76,60L76,64L72,64ZM92,60L128,60L128,64L92,64ZM152,60L156,60L156,64L152,64ZM160,60L164,60L164,64L160,64ZM168,60L176,60L176,64L168,64ZM204,60L208,60L208,64L204,64ZM212,60L220,60L220,64L212,64ZM248,60L256,60L256,64L248,64ZM260,60L272,60L272,64L260,64ZM296,60L316,60L316,64L296,64ZM320,60L332,60L332,64L320,64ZM336,60L340,60L340,64L336,64ZM344,60L348,60L348,64L344,64ZM352,60L364,60L364,64L352,64ZM368,60L372,60L372,64L368,64ZM48,64L52,64L52,68L48,68ZM56,64L68,64L68,68L56,68ZM72,64L76,64L76,68L72,68ZM96,64L100,64L100,68L96,68ZM124,64L128,64L128,68L124,68ZM132,64L136,64L136,68L132,68ZM140,64L172,64L172,68L140,68ZM176,64L184,64L184,68L176,68ZM188,64L196,64L196,68L188,68ZM208,64L228,64L228,68L208,68ZM240,64L264,64L264,68L240,68ZM268,64L296,64L296,68L268,68ZM300,64L304,64L304,68L300,68ZM316,64L320,64L320,68L316,68ZM324,64L328,64L328,68L324,68ZM344,64L348,64L348,68L344,68ZM352,64L364,64L364,68L352,68ZM368,64L372,64L372,68L368,68ZM48,68L52,68L52,72L48,72ZM72,68L76,68L76,72L72,72ZM80,68L88,68L88,72L80,72ZM96,68L100,68L100,72L96,72ZM104,68L116,68L116,72L104,72ZM132,68L136,68L136,72L132,72ZM144,68L148,68L148,72L144,72ZM160,68L168,68L168,72L160,72ZM172,68L180,68L180,72L172,72ZM188,68L192,68L192,72L188,72ZM200,68L208,68L208,72L200,72ZM212,68L220,68L220,72L212,72ZM224,68L244,68L244,72L224,72ZM256,68L260,68L260,72L256,72ZM264,68L272,68L272,72L264,72ZM280,68L284,68L284,72L280,72ZM288,68L304,68L304,72L288,72ZM308,68L312,68L312,72L308,72ZM324,68L328,68L328,72L324,72ZM332,68L336,68L336,72L332,72ZM344,68L348,68L348,72L344,72ZM368,68L372,68L372,72L368,72ZM48,72L76,72L76,76L48,76ZM80,72L84,72L84,76L80,76ZM88,72L92,72L92,76L88,76ZM96,72L100,72L100,76L96,76ZM104,72L108,72L108,76L104,76ZM112,72L116,72L116,76L112,76ZM120,72L124,72L124,76L120,76ZM128,72L132,72L132,76L128,76ZM136,72L140,72L140,76L136,76ZM144,72L148,72L148,76L144,76ZM152,72L156,72L156,76L152,76ZM160,72L164,72L164,76L160,76ZM168,72L172,72L172,76L168,76ZM176,72L180,72L180,76L176,76ZM184,72L188,72L188,76L184,76ZM192,72L196,72L196,76L192,76ZM200,72L204,72L204,76L200,76ZM208,72L212,72L212,76L208,76ZM216,72L220,72L220,76L216,76ZM224,72L228,72L228,76L224,76ZM232,72L236,72L236,76L232,76ZM240,72L244,72L244,76L240,76ZM248,72L252,72L252,76L248,76ZM256,72L260,72L260,76L256,76ZM264,72L268,72L268,76L264,76ZM272,72L276,72L276,76L272,76ZM280,72L284,72L284,76L280,76ZM288,72L292,72L292,76L288,76ZM296,72L300,72L300,76L296,76ZM304,72L308,72L308,76L304,76ZM312,72L316,72L316,76L312,76ZM320,72L324,72L324,76L320,76ZM328,72L332,72L332,76L328,76ZM336,72L340,72L340,76L336,76ZM344,72L372,72L372,76L344,76ZM80,76L92,76L92,80L80,80ZM96,76L108,76L108,80L96,80ZM120,76L124,76L124,80L120,80ZM128,76L132,76L132,80L128,80ZM136,76L148,76L148,80L136,80ZM160,76L176,76L176,80L160,80ZM180,76L184,76L184,80L180,80ZM188,76L192,76L192,80L188,80ZM196,76L200,76L200,80L196,80ZM204,76L208,76L208,80L204,80ZM216,76L232,76L232,80L216,80ZM240,76L244,76L244,80L240,80ZM256,76L260,76L260,80L256,80ZM276,76L280,76L280,80L276,80ZM284,76L288,76L288,80L284,80ZM296,76L304,76L304,80L296,80ZM312,76L328,76L328,80L312,80ZM336,76L340,76L340,80L336,80ZM56,80L68,80L68,84L56,84ZM72,80L76,80L76,84L72,84ZM80,80L84,80L84,84L80,84ZM96,80L100,80L100,84L96,84ZM104,80L108,80L108,84L104,84ZM112,80L116,80L116,84L112,84ZM124,80L136,80L136,84L124,84ZM144,80L168,80L168,84L144,84ZM172,80L176,80L176,84L172,84ZM188,80L192,80L192,84L188,84ZM196,80L204,80L204,84L196,84ZM208,80L212,80L212,84L208,84ZM232,80L236,80L236,84L232,84ZM240,80L268,80L268,84L240,84ZM272,80L276,80L276,84L272,84ZM284,80L296,80L296,84L284,84ZM300,80L308,80L308,84L300,84ZM316,80L320,80L320,84L316,84ZM324,80L332,80L332,84L324,84ZM336,80L352,80L352,84L336,84ZM360,80L372,80L372,84L360,84ZM48,84L52,84L52,88L48,88ZM56,84L68,84L68,88L56,88ZM76,84L80,84L80,88L76,88ZM84,84L88,84L88,88L84,88ZM92,84L96,84L96,88L92,88ZM100,84L104,84L104,88L100,88ZM116,84L132,84L132,88L116,88ZM144,84L148,84L148,88L144,88ZM152,84L156,84L156,88L152,88ZM160,84L168,84L168,88L160,88ZM176,84L192,84L192,88L176,88ZM208,84L212,84L212,88L208,88ZM216,84L220,84L220,88L216,88ZM232,84L236,84L236,88L232,88ZM244,84L248,84L248,88L244,88ZM268,84L272,84L272,88L268,88ZM276,84L292,84L292,88L276,88ZM296,84L300,84L300,88L296,88ZM308,84L320,84L320,88L308,88ZM356,84L364,84L364,88L356,88ZM368,84L372,84L372,88L368,88ZM60,88L64,88L64,92L60,92ZM72,88L84,88L84,92L72,92ZM88,88L96,88L96,92L88,92ZM104,88L112,88L112,92L104,92ZM132,88L136,88L136,92L132,92ZM140,88L148,88L148,92L140,92ZM152,88L156,88L156,92L152,92ZM160,88L164,88L164,92L160,92ZM168,88L172,88L172,92L168,92ZM176,88L180,88L180,92L176,92ZM204,88L212,88L212,92L204,92ZM216,88L220,88L220,92L216,92ZM232,88L244,88L244,92L232,92ZM248,88L260,88L260,92L248,92ZM264,88L268,88L268,92L264,92ZM288,88L292,88L292,92L288,92ZM300,88L304,88L304,92L300,92ZM312,88L316,88L316,92L312,92ZM320,88L324,88L324,92L320,92ZM332,88L340,88L340,92L332,92ZM348,88L364,88L364,92L348,92ZM48,92L56,92L56,96L48,96ZM60,92L64,92L64,96L60,96ZM68,92L72,92L72,96L68,96ZM80,92L96,92L96,96L80,96ZM108,92L112,92L112,96L108,96ZM116,92L140,92L140,96L116,96ZM172,92L176,92L176,96L172,96ZM180,92L184,92L184,96L180,96ZM188,92L196,92L196,96L188,96ZM208,92L212,92L212,96L208,96ZM220,92L228,92L228,96L220,96ZM236,92L240,92L240,96L236,96ZM248,92L260,92L260,96L248,96ZM264,92L280,92L280,96L264,96ZM300,92L308,92L308,96L300,96ZM320,92L332,92L332,96L320,96ZM336,92L344,92L344,96L336,96ZM356,92L372,92L372,96L356,96ZM48,96L56,96L56,100L48,100ZM60,96L76,96L76,100L60,100ZM80,96L84,96L84,100L80,100ZM88,96L92,96L92,100L88,100ZM104,96L112,96L112,100L104,100ZM120,96L128,96L128,100L120,100ZM132,96L148,96L148,100L132,100ZM152,96L156,96L156,100L152,100ZM164,96L168,96L168,100L164,100ZM176,96L188,96L188,100L176,100ZM192,96L200,96L200,100L192,100ZM204,96L228,96L228,100L204,100ZM240,96L248,96L248,100L240,100ZM256,96L260,96L260,100L256,100ZM272,96L276,96L276,100L272,100ZM292,96L296,96L296,100L292,100ZM300,96L304,96L304,100L300,100ZM308,96L312,96L312,100L308,100ZM320,96L324,96L324,100L320,100ZM352,96L364,96L364,100L352,100ZM48,100L52,100L52,104L48,104ZM56,100L64,100L64,104L56,104ZM80,100L88,100L88,104L80,104ZM92,100L96,100L96,104L92,104ZM100,100L112,100L112,104L100,104ZM116,100L128,100L128,104L116,104ZM132,100L136,100L136,104L132,104ZM140,100L152,100L152,104L140,104ZM156,100L160,100L160,104L156,104ZM176,100L180,100L180,104L176,104ZM184,100L192,100L192,104L184,104ZM200,100L212,100L212,104L200,104ZM216,100L220,100L220,104L216,104ZM240,100L248,100L248,104L240,104ZM268,100L272,100L272,104L268,104ZM276,100L292,100L292,104L276,104ZM296,100L316,100L316,104L296,104ZM320,100L352,100L352,104L320,104ZM360,100L364,100L364,104L360,104ZM48,104L56,104L56,108L48,108ZM60,104L64,104L64,108L60,108ZM68,104L76,104L76,108L68,108ZM92,104L108,104L108,108L92,108ZM116,104L120,104L120,108L116,108ZM124,104L152,104L152,108L124,108ZM164,104L172,104L172,108L164,108ZM176,104L180,104L180,108L176,108ZM192,104L200,104L200,108L192,108ZM204,104L208,104L208,108L204,108ZM212,104L216,104L216,108L212,108ZM236,104L264,104L264,108L236,108ZM272,104L280,104L280,108L272,108ZM300,104L312,104L312,108L300,108ZM324,104L328,104L328,108L324,108ZM332,104L336,104L336,108L332,108ZM348,104L352,104L352,108L348,108ZM356,104L360,104L360,108L356,108ZM364,104L368,104L368,108L364,108ZM60,108L64,108L64,112L60,112ZM80,108L84,108L84,112L80,112ZM88,108L96,108L96,112L88,112ZM104,108L112,108L112,112L104,112ZM116,108L128,108L128,112L116,112ZM140,108L144,108L144,112L140,112ZM168,108L180,108L180,112L168,112ZM188,108L192,108L192,112L188,112ZM196,108L200,108L200,112L196,112ZM204,108L236,108L236,112L204,112ZM276,108L284,108L284,112L276,112ZM288,108L292,108L292,112L288,112ZM300,108L304,108L304,112L300,112ZM312,108L316,108L316,112L312,112ZM320,108L328,108L328,112L320,112ZM332,108L336,108L336,112L332,112ZM348,108L364,108L364,112L348,112ZM368,108L372,108L372,112L368,112ZM48,112L52,112L52,116L48,116ZM60,112L64,112L64,116L60,116ZM68,112L88,112L88,116L68,116ZM100,112L116,112L116,116L100,116ZM124,112L128,112L128,116L124,116ZM140,112L148,112L148,116L140,116ZM152,112L172,112L172,116L152,116ZM176,112L192,112L192,116L176,116ZM212,112L244,112L244,116L212,116ZM248,112L252,112L252,116L248,116ZM256,112L268,112L268,116L256,116ZM272,112L276,112L276,116L272,116ZM284,112L288,112L288,116L284,116ZM292,112L296,112L296,116L292,116ZM300,112L308,112L308,116L300,116ZM320,112L324,112L324,116L320,116ZM336,112L340,112L340,116L336,116ZM348,112L356,112L356,116L348,116ZM368,112L372,112L372,116L368,116ZM48,116L56,116L56,120L48,120ZM60,116L72,116L72,120L60,120ZM80,116L84,116L84,120L80,120ZM88,116L92,116L92,120L88,120ZM96,116L100,116L100,120L96,120ZM104,116L108,116L108,120L104,120ZM116,116L120,116L120,120L116,120ZM124,116L132,116L132,120L124,120ZM136,116L140,116L140,120L136,120ZM156,116L168,116L168,120L156,120ZM200,116L204,116L204,120L200,120ZM212,116L216,116L216,120L212,120ZM228,116L232,116L232,120L228,120ZM236,116L252,116L252,120L236,120ZM256,116L264,116L264,120L256,120ZM268,116L272,116L272,120L268,120ZM276,116L292,116L292,120L276,120ZM296,116L300,116L300,120L296,120ZM316,116L320,116L320,120L316,120ZM324,116L332,116L332,120L324,120ZM340,116L348,116L348,120L340,120ZM352,116L356,116L356,120L352,120ZM360,116L364,116L364,120L360,120ZM48,120L52,120L52,124L48,124ZM60,120L68,120L68,124L60,124ZM72,120L76,120L76,124L72,124ZM80,120L112,120L112,124L80,124ZM120,120L128,120L128,124L120,124ZM132,120L148,120L148,124L132,124ZM152,120L160,120L160,124L152,124ZM164,120L172,120L172,124L164,124ZM180,120L184,120L184,124L180,124ZM188,120L200,120L200,124L188,124ZM204,120L208,120L208,124L204,124ZM212,120L224,120L224,124L212,124ZM236,120L240,120L240,124L236,124ZM248,120L252,120L252,124L248,124ZM264,120L268,120L268,124L264,124ZM272,120L284,120L284,124L272,124ZM296,120L304,120L304,124L296,124ZM308,120L316,120L316,124L308,124ZM324,120L340,120L340,124L324,124ZM348,120L352,120L352,124L348,124ZM356,120L360,120L360,124L356,124ZM364,120L372,120L372,124L364,124ZM48,124L52,124L52,128L48,128ZM60,124L72,124L72,128L60,128ZM84,124L100,124L100,128L84,128ZM104,124L108,124L108,128L104,128ZM112,124L116,124L116,128L112,128ZM120,124L132,124L132,128L120,128ZM136,124L144,124L144,128L136,128ZM152,124L156,124L156,128L152,128ZM164,124L176,124L176,128L164,128ZM180,124L184,124L184,128L180,128ZM188,124L196,124L196,128L188,128ZM204,124L208,124L208,128L204,128ZM220,124L240,124L240,128L220,128ZM244,124L260,124L260,128L244,128ZM276,124L284,124L284,128L276,128ZM288,124L292,124L292,128L288,128ZM304,124L308,124L308,128L304,128ZM312,124L316,124L316,128L312,128ZM324,124L332,124L332,128L324,128ZM336,124L344,124L344,128L336,128ZM352,124L356,124L356,128L352,128ZM360,124L364,124L364,128L360,128ZM368,124L372,124L372,128L368,128ZM48,128L52,128L52,132L48,132ZM56,128L76,128L76,132L56,132ZM80,128L88,128L88,132L80,132ZM92,128L100,128L100,132L92,132ZM112,128L128,128L128,132L112,132ZM136,128L140,128L140,132L136,132ZM148,128L160,128L160,132L148,132ZM168,128L180,128L180,132L168,132ZM184,128L188,128L188,132L184,132ZM200,128L220,128L220,132L200,132ZM224,128L232,128L232,132L224,132ZM236,128L240,128L240,132L236,132ZM244,128L248,128L248,132L244,132ZM256,128L268,128L268,132L256,132ZM284,128L288,128L288,132L284,132ZM292,128L296,128L296,132L292,132ZM300,128L316,128L316,132L300,132ZM320,128L324,128L324,132L320,132ZM336,128L340,128L340,132L336,132ZM348,128L356,128L356,132L348,132ZM360,128L372,128L372,132L360,132ZM64,132L72,132L72,136L64,136ZM80,132L84,132L84,136L80,136ZM88,132L92,132L92,136L88,136ZM100,132L108,132L108,136L100,136ZM120,132L124,132L124,136L120,136ZM128,132L144,132L144,136L128,136ZM156,132L160,132L160,136L156,136ZM164,132L168,132L168,136L164,136ZM188,132L192,132L192,136L188,136ZM208,132L216,132L216,136L208,136ZM220,132L228,132L228,136L220,136ZM236,132L240,132L240,136L236,136ZM256,132L260,132L260,136L256,136ZM272,132L292,132L292,136L272,136ZM296,132L300,132L300,136L296,136ZM316,132L320,132L320,136L316,136ZM324,132L336,132L336,136L324,136ZM340,132L348,132L348,136L340,136ZM352,132L356,132L356,136L352,136ZM360,132L364,132L364,136L360,136ZM368,132L372,132L372,136L368,136ZM52,136L60,136L60,140L52,140ZM68,136L76,136L76,140L68,140ZM100,136L104,136L104,140L100,140ZM128,136L136,136L136,140L128,140ZM140,136L144,136L144,140L140,140ZM152,136L164,136L164,140L152,140ZM172,136L176,136L176,140L172,140ZM180,136L188,136L188,140L180,140ZM200,136L208,136L208,140L200,140ZM212,136L232,136L232,140L212,140ZM236,136L240,136L240,140L236,140ZM244,136L248,136L248,140L244,140ZM252,136L260,136L260,140L252,140ZM272,136L280,136L280,140L272,140ZM296,136L308,136L308,140L296,140ZM312,136L316,136L316,140L312,140ZM320,136L328,136L328,140L320,140ZM332,136L340,136L340,140L332,140ZM348,136L352,136L352,140L348,140ZM356,136L360,136L360,140L356,140ZM364,136L368,136L368,140L364,140ZM48,140L52,140L52,144L48,144ZM60,140L64,140L64,144L60,144ZM84,140L88,140L88,144L84,144ZM92,140L100,140L100,144L92,144ZM104,140L108,140L108,144L104,144ZM116,140L120,140L120,144L116,144ZM136,140L140,140L140,144L136,144ZM152,140L156,140L156,144L152,144ZM160,140L164,140L164,144L160,144ZM172,140L180,140L180,144L172,144ZM196,140L200,140L200,144L196,144ZM208,140L212,140L212,144L208,144ZM244,140L248,140L248,144L244,144ZM272,140L284,140L284,144L272,144ZM288,140L292,140L292,144L288,144ZM296,140L308,140L308,144L296,144ZM316,140L328,140L328,144L316,144ZM336,140L340,140L340,144L336,144ZM360,140L372,140L372,144L360,144ZM48,144L52,144L52,148L48,148ZM56,144L60,144L60,148L56,148ZM64,144L88,144L88,148L64,148ZM92,144L96,144L96,148L92,148ZM104,144L112,144L112,148L104,148ZM116,144L124,144L124,148L116,148ZM132,144L172,144L172,148L132,148ZM196,144L200,144L200,148L196,148ZM204,144L208,144L208,148L204,148ZM212,144L228,144L228,148L212,148ZM236,144L268,144L268,148L236,148ZM296,144L316,144L316,148L296,148ZM320,144L356,144L356,148L320,148ZM52,148L68,148L68,152L52,152ZM80,148L84,148L84,152L80,152ZM88,148L96,148L96,152L88,152ZM104,148L108,148L108,152L104,152ZM112,148L132,148L132,152L112,152ZM136,148L140,148L140,152L136,152ZM144,148L148,148L148,152L144,152ZM160,148L168,148L168,152L160,152ZM176,148L200,148L200,152L176,152ZM212,148L220,148L220,152L212,152ZM240,148L244,148L244,152L240,152ZM256,148L260,148L260,152L256,152ZM268,148L296,148L296,152L268,152ZM320,148L328,148L328,152L320,152ZM332,148L340,148L340,152L332,152ZM352,148L356,148L356,152L352,152ZM360,148L368,148L368,152L360,152ZM56,152L68,152L68,156L56,156ZM72,152L76,152L76,156L72,156ZM80,152L84,152L84,156L80,156ZM88,152L100,152L100,156L88,156ZM104,152L108,152L108,156L104,156ZM112,152L116,152L116,156L112,156ZM120,152L124,152L124,156L120,156ZM128,152L132,152L132,156L128,156ZM136,152L148,152L148,156L136,156ZM152,152L156,152L156,156L152,156ZM160,152L164,152L164,156L160,156ZM168,152L192,152L192,156L168,156ZM196,152L228,152L228,156L196,156ZM240,152L244,152L244,156L240,156ZM248,152L252,152L252,156L248,156ZM256,152L260,152L260,156L256,156ZM264,152L268,152L268,156L264,156ZM276,152L284,152L284,156L276,156ZM288,152L292,152L292,156L288,156ZM300,152L312,152L312,156L300,156ZM320,152L324,152L324,156L320,156ZM332,152L340,152L340,156L332,156ZM344,152L348,152L348,156L344,156ZM352,152L360,152L360,156L352,156ZM52,156L60,156L60,160L52,160ZM64,156L68,156L68,160L64,160ZM80,156L84,156L84,160L80,160ZM88,156L100,156L100,160L88,160ZM104,156L112,156L112,160L104,160ZM116,156L124,156L124,160L116,160ZM132,156L148,156L148,160L132,160ZM160,156L164,156L164,160L160,160ZM168,156L172,156L172,160L168,160ZM176,156L180,156L180,160L176,160ZM192,156L200,156L200,160L192,160ZM212,156L216,156L216,160L212,160ZM228,156L232,156L232,160L228,160ZM240,156L244,156L244,160L240,160ZM256,156L260,156L260,160L256,160ZM272,156L276,156L276,160L272,160ZM284,156L288,156L288,160L284,160ZM296,156L308,156L308,160L296,160ZM312,156L316,156L316,160L312,160ZM324,156L332,156L332,160L324,160ZM336,156L340,156L340,160L336,160ZM352,156L372,156L372,160L352,160ZM52,160L56,160L56,164L52,164ZM60,160L84,160L84,164L60,164ZM88,160L104,160L104,164L88,164ZM108,160L116,160L116,164L108,164ZM128,160L140,160L140,164L128,164ZM144,160L168,160L168,164L144,164ZM172,160L176,160L176,164L172,164ZM180,160L200,160L200,164L180,164ZM212,160L216,160L216,164L212,164ZM220,160L224,160L224,164L220,164ZM240,160L264,160L264,164L240,164ZM272,160L276,160L276,164L272,164ZM280,160L296,160L296,164L280,164ZM300,160L308,160L308,164L300,164ZM312,160L316,160L316,164L312,164ZM320,160L332,160L332,164L320,164ZM336,160L356,160L356,164L336,164ZM360,160L364,160L364,164L360,164ZM48,164L52,164L52,168L48,168ZM68,164L72,164L72,168L68,168ZM88,164L100,164L100,168L88,168ZM104,164L124,164L124,168L104,168ZM128,164L132,164L132,168L128,168ZM148,164L168,164L168,168L148,168ZM172,164L176,164L176,168L172,168ZM192,164L196,164L196,168L192,168ZM200,164L208,164L208,168L200,168ZM216,164L220,164L220,168L216,168ZM224,164L236,164L236,168L224,168ZM240,164L252,164L252,168L240,168ZM256,164L264,164L264,168L256,168ZM268,164L272,164L272,168L268,168ZM284,164L292,164L292,168L284,168ZM296,164L300,164L300,168L296,168ZM316,164L320,164L320,168L316,168ZM324,164L328,164L328,168L324,168ZM332,164L344,164L344,168L332,168ZM352,164L356,164L356,168L352,168ZM360,164L368,164L368,168L360,168ZM48,168L52,168L52,172L48,172ZM56,168L60,168L60,172L56,172ZM64,168L84,168L84,172L64,172ZM88,168L96,168L96,172L88,172ZM104,168L112,168L112,172L104,172ZM128,168L132,168L132,172L128,172ZM140,168L144,168L144,172L140,172ZM148,168L172,168L172,172L148,172ZM180,168L184,168L184,172L180,172ZM196,168L204,168L204,172L196,172ZM212,168L224,168L224,172L212,172ZM232,168L240,168L240,172L232,172ZM244,168L256,168L256,172L244,172ZM264,168L268,168L268,172L264,172ZM276,168L284,168L284,172L276,172ZM288,168L292,168L292,172L288,172ZM296,168L308,168L308,172L296,172ZM312,168L316,168L316,172L312,172ZM324,168L340,168L340,172L324,172ZM348,168L352,168L352,172L348,172ZM356,168L360,168L360,172L356,172ZM56,172L64,172L64,176L56,176ZM80,172L88,172L88,176L80,176ZM108,172L112,172L112,176L108,176ZM120,172L128,172L128,176L120,176ZM136,172L148,172L148,176L136,176ZM164,172L176,172L176,176L164,176ZM188,172L204,172L204,176L188,176ZM216,172L220,172L220,176L216,176ZM228,172L232,172L232,176L228,176ZM236,172L244,172L244,176L236,176ZM248,172L256,172L256,176L248,176ZM264,172L280,172L280,176L264,176ZM288,172L292,172L292,176L288,176ZM300,172L304,172L304,176L300,176ZM316,172L320,172L320,176L316,176ZM324,172L328,172L328,176L324,176ZM340,172L344,172L344,176L340,176ZM348,172L356,172L356,176L348,176ZM360,172L364,172L364,176L360,176ZM48,176L56,176L56,180L48,180ZM68,176L84,176L84,180L68,180ZM92,176L104,176L104,180L92,180ZM112,176L128,176L128,180L112,180ZM144,176L148,176L148,180L144,180ZM156,176L168,176L168,180L156,180ZM172,176L180,176L180,180L172,180ZM196,176L200,176L200,180L196,180ZM212,176L228,176L228,180L212,180ZM236,176L256,176L256,180L236,180ZM272,176L276,176L276,180L272,180ZM292,176L296,176L296,180L292,180ZM308,176L316,176L316,180L308,180ZM320,176L324,176L324,180L320,180ZM332,176L336,176L336,180L332,180ZM348,176L352,176L352,180L348,180ZM364,176L368,176L368,180L364,180ZM48,180L60,180L60,184L48,184ZM76,180L80,180L80,184L76,184ZM92,180L96,180L96,184L92,184ZM100,180L104,180L104,184L100,184ZM108,180L136,180L136,184L108,184ZM160,180L168,180L168,184L160,184ZM172,180L176,180L176,184L172,184ZM180,180L184,180L184,184L180,184ZM204,180L208,180L208,184L204,184ZM212,180L228,180L228,184L212,184ZM248,180L252,180L252,184L248,184ZM268,180L272,180L272,184L268,184ZM276,180L292,180L292,184L276,184ZM296,180L308,180L308,184L296,184ZM316,180L320,180L320,184L316,184ZM324,180L340,180L340,184L324,184ZM352,180L356,180L356,184L352,184ZM360,180L364,180L364,184L360,184ZM48,184L52,184L52,188L48,188ZM60,184L96,184L96,188L60,188ZM108,184L116,184L116,188L108,188ZM120,184L124,184L124,188L120,188ZM140,184L148,184L148,188L140,188ZM152,184L156,184L156,188L152,188ZM160,184L164,184L164,188L160,188ZM168,184L172,184L172,188L168,188ZM176,184L180,184L180,188L176,188ZM188,184L200,184L200,188L188,188ZM216,184L224,184L224,188L216,188ZM228,184L236,184L236,188L228,188ZM240,184L244,184L244,188L240,188ZM252,184L268,184L268,188L252,188ZM296,184L308,184L308,188L296,188ZM312,184L316,184L316,188L312,188ZM324,184L328,184L328,188L324,188ZM336,184L352,184L352,188L336,188ZM356,184L360,184L360,188L356,188ZM364,184L368,184L368,188L364,188ZM52,188L56,188L56,192L52,192ZM64,188L68,188L68,192L64,192ZM92,188L104,188L104,192L92,192ZM112,188L124,188L124,192L112,192ZM132,188L144,188L144,192L132,192ZM152,188L156,188L156,192L152,192ZM172,188L180,188L180,192L172,192ZM184,188L196,188L196,192L184,192ZM204,188L208,188L208,192L204,192ZM212,188L224,188L224,192L212,192ZM244,188L248,188L248,192L244,192ZM252,188L256,188L256,192L252,192ZM264,188L268,188L268,192L264,192ZM272,188L280,188L280,192L272,192ZM288,188L292,188L292,192L288,192ZM296,188L308,188L308,192L296,192ZM312,188L316,188L316,192L312,192ZM320,188L328,188L328,192L320,192ZM340,188L344,188L344,192L340,192ZM352,188L356,188L356,192L352,192ZM360,188L372,188L372,192L360,192ZM56,192L60,192L60,196L56,196ZM64,192L68,192L68,196L64,196ZM72,192L76,192L76,196L72,196ZM84,192L96,192L96,196L84,196ZM100,192L112,192L112,196L100,196ZM120,192L136,192L136,196L120,196ZM148,192L152,192L152,196L148,196ZM160,192L168,192L168,196L160,196ZM172,192L176,192L176,196L172,196ZM200,192L208,192L208,196L200,196ZM216,192L220,192L220,196L216,196ZM224,192L232,192L232,196L224,196ZM236,192L248,192L248,196L236,196ZM256,192L268,192L268,196L256,196ZM272,192L284,192L284,196L272,196ZM292,192L296,192L296,196L292,196ZM300,192L320,192L320,196L300,196ZM332,192L336,192L336,196L332,196ZM340,192L344,192L344,196L340,196ZM356,192L368,192L368,196L356,196ZM68,196L72,196L72,200L68,200ZM92,196L96,196L96,200L92,200ZM108,196L112,196L112,200L108,200ZM132,196L136,196L136,200L132,200ZM140,196L152,196L152,200L140,200ZM160,196L164,196L164,200L160,200ZM172,196L176,196L176,200L172,200ZM188,196L200,196L200,200L188,200ZM204,196L212,196L212,200L204,200ZM228,196L232,196L232,200L228,200ZM240,196L244,196L244,200L240,200ZM268,196L272,196L272,200L268,200ZM288,196L292,196L292,200L288,200ZM296,196L300,196L300,200L296,200ZM316,196L332,196L332,200L316,200ZM336,196L340,196L340,200L336,200ZM348,196L352,196L352,200L348,200ZM360,196L364,196L364,200L360,200ZM368,196L372,196L372,200L368,200ZM48,200L60,200L60,204L48,204ZM64,200L96,200L96,204L64,204ZM100,200L104,200L104,204L100,204ZM124,200L136,200L136,204L124,204ZM140,200L148,200L148,204L140,204ZM152,200L156,200L156,204L152,204ZM180,200L188,200L188,204L180,204ZM200,200L216,200L216,204L200,204ZM220,200L224,200L224,204L220,204ZM232,200L240,200L240,204L232,204ZM264,200L268,200L268,204L264,204ZM272,200L276,200L276,204L272,204ZM280,200L284,200L284,204L280,204ZM288,200L292,200L292,204L288,204ZM296,200L304,200L304,204L296,204ZM308,200L312,200L312,204L308,204ZM316,200L324,200L324,204L316,204ZM336,200L348,200L348,204L336,204ZM356,200L360,200L360,204L356,204ZM364,200L372,200L372,204L364,204ZM52,204L56,204L56,208L52,208ZM60,204L64,204L64,208L60,208ZM92,204L100,204L100,208L92,208ZM108,204L116,204L116,208L108,208ZM120,204L144,204L144,208L120,208ZM148,204L152,204L152,208L148,208ZM160,204L164,204L164,208L160,208ZM168,204L172,204L172,208L168,208ZM180,204L200,204L200,208L180,208ZM212,204L220,204L220,208L212,208ZM232,204L236,204L236,208L232,208ZM244,204L248,204L248,208L244,208ZM252,204L260,204L260,208L252,208ZM268,204L280,204L280,208L268,208ZM312,204L316,204L316,208L312,208ZM324,204L332,204L332,208L324,208ZM336,204L340,204L340,208L336,208ZM348,204L352,204L352,208L348,208ZM360,204L364,204L364,208L360,208ZM368,204L372,204L372,208L368,208ZM48,208L56,208L56,212L48,212ZM60,208L64,208L64,212L60,212ZM72,208L76,208L76,212L72,212ZM88,208L96,208L96,212L88,212ZM100,208L108,208L108,212L100,212ZM124,208L128,208L128,212L124,212ZM140,208L164,208L164,212L140,212ZM172,208L180,208L180,212L172,212ZM188,208L192,208L192,212L188,212ZM196,208L204,208L204,212L196,212ZM208,208L216,208L216,212L208,212ZM220,208L224,208L224,212L220,212ZM240,208L244,208L244,212L240,212ZM248,208L252,208L252,212L248,212ZM256,208L268,208L268,212L256,212ZM272,208L276,208L276,212L272,212ZM288,208L296,208L296,212L288,212ZM300,208L308,208L308,212L300,212ZM320,208L324,208L324,212L320,212ZM332,208L336,208L336,212L332,212ZM348,208L352,208L352,212L348,212ZM356,208L360,208L360,212L356,212ZM52,212L56,212L56,216L52,216ZM68,212L72,212L72,216L68,216ZM76,212L80,212L80,216L76,216ZM92,212L96,212L96,216L92,216ZM100,212L104,212L104,216L100,216ZM112,212L116,212L116,216L112,216ZM120,212L124,212L124,216L120,216ZM128,212L132,212L132,216L128,216ZM136,212L152,212L152,216L136,216ZM156,212L160,212L160,216L156,216ZM172,212L184,212L184,216L172,216ZM188,212L200,212L200,216L188,216ZM204,212L212,212L212,216L204,216ZM224,212L228,212L228,216L224,216ZM236,212L252,212L252,216L236,216ZM256,212L260,212L260,216L256,216ZM272,212L276,212L276,216L272,216ZM280,212L284,212L284,216L280,216ZM292,212L308,212L308,216L292,216ZM316,212L320,212L320,216L316,216ZM324,212L332,212L332,216L324,216ZM336,212L340,212L340,216L336,216ZM360,212L372,212L372,216L360,216ZM56,216L60,216L60,220L56,220ZM72,216L80,216L80,220L72,220ZM92,216L100,216L100,220L92,220ZM104,216L108,216L108,220L104,220ZM112,216L120,216L120,220L112,220ZM124,216L132,216L132,220L124,220ZM144,216L164,216L164,220L144,220ZM168,216L172,216L172,220L168,220ZM184,216L196,216L196,220L184,220ZM212,216L216,216L216,220L212,220ZM224,216L236,216L236,220L224,220ZM240,216L244,216L244,220L240,220ZM252,216L256,216L256,220L252,220ZM260,216L268,216L268,220L260,220ZM276,216L280,216L280,220L276,220ZM288,216L292,216L292,220L288,220ZM300,216L312,216L312,220L300,220ZM320,216L328,216L328,220L320,220ZM332,216L336,216L336,220L332,220ZM340,216L348,216L348,220L340,220ZM356,216L360,216L360,220L356,220ZM48,220L56,220L56,224L48,224ZM60,220L64,220L64,224L60,224ZM88,220L92,220L92,224L88,224ZM96,220L112,220L112,224L96,224ZM120,220L136,220L136,224L120,224ZM148,220L184,220L184,224L148,224ZM196,220L204,220L204,224L196,224ZM216,220L228,220L228,224L216,224ZM232,220L236,220L236,224L232,224ZM244,220L248,220L248,224L244,224ZM256,220L260,220L260,224L256,224ZM264,220L268,220L268,224L264,224ZM276,220L280,220L280,224L276,224ZM288,220L292,220L292,224L288,224ZM296,220L304,220L304,224L296,224ZM324,220L328,220L328,224L324,224ZM336,220L340,220L340,224L336,224ZM348,220L352,220L352,224L348,224ZM360,220L372,220L372,224L360,224ZM56,224L60,224L60,228L56,228ZM72,224L80,224L80,228L72,228ZM84,224L88,224L88,228L84,228ZM96,224L100,224L100,228L96,228ZM108,224L116,224L116,228L108,228ZM124,224L128,224L128,228L124,228ZM132,224L136,224L136,228L132,228ZM140,224L148,224L148,228L140,228ZM168,224L176,224L176,228L168,228ZM196,224L200,224L200,228L196,228ZM208,224L216,224L216,228L208,228ZM220,224L232,224L232,228L220,228ZM248,224L252,224L252,228L248,228ZM264,224L268,224L268,228L264,228ZM272,224L276,224L276,228L272,228ZM292,224L296,224L296,228L292,228ZM308,224L316,224L316,228L308,228ZM320,224L324,224L324,228L320,228ZM328,224L336,224L336,228L328,228ZM340,224L352,224L352,228L340,228ZM360,224L364,224L364,228L360,228ZM60,228L64,228L64,232L60,232ZM68,228L72,228L72,232L68,232ZM76,228L88,228L88,232L76,232ZM96,228L100,228L100,232L96,232ZM104,228L116,228L116,232L104,232ZM120,228L124,228L124,232L120,232ZM136,228L140,228L140,232L136,232ZM148,228L152,228L152,232L148,232ZM160,228L188,228L188,232L160,232ZM192,228L196,228L196,232L192,232ZM204,228L212,228L212,232L204,232ZM216,228L240,228L240,232L216,232ZM244,228L260,228L260,232L244,232ZM264,228L272,228L272,232L264,232ZM276,228L284,228L284,232L276,232ZM296,228L308,228L308,232L296,232ZM316,228L320,228L320,232L316,232ZM336,228L340,228L340,232L336,232ZM352,228L356,228L356,232L352,232ZM360,228L364,228L364,232L360,232ZM60,232L80,232L80,236L60,236ZM84,232L96,232L96,236L84,236ZM100,232L108,232L108,236L100,236ZM116,232L124,232L124,236L116,236ZM128,232L132,232L132,236L128,236ZM136,232L144,232L144,236L136,236ZM148,232L156,232L156,236L148,236ZM164,232L168,232L168,236L164,236ZM172,232L192,232L192,236L172,236ZM212,232L216,232L216,236L212,236ZM220,232L224,232L224,236L220,236ZM228,232L236,232L236,236L228,236ZM240,232L244,232L244,236L240,236ZM256,232L260,232L260,236L256,236ZM264,232L268,232L268,236L264,236ZM272,232L280,232L280,236L272,236ZM300,232L304,232L304,236L300,236ZM312,232L316,232L316,236L312,236ZM320,232L352,232L352,236L320,236ZM364,232L368,232L368,236L364,236ZM56,236L64,236L64,240L56,240ZM76,236L80,236L80,240L76,240ZM88,236L92,236L92,240L88,240ZM116,236L124,236L124,240L116,240ZM132,236L140,236L140,240L132,240ZM152,236L172,236L172,240L152,240ZM176,236L188,236L188,240L176,240ZM196,236L200,236L200,240L196,240ZM204,236L208,236L208,240L204,240ZM216,236L220,236L220,240L216,240ZM224,236L228,236L228,240L224,240ZM232,236L236,236L236,240L232,240ZM248,236L256,236L256,240L248,240ZM264,236L268,236L268,240L264,240ZM276,236L280,236L280,240L276,240ZM300,236L304,236L304,240L300,240ZM312,236L316,236L316,240L312,240ZM324,236L332,236L332,240L324,240ZM340,236L344,236L344,240L340,240ZM360,236L372,236L372,240L360,240ZM56,240L60,240L60,244L56,244ZM64,240L84,240L84,244L64,244ZM104,240L108,240L108,244L104,244ZM112,240L120,240L120,244L112,244ZM128,240L132,240L132,244L128,244ZM136,240L168,240L168,244L136,244ZM180,240L192,240L192,244L180,244ZM204,240L212,240L212,244L204,244ZM228,240L260,240L260,244L228,244ZM264,240L268,240L268,244L264,244ZM272,240L276,240L276,244L272,244ZM292,240L296,240L296,244L292,244ZM300,240L316,240L316,244L300,244ZM324,240L332,240L332,244L324,244ZM336,240L356,240L356,244L336,244ZM360,240L364,240L364,244L360,244ZM52,244L60,244L60,248L52,248ZM64,244L68,244L68,248L64,248ZM80,244L84,244L84,248L80,248ZM88,244L108,244L108,248L88,248ZM116,244L120,244L120,248L116,248ZM124,244L132,244L132,248L124,248ZM136,244L140,244L140,248L136,248ZM144,244L148,244L148,248L144,248ZM160,244L168,244L168,248L160,248ZM176,244L188,244L188,248L176,248ZM192,244L196,244L196,248L192,248ZM204,244L220,244L220,248L204,248ZM224,244L228,244L228,248L224,248ZM232,244L244,244L244,248L232,248ZM256,244L260,244L260,248L256,248ZM268,244L272,244L272,248L268,248ZM276,244L292,244L292,248L276,248ZM296,244L300,244L300,248L296,248ZM320,244L324,244L324,248L320,248ZM328,244L332,244L332,248L328,248ZM336,244L340,244L340,248L336,248ZM352,244L364,244L364,248L352,248ZM48,248L52,248L52,252L48,252ZM64,248L68,248L68,252L64,252ZM72,248L76,248L76,252L72,252ZM80,248L84,248L84,252L80,252ZM100,248L104,248L104,252L100,252ZM108,248L116,248L116,252L108,252ZM128,248L132,248L132,252L128,252ZM140,248L148,248L148,252L140,252ZM152,248L156,248L156,252L152,252ZM160,248L168,248L168,252L160,252ZM180,248L184,248L184,252L180,252ZM188,248L192,248L192,252L188,252ZM204,248L208,248L208,252L204,252ZM220,248L224,248L224,252L220,252ZM228,248L232,248L232,252L228,252ZM240,248L244,248L244,252L240,252ZM248,248L252,248L252,252L248,252ZM256,248L260,248L260,252L256,252ZM264,248L268,248L268,252L264,252ZM272,248L284,248L284,252L272,252ZM300,248L304,248L304,252L300,252ZM312,248L316,248L316,252L312,252ZM320,248L328,248L328,252L320,252ZM332,248L340,248L340,252L332,252ZM344,248L348,248L348,252L344,252ZM352,248L356,248L356,252L352,252ZM360,248L364,248L364,252L360,252ZM56,252L60,252L60,256L56,256ZM64,252L68,252L68,256L64,256ZM80,252L84,252L84,256L80,256ZM108,252L116,252L116,256L108,256ZM120,252L124,252L124,256L120,256ZM132,252L148,252L148,256L132,256ZM160,252L168,252L168,256L160,256ZM176,252L180,252L180,256L176,256ZM196,252L204,252L204,256L196,256ZM208,252L212,252L212,256L208,256ZM216,252L220,252L220,256L216,256ZM228,252L236,252L236,256L228,256ZM240,252L244,252L244,256L240,256ZM256,252L264,252L264,256L256,256ZM268,252L284,252L284,256L268,256ZM288,252L292,252L292,256L288,256ZM300,252L304,252L304,256L300,256ZM320,252L332,252L332,256L320,256ZM336,252L340,252L340,256L336,256ZM352,252L360,252L360,256L352,256ZM364,252L372,252L372,256L364,256ZM48,256L60,256L60,260L48,260ZM64,256L88,256L88,260L64,260ZM92,256L104,256L104,260L92,260ZM108,256L112,256L112,260L108,260ZM120,256L124,256L124,260L120,260ZM132,256L140,256L140,260L132,260ZM144,256L168,256L168,260L144,260ZM172,256L176,256L176,260L172,260ZM200,256L204,256L204,260L200,260ZM208,256L212,256L212,260L208,260ZM216,256L224,256L224,260L216,260ZM240,256L268,256L268,260L240,260ZM272,256L276,256L276,260L272,260ZM296,256L308,256L308,260L296,260ZM336,256L356,256L356,260L336,260ZM56,260L60,260L60,264L56,264ZM80,260L88,260L88,264L80,264ZM92,260L100,260L100,264L92,264ZM104,260L108,260L108,264L104,264ZM116,260L120,260L120,264L116,264ZM124,260L136,260L136,264L124,264ZM148,260L152,260L152,264L148,264ZM164,260L168,260L168,264L164,264ZM176,260L184,260L184,264L176,264ZM192,260L200,260L200,264L192,264ZM204,260L208,260L208,264L204,264ZM212,260L216,260L216,264L212,264ZM228,260L232,260L232,264L228,264ZM240,260L244,260L244,264L240,264ZM252,260L256,260L256,264L252,264ZM268,260L272,260L272,264L268,264ZM276,260L292,260L292,264L276,264ZM308,260L336,260L336,264L308,264ZM340,260L344,260L344,264L340,264ZM360,260L368,260L368,264L360,264ZM48,264L52,264L52,268L48,268ZM56,264L60,264L60,268L56,268ZM64,264L68,264L68,268L64,268ZM72,264L84,264L84,268L72,268ZM88,264L92,264L92,268L88,268ZM96,264L100,264L100,268L96,268ZM108,264L112,264L112,268L108,268ZM116,264L120,264L120,268L116,268ZM128,264L140,264L140,268L128,268ZM144,264L156,264L156,268L144,268ZM176,264L180,264L180,268L176,268ZM184,264L192,264L192,268L184,268ZM196,264L200,264L200,268L196,268ZM204,264L208,264L208,268L204,268ZM212,264L228,264L228,268L212,268ZM236,264L256,264L256,268L236,268ZM264,264L268,264L268,268L264,268ZM272,264L284,264L284,268L272,268ZM296,264L308,264L308,268L296,268ZM324,264L328,264L328,268L324,268ZM332,264L344,264L344,268L332,268ZM352,264L360,264L360,268L352,268ZM56,268L60,268L60,272L56,272ZM76,268L80,268L80,272L76,272ZM84,268L88,268L88,272L84,272ZM92,268L104,268L104,272L92,272ZM112,268L116,268L116,272L112,272ZM124,268L136,268L136,272L124,272ZM144,268L148,268L148,272L144,272ZM152,268L156,268L156,272L152,272ZM176,268L188,268L188,272L176,272ZM196,268L204,268L204,272L196,272ZM216,268L224,268L224,272L216,272ZM232,268L236,268L236,272L232,272ZM240,268L244,268L244,272L240,272ZM248,268L252,268L252,272L248,272ZM264,268L268,268L268,272L264,272ZM276,268L280,268L280,272L276,272ZM288,268L292,268L292,272L288,272ZM296,268L300,268L300,272L296,272ZM304,268L308,268L308,272L304,272ZM316,268L320,268L320,272L316,272ZM324,268L328,268L328,272L324,272ZM332,268L340,268L340,272L332,272ZM344,268L352,268L352,272L344,272ZM356,268L372,268L372,272L356,272ZM56,272L60,272L60,276L56,276ZM64,272L68,272L68,276L64,276ZM72,272L80,272L80,276L72,276ZM88,272L92,272L92,276L88,276ZM104,272L108,272L108,276L104,276ZM132,272L148,272L148,276L132,276ZM156,272L160,272L160,276L156,276ZM164,272L168,272L168,276L164,276ZM176,272L188,272L188,276L176,276ZM200,272L208,272L208,276L200,276ZM216,272L220,272L220,276L216,276ZM224,272L228,272L228,276L224,276ZM232,272L236,272L236,276L232,276ZM240,272L248,272L248,276L240,276ZM264,272L284,272L284,276L264,276ZM292,272L296,272L296,276L292,276ZM300,272L308,272L308,276L300,276ZM320,272L324,272L324,276L320,276ZM52,276L64,276L64,280L52,280ZM76,276L80,276L80,280L76,280ZM88,276L96,276L96,280L88,280ZM108,276L112,276L112,280L108,280ZM120,276L124,276L124,280L120,280ZM128,276L132,276L132,280L128,280ZM136,276L140,276L140,280L136,280ZM144,276L148,276L148,280L144,280ZM152,276L156,276L156,280L152,280ZM160,276L168,276L168,280L160,280ZM172,276L188,276L188,280L172,280ZM192,276L200,276L200,280L192,280ZM212,276L232,276L232,280L212,280ZM236,276L252,276L252,280L236,280ZM260,276L264,276L264,280L260,280ZM268,276L272,276L272,280L268,280ZM276,276L292,276L292,280L276,280ZM296,276L308,276L308,280L296,280ZM316,276L320,276L320,280L316,280ZM324,276L344,276L344,280L324,280ZM348,276L356,276L356,280L348,280ZM360,276L372,276L372,280L360,280ZM56,280L60,280L60,284L56,284ZM64,280L84,280L84,284L64,284ZM88,280L96,280L96,284L88,284ZM100,280L104,280L104,284L100,284ZM108,280L112,280L112,284L108,284ZM124,280L128,280L128,284L124,284ZM132,280L136,280L136,284L132,284ZM140,280L144,280L144,284L140,284ZM164,280L168,280L168,284L164,284ZM172,280L176,280L176,284L172,284ZM184,280L200,280L200,284L184,284ZM212,280L216,280L216,284L212,284ZM224,280L240,280L240,284L224,284ZM244,280L252,280L252,284L244,284ZM272,280L276,280L276,284L272,284ZM280,280L284,280L284,284L280,284ZM288,280L292,280L292,284L288,284ZM296,280L308,280L308,284L296,284ZM312,280L316,280L316,284L312,284ZM320,280L332,280L332,284L320,284ZM340,280L344,280L344,284L340,284ZM352,280L360,280L360,284L352,284ZM364,280L368,280L368,284L364,284ZM48,284L52,284L52,288L48,288ZM56,284L72,284L72,288L56,288ZM80,284L84,284L84,288L80,288ZM88,284L104,284L104,288L88,288ZM108,284L120,284L120,288L108,288ZM128,284L136,284L136,288L128,288ZM140,284L156,284L156,288L140,288ZM160,284L164,284L164,288L160,288ZM176,284L180,284L180,288L176,288ZM192,284L196,284L196,288L192,288ZM200,284L208,284L208,288L200,288ZM220,284L228,284L228,288L220,288ZM236,284L240,284L240,288L236,288ZM248,284L252,284L252,288L248,288ZM256,284L260,284L260,288L256,288ZM264,284L284,284L284,288L264,288ZM288,284L296,284L296,288L288,288ZM316,284L320,284L320,288L316,288ZM324,284L328,284L328,288L324,288ZM332,284L340,284L340,288L332,288ZM348,284L352,284L352,288L348,288ZM356,284L372,284L372,288L356,288ZM52,288L56,288L56,292L52,292ZM60,288L64,288L64,292L60,292ZM72,288L80,288L80,292L72,292ZM84,288L100,288L100,292L84,292ZM108,288L120,288L120,292L108,292ZM124,288L132,288L132,292L124,292ZM136,288L140,288L140,292L136,292ZM144,288L156,288L156,292L144,292ZM164,288L192,288L192,292L164,292ZM200,288L204,288L204,292L200,292ZM212,288L228,288L228,292L212,292ZM236,288L240,288L240,292L236,292ZM264,288L272,288L272,292L264,292ZM292,288L304,288L304,292L292,292ZM308,288L316,288L316,292L308,292ZM320,288L328,288L328,292L320,292ZM336,288L340,288L340,292L336,292ZM48,292L64,292L64,296L48,296ZM68,292L72,292L72,296L68,296ZM80,292L84,292L84,296L80,296ZM92,292L100,292L100,296L92,296ZM104,292L116,292L116,296L104,296ZM120,292L124,292L124,296L120,296ZM128,292L136,292L136,296L128,296ZM144,292L148,292L148,296L144,296ZM152,292L172,292L172,296L152,296ZM176,292L184,292L184,296L176,296ZM196,292L204,292L204,296L196,296ZM208,292L220,292L220,296L208,296ZM224,292L228,292L228,296L224,296ZM232,292L244,292L244,296L232,296ZM256,292L268,292L268,296L256,296ZM272,292L296,292L296,296L272,296ZM300,292L308,292L308,296L300,296ZM316,292L320,292L320,296L316,296ZM324,292L332,292L332,296L324,296ZM340,292L344,292L344,296L340,296ZM348,292L352,292L352,296L348,296ZM360,292L364,292L364,296L360,296ZM48,296L56,296L56,300L48,300ZM68,296L76,296L76,300L68,300ZM96,296L100,296L100,300L96,300ZM108,296L112,296L112,300L108,300ZM116,296L124,296L124,300L116,300ZM140,296L148,296L148,300L140,300ZM152,296L168,296L168,300L152,300ZM176,296L180,296L180,300L176,300ZM188,296L192,296L192,300L188,300ZM196,296L208,296L208,300L196,300ZM212,296L216,296L216,300L212,300ZM220,296L224,296L224,300L220,300ZM228,296L232,296L232,300L228,300ZM236,296L248,296L248,300L236,300ZM252,296L268,296L268,300L252,300ZM272,296L280,296L280,300L272,300ZM288,296L292,296L292,300L288,300ZM296,296L316,296L316,300L296,300ZM320,296L328,296L328,300L320,300ZM352,296L364,296L364,300L352,300ZM368,296L372,296L372,300L368,300ZM48,300L52,300L52,304L48,304ZM56,300L60,300L60,304L56,304ZM64,300L68,300L68,304L64,304ZM76,300L84,300L84,304L76,304ZM88,300L112,300L112,304L88,304ZM120,300L124,300L124,304L120,304ZM132,300L136,300L136,304L132,304ZM140,300L152,300L152,304L140,304ZM156,300L164,300L164,304L156,304ZM168,300L176,300L176,304L168,304ZM180,300L184,300L184,304L180,304ZM188,300L192,300L192,304L188,304ZM200,300L212,300L212,304L200,304ZM216,300L228,300L228,304L216,304ZM244,300L252,300L252,304L244,304ZM264,300L268,300L268,304L264,304ZM276,300L280,300L280,304L276,304ZM284,300L292,300L292,304L284,304ZM300,300L304,300L304,304L300,304ZM312,300L320,300L320,304L312,304ZM324,300L352,300L352,304L324,304ZM360,300L372,300L372,304L360,304ZM52,304L56,304L56,308L52,308ZM72,304L76,304L76,308L72,308ZM80,304L92,304L92,308L80,308ZM100,304L108,304L108,308L100,308ZM112,304L120,304L120,308L112,308ZM128,304L140,304L140,308L128,308ZM156,304L168,304L168,308L156,308ZM172,304L204,304L204,308L172,308ZM220,304L224,304L224,308L220,308ZM228,304L236,304L236,308L228,308ZM244,304L256,304L256,308L244,308ZM260,304L264,304L264,308L260,308ZM272,304L276,304L276,308L272,308ZM292,304L296,304L296,308L292,308ZM300,304L308,304L308,308L300,308ZM320,304L324,304L324,308L320,308ZM356,304L364,304L364,308L356,308ZM48,308L52,308L52,312L48,312ZM56,308L60,308L60,312L56,312ZM84,308L92,308L92,312L84,312ZM96,308L100,308L100,312L96,312ZM112,308L116,308L116,312L112,312ZM128,308L136,308L136,312L128,312ZM140,308L144,308L144,312L140,312ZM148,308L152,308L152,312L148,312ZM156,308L164,308L164,312L156,312ZM168,308L180,308L180,312L168,312ZM184,308L196,308L196,312L184,312ZM200,308L204,308L204,312L200,312ZM208,308L212,308L212,312L208,312ZM224,308L228,308L228,312L224,312ZM232,308L240,308L240,312L232,312ZM244,308L248,308L248,312L244,312ZM252,308L256,308L256,312L252,312ZM260,308L264,308L264,312L260,312ZM268,308L272,308L272,312L268,312ZM276,308L292,308L292,312L276,312ZM296,308L300,308L300,312L296,312ZM308,308L320,308L320,312L308,312ZM324,308L332,308L332,312L324,312ZM340,308L344,308L344,312L340,312ZM348,308L356,308L356,312L348,312ZM360,308L372,308L372,312L360,312ZM48,312L52,312L52,316L48,316ZM60,312L68,312L68,316L60,316ZM72,312L84,312L84,316L72,316ZM96,312L104,312L104,316L96,316ZM116,312L120,312L120,316L116,316ZM124,312L128,312L128,316L124,316ZM136,312L140,312L140,316L136,316ZM156,312L168,312L168,316L156,316ZM172,312L176,312L176,316L172,316ZM180,312L192,312L192,316L180,316ZM196,312L200,312L200,316L196,316ZM204,312L208,312L208,316L204,316ZM212,312L220,312L220,316L212,316ZM228,312L244,312L244,316L228,316ZM248,312L252,312L252,316L248,316ZM256,312L260,312L260,316L256,316ZM264,312L268,312L268,316L264,316ZM272,312L284,312L284,316L272,316ZM300,312L304,312L304,316L300,316ZM324,312L328,312L328,316L324,316ZM348,312L352,312L352,316L348,316ZM360,312L364,312L364,316L360,316ZM52,316L60,316L60,320L52,320ZM68,316L72,316L72,320L68,320ZM76,316L80,316L80,320L76,320ZM92,316L104,316L104,320L92,320ZM112,316L116,316L116,320L112,320ZM132,316L140,316L140,320L132,320ZM148,316L156,316L156,320L148,320ZM160,316L168,316L168,320L160,320ZM176,316L184,316L184,320L176,320ZM188,316L192,316L192,320L188,320ZM196,316L200,316L200,320L196,320ZM208,316L216,316L216,320L208,320ZM224,316L228,316L228,320L224,320ZM240,316L248,316L248,320L240,320ZM264,316L268,316L268,320L264,320ZM276,316L280,316L280,320L276,320ZM296,316L308,316L308,320L296,320ZM316,316L320,316L320,320L316,320ZM324,316L328,316L328,320L324,320ZM332,316L348,316L348,320L332,320ZM360,316L372,316L372,320L360,320ZM48,320L56,320L56,324L48,324ZM60,320L68,320L68,324L60,324ZM72,320L76,320L76,324L72,324ZM80,320L88,320L88,324L80,324ZM96,320L128,320L128,324L96,324ZM132,320L148,320L148,324L132,324ZM156,320L172,320L172,324L156,324ZM176,320L184,320L184,324L176,324ZM204,320L208,320L208,324L204,324ZM212,320L216,320L216,324L212,324ZM220,320L224,320L224,324L220,324ZM236,320L248,320L248,324L236,324ZM272,320L276,320L276,324L272,324ZM296,320L300,320L300,324L296,324ZM308,320L316,320L316,324L308,324ZM320,320L324,320L324,324L320,324ZM336,320L340,320L340,324L336,324ZM348,320L356,320L356,324L348,324ZM360,320L364,320L364,324L360,324ZM48,324L52,324L52,328L48,328ZM56,324L60,324L60,328L56,328ZM80,324L92,324L92,328L80,328ZM100,324L112,324L112,328L100,328ZM124,324L132,324L132,328L124,328ZM140,324L152,324L152,328L140,328ZM160,324L164,324L164,328L160,328ZM172,324L176,324L176,328L172,328ZM180,324L184,324L184,328L180,328ZM188,324L192,324L192,328L188,328ZM208,324L216,324L216,328L208,328ZM224,324L228,324L228,328L224,328ZM232,324L240,324L240,328L232,328ZM252,324L256,324L256,328L252,328ZM260,324L264,324L264,328L260,328ZM276,324L296,324L296,328L276,328ZM304,324L308,324L308,328L304,328ZM316,324L320,324L320,328L316,328ZM324,324L336,324L336,328L324,328ZM340,324L344,324L344,328L340,328ZM360,324L364,324L364,328L360,328ZM368,324L372,324L372,328L368,328ZM52,328L64,328L64,332L52,332ZM72,328L84,328L84,332L72,332ZM92,328L104,328L104,332L92,332ZM108,328L112,328L112,332L108,332ZM140,328L148,328L148,332L140,332ZM152,328L172,328L172,332L152,332ZM180,328L200,328L200,332L180,332ZM204,328L208,328L208,332L204,332ZM212,328L224,328L224,332L212,332ZM228,328L232,328L232,332L228,332ZM248,328L264,328L264,332L248,332ZM272,328L280,328L280,332L272,332ZM296,328L300,328L300,332L296,332ZM304,328L308,328L308,332L304,332ZM312,328L316,328L316,332L312,332ZM320,328L328,328L328,332L320,332ZM332,328L340,328L340,332L332,332ZM352,328L360,328L360,332L352,332ZM52,332L56,332L56,336L52,336ZM68,332L72,332L72,336L68,336ZM76,332L80,332L80,336L76,336ZM84,332L88,332L88,336L84,336ZM96,332L112,332L112,336L96,336ZM120,332L132,332L132,336L120,336ZM136,332L152,332L152,336L136,336ZM160,332L172,332L172,336L160,336ZM176,332L188,332L188,336L176,336ZM196,332L200,332L200,336L196,336ZM204,332L208,332L208,336L204,336ZM220,332L228,332L228,336L220,336ZM232,332L240,332L240,336L232,336ZM248,332L256,332L256,336L248,336ZM264,332L272,332L272,336L264,336ZM276,332L292,332L292,336L276,336ZM296,332L300,332L300,336L296,336ZM312,332L328,332L328,336L312,336ZM340,332L344,332L344,336L340,336ZM348,332L352,332L352,336L348,336ZM356,332L364,332L364,336L356,336ZM52,336L64,336L64,340L52,340ZM72,336L76,336L76,340L72,340ZM80,336L84,336L84,340L80,340ZM88,336L108,336L108,340L88,340ZM120,336L140,336L140,340L120,340ZM144,336L168,336L168,340L144,340ZM176,336L180,336L180,340L176,340ZM192,336L200,336L200,340L192,340ZM208,336L212,336L212,340L208,340ZM220,336L224,336L224,340L220,340ZM228,336L232,336L232,340L228,340ZM240,336L264,336L264,340L240,340ZM272,336L284,336L284,340L272,340ZM292,336L296,336L296,340L292,340ZM300,336L308,336L308,340L300,340ZM316,336L320,336L320,340L316,340ZM336,336L356,336L356,340L336,340ZM364,336L368,336L368,340L364,340ZM80,340L88,340L88,344L80,344ZM96,340L100,340L100,344L96,344ZM116,340L120,340L120,344L116,344ZM124,340L128,340L128,344L124,344ZM132,340L140,340L140,344L132,344ZM144,340L148,340L148,344L144,344ZM160,340L172,340L172,344L160,344ZM176,340L180,340L180,344L176,344ZM188,340L192,340L192,344L188,344ZM196,340L200,340L200,344L196,344ZM208,340L216,340L216,344L208,344ZM224,340L228,340L228,344L224,344ZM240,340L244,340L244,344L240,344ZM256,340L272,340L272,344L256,344ZM296,340L300,340L300,344L296,344ZM312,340L316,340L316,344L312,344ZM320,340L324,340L324,344L320,344ZM332,340L340,340L340,344L332,344ZM352,340L368,340L368,344L352,344ZM48,344L76,344L76,348L48,348ZM84,344L88,344L88,348L84,348ZM92,344L100,344L100,348L92,348ZM104,344L120,344L120,348L104,348ZM132,344L136,344L136,348L132,348ZM144,344L148,344L148,348L144,348ZM152,344L156,344L156,348L152,348ZM160,344L168,344L168,348L160,348ZM172,344L196,344L196,348L172,348ZM200,344L204,344L204,348L200,348ZM212,344L232,344L232,348L212,348ZM236,344L244,344L244,348L236,348ZM248,344L252,344L252,348L248,348ZM256,344L268,344L268,348L256,348ZM272,344L276,344L276,348L272,348ZM280,344L284,344L284,348L280,348ZM300,344L304,344L304,348L300,348ZM320,344L324,344L324,348L320,348ZM328,344L340,344L340,348L328,348ZM344,344L348,344L348,348L344,348ZM352,344L356,344L356,348L352,348ZM360,344L364,344L364,348L360,348ZM48,348L52,348L52,352L48,352ZM72,348L76,348L76,352L72,352ZM92,348L96,348L96,352L92,352ZM112,348L116,348L116,352L112,352ZM124,348L128,348L128,352L124,352ZM132,348L140,348L140,352L132,352ZM144,348L148,348L148,352L144,352ZM160,348L168,348L168,352L160,352ZM172,348L192,348L192,352L172,352ZM200,348L212,348L212,352L200,352ZM216,348L220,348L220,352L216,352ZM224,348L244,348L244,352L224,352ZM256,348L260,348L260,352L256,352ZM268,348L280,348L280,352L268,352ZM288,348L292,348L292,352L288,352ZM296,348L308,348L308,352L296,352ZM312,348L320,348L320,352L312,352ZM324,348L328,348L328,352L324,352ZM332,348L340,348L340,352L332,352ZM352,348L356,348L356,352L352,352ZM360,348L372,348L372,352L360,352ZM48,352L52,352L52,356L48,356ZM56,352L68,352L68,356L56,356ZM72,352L76,352L76,356L72,356ZM80,352L92,352L92,356L80,356ZM100,352L104,352L104,356L100,356ZM108,352L120,352L120,356L108,356ZM132,352L140,352L140,356L132,356ZM144,352L180,352L180,356L144,356ZM184,352L192,352L192,356L184,356ZM196,352L200,352L200,356L196,356ZM204,352L208,352L208,356L204,356ZM216,352L232,352L232,356L216,356ZM236,352L260,352L260,356L236,356ZM264,352L268,352L268,356L264,356ZM272,352L284,352L284,356L272,356ZM292,352L296,352L296,356L292,356ZM300,352L312,352L312,356L300,356ZM320,352L324,352L324,356L320,356ZM336,352L356,352L356,356L336,356ZM48,356L52,356L52,360L48,360ZM56,356L68,356L68,360L56,360ZM72,356L76,356L76,360L72,360ZM80,356L92,356L92,360L80,360ZM100,356L104,356L104,360L100,360ZM108,356L128,356L128,360L108,360ZM136,356L144,356L144,360L136,360ZM152,356L160,356L160,360L152,360ZM164,356L168,356L168,360L164,360ZM172,356L180,356L180,360L172,360ZM192,356L196,356L196,360L192,360ZM204,356L212,356L212,360L204,360ZM216,356L220,356L220,360L216,360ZM228,356L244,356L244,360L228,360ZM248,356L252,356L252,360L248,360ZM256,356L264,356L264,360L256,360ZM268,356L272,356L272,360L268,360ZM284,356L292,356L292,360L284,360ZM296,356L300,356L300,360L296,360ZM316,356L320,356L320,360L316,360ZM324,356L336,356L336,360L324,360ZM348,356L356,356L356,360L348,360ZM360,356L368,356L368,360L360,360ZM48,360L52,360L52,364L48,364ZM56,360L68,360L68,364L56,364ZM72,360L76,360L76,364L72,364ZM80,360L84,360L84,364L80,364ZM88,360L96,360L96,364L88,364ZM104,360L112,360L112,364L104,364ZM120,360L124,360L124,364L120,364ZM128,360L132,360L132,364L128,364ZM144,360L156,360L156,364L144,364ZM164,360L172,360L172,364L164,364ZM180,360L184,360L184,364L180,364ZM188,360L200,360L200,364L188,364ZM204,360L208,360L208,364L204,364ZM212,360L216,360L216,364L212,364ZM220,360L228,360L228,364L220,364ZM232,360L236,360L236,364L232,364ZM244,360L248,360L248,364L244,364ZM256,360L260,360L260,364L256,364ZM264,360L268,360L268,364L264,364ZM272,360L276,360L276,364L272,364ZM288,360L292,360L292,364L288,364ZM300,360L304,360L304,364L300,364ZM336,360L344,360L344,364L336,364ZM348,360L352,360L352,364L348,364ZM356,360L360,360L360,364L356,364ZM48,364L52,364L52,368L48,368ZM72,364L76,364L76,368L72,368ZM96,364L112,364L112,368L96,368ZM120,364L124,364L124,368L120,368ZM128,364L136,364L136,368L128,368ZM140,364L144,364L144,368L140,368ZM148,364L152,364L152,368L148,368ZM160,364L172,364L172,368L160,368ZM180,364L188,364L188,368L180,368ZM200,364L204,364L204,368L200,368ZM224,364L228,364L228,368L224,368ZM236,364L240,364L240,368L236,368ZM248,364L252,364L252,368L248,368ZM268,364L284,364L284,368L268,368ZM288,364L292,364L292,368L288,368ZM304,364L308,364L308,368L304,368ZM312,364L320,364L320,368L312,368ZM324,364L332,364L332,368L324,368ZM336,364L340,364L340,368L336,368ZM352,364L356,364L356,368L352,368ZM360,364L372,364L372,368L360,368ZM48,368L76,368L76,372L48,372ZM112,368L116,368L116,372L112,372ZM124,368L128,368L128,372L124,372ZM132,368L140,368L140,372L132,372ZM144,368L152,368L152,372L144,372ZM156,368L160,368L160,372L156,372ZM164,368L168,368L168,372L164,372ZM176,368L180,368L180,372L176,372ZM184,368L196,368L196,372L184,372ZM208,368L220,368L220,372L208,372ZM224,368L236,368L236,372L224,372ZM240,368L248,368L248,372L240,372ZM256,368L260,368L260,372L256,372ZM272,368L276,368L276,372L272,372ZM292,368L296,368L296,372L292,372ZM300,368L316,368L316,372L300,372ZM320,368L324,368L324,372L320,372ZM336,368L352,368L352,372L336,372ZM360,368L368,368L368,372L360,372Z"/></svg>
