<?xml version="1.0"?>
<svg xmlns="http://www.w3.org/2000/svg" xmlns:xlink="http://www.w3.org/1999/xlink" version="1.1" width="420px" height="420px" viewBox="0 0 420 420"><rect x="0" y="0" width="420" height="420" fill="#ffffff" fill-opacity="1"/><path fill="#000000" fill-opacity="1" d="M48,48L76,48L76,52L48,52ZM80,48L88,48L88,52L80,52ZM92,48L96,48L96,52L92,52ZM108,48L112,48L112,52L108,52ZM136,48L140,48L140,52L136,52ZM144,48L152,48L152,52L144,52ZM160,48L168,48L168,52L160,52ZM172,48L176,48L176,52L172,52ZM184,48L188,48L188,52L184,52ZM192,48L196,48L196,52L192,52ZM204,48L208,48L208,52L204,52ZM216,48L224,48L224,52L216,52ZM228,48L240,48L240,52L228,52ZM244,48L248,48L248,52L244,52ZM252,48L256,48L256,52L252,52ZM268,48L272,48L272,52L268,52ZM276,48L292,48L292,52L276,52ZM296,48L300,48L300,52L296,52ZM320,48L328,48L328,52L320,52ZM344,48L372,48L372,52L344,52ZM48,52L52,52L52,56L48,56ZM72,52L76,52L76,56L72,56ZM80,52L84,52L84,56L80,56ZM88,52L92,52L92,56L88,56ZM96,52L104,52L104,56L96,56ZM112,52L124,52L124,56L112,56ZM128,52L140,52L140,56L128,56ZM144,52L148,52L148,56L144,56ZM160,52L168,52L168,56L160,56ZM176,52L180,52L180,56L176,56ZM184,52L192,52L192,56L184,56ZM196,52L208,52L208,56L196,56ZM212,52L224,52L224,56L212,56ZM228,52L232,52L232,56L228,56ZM236,52L240,52L240,56L236,56ZM264,52L268,52L268,56L264,56ZM272,52L280,52L280,56L272,56ZM288,52L292,52L292,56L288,56ZM300,52L304,52L304,56L300,56ZM328,52L340,52L340,56L328,56ZM344,52L348,52L348,56L344,56ZM368,52L372,52L372,56L368,56ZM48,56L52,56L52,60L48,60ZM56,56L68,56L68,60L56,60ZM72,56L76,56L76,60L72,60ZM80,56L84,56L84,60L80,60ZM88,56L92,56L92,60L88,60ZM100,56L120,56L120,60L100,60ZM124,56L128,56L128,60L124,60ZM132,56L140,56L140,60L132,60ZM144,56L148,56L148,60L144,60ZM152,56L160,56L160,60L152,60ZM164,56L168,56L168,60L164,60ZM176,56L180,56L180,60L176,60ZM200,56L204,56L204,60L200,60ZM208,56L224,56L224,60L208,60ZM232,56L236,56L236,60L232,60ZM244,56L252,56L252,60L244,60ZM276,56L280,56L280,60L276,60ZM284,56L292,56L292,60L284,60ZM300,56L308,56L308,60L300,60ZM328,56L332,56L332,60L328,60ZM336,56L340,56L340,60L336,60ZM344,56L348,56L348,60L344,60ZM352,56L364,56L364,60L352,60ZM368,56L372,56L372,60L368,60ZM48,60L52,60L52,64L48,64ZM56,60L68,60L68,64L56,64ZM72,60L76,60L76,64L72,64ZM92,60L100,60L100,64L92,64ZM104,60L108,60L108,64L104,64ZM116,60L128,60L128,64L116,64ZM140,60L148,60L148,64L140,64ZM156,60L160,60L160,64L156,64ZM168,60L176,60L176,64L168,64ZM192,60L196,60L196,64L192,64ZM204,60L208,60L208,64L204,64ZM212,60L216,60L216,64L212,64ZM220,60L224,60L224,64L220,64ZM248,60L256,60L256,64L248,64ZM260,60L268,60L268,64L260,64ZM272,60L276,60L276,64L272,64ZM296,60L300,60L300,64L296,64ZM308,60L316,60L316,64L308,64ZM320,60L332,60L332,64L320,64ZM336,60L340,60L340,64L336,64ZM344,60L348,60L348,64L344,64ZM352,60L364,60L364,64L352,64ZM368,60L372,60L372,64L368,64ZM48,64L52,64L52,68L48,68ZM56,64L68,64L68,68L56,68ZM72,64L76,64L76,68L72,68ZM96,64L108,64L108,68L96,68ZM112,64L116,64L116,68L112,68ZM124,64L128,64L128,68L124,68ZM136,64L140,64L140,68L136,68ZM144,64L172,64L172,68L144,68ZM176,64L180,64L180,68L176,68ZM192,64L196,64L196,68L192,68ZM208,64L228,64L228,68L208,68ZM240,64L264,64L264,68L240,68ZM276,64L296,64L296,68L276,68ZM304,64L308,64L308,68L304,68ZM316,64L320,64L320,68L316,68ZM324,64L328,64L328,68L324,68ZM344,64L348,64L348,68L344,68ZM352,64L364,64L364,68L352,68ZM368,64L372,64L372,68L368,68ZM48,68L52,68L52,72L48,72ZM72,68L76,68L76,72L72,72ZM80,68L88,68L88,72L80,72ZM96,68L116,68L116,72L96,72ZM132,68L148,68L148,72L132,72ZM160,68L168,68L168,72L160,72ZM172,68L192,68L192,72L172,72ZM200,68L208,68L208,72L200,72ZM224,68L244,68L244,72L224,72ZM256,68L260,68L260,72L256,72ZM264,68L268,68L268,72L264,72ZM272,68L276,68L276,72L272,72ZM288,68L300,68L300,72L288,72ZM308,68L312,68L312,72L308,72ZM324,68L328,68L328,72L324,72ZM332,68L336,68L336,72L332,72ZM344,68L348,68L348,72L344,72ZM368,68L372,68L372,72L368,72ZM48,72L76,72L76,76L48,76ZM80,72L84,72L84,76L80,76ZM88,72L92,72L92,76L88,76ZM96,72L100,72L100,76L96,76ZM104,72L108,72L108,76L104,76ZM112,72L116,72L116,76L112,76ZM120,72L124,72L124,76L120,76ZM128,72L132,72L132,76L128,76ZM136,72L140,72L140,76L136,76ZM144,72L148,72L148,76L144,76ZM152,72L156,72L156,76L152,76ZM160,72L164,72L164,76L160,76ZM168,72L172,72L172,76L168,76ZM176,72L180,72L180,76L176,76ZM184,72L188,72L188,76L184,76ZM192,72L196,72L196,76L192,76ZM200,72L204,72L204,76L200,76ZM208,72L212,72L212,76L208,76ZM216,72L220,72L220,76L216,76ZM224,72L228,72L228,76L224,76ZM232,72L236,72L236,76L232,76ZM240,72L244,72L244,76L240,76ZM248,72L252,72L252,76L248,76ZM256,72L260,72L260,76L256,76ZM264,72L268,72L268,76L264,76ZM272,72L276,72L276,76L272,76ZM280,72L284,72L284,76L280,76ZM288,72L292,72L292,76L288,76ZM296,72L300,72L300,76L296,76ZM304,72L308,72L308,76L304,76ZM312,72L316,72L316,76L312,76ZM320,72L324,72L324,76L320,76ZM328,72L332,72L332,76L328,76ZM336,72L340,72L340,76L336,76ZM344,72L372,72L372,76L344,76ZM80,76L92,76L92,80L80,80ZM96,76L104,76L104,80L96,80ZM112,76L116,76L116,80L112,80ZM120,76L124,76L124,80L120,80ZM128,76L140,76L140,80L128,80ZM144,76L148,76L148,80L144,80ZM160,76L164,76L164,80L160,80ZM168,76L176,76L176,80L168,80ZM180,76L184,76L184,80L180,80ZM188,76L196,76L196,80L188,80ZM204,76L208,76L208,80L204,80ZM216,76L224,76L224,80L216,80ZM232,76L236,76L236,80L232,80ZM240,76L244,76L244,80L240,80ZM256,76L260,76L260,80L256,80ZM276,76L280,76L280,80L276,80ZM284,76L288,76L288,80L284,80ZM296,76L308,76L308,80L296,80ZM312,76L328,76L328,80L312,80ZM336,76L340,76L340,80L336,80ZM56,80L68,80L68,84L56,84ZM72,80L76,80L76,84L72,84ZM80,80L84,80L84,84L80,84ZM96,80L100,80L100,84L96,84ZM104,80L108,80L108,84L104,84ZM124,80L136,80L136,84L124,84ZM144,80L164,80L164,84L144,84ZM172,80L176,80L176,84L172,84ZM188,80L192,80L192,84L188,84ZM208,80L212,80L212,84L208,84ZM228,80L236,80L236,84L228,84ZM240,80L268,80L268,84L240,84ZM272,80L276,80L276,84L272,84ZM280,80L296,80L296,84L280,84ZM308,80L320,80L320,84L308,84ZM324,80L332,80L332,84L324,84ZM336,80L352,80L352,84L336,84ZM360,80L372,80L372,84L360,84ZM48,84L52,84L52,88L48,88ZM56,84L68,84L68,88L56,88ZM76,84L80,84L80,88L76,88ZM84,84L88,84L88,88L84,88ZM92,84L96,84L96,88L92,88ZM104,84L108,84L108,88L104,88ZM112,84L144,84L144,88L112,88ZM148,84L156,84L156,88L148,88ZM168,84L172,84L172,88L168,88ZM176,84L188,84L188,88L176,88ZM196,84L204,84L204,88L196,88ZM208,84L212,84L212,88L208,88ZM216,84L224,84L224,88L216,88ZM232,84L236,84L236,88L232,88ZM244,84L248,84L248,88L244,88ZM276,84L292,84L292,88L276,88ZM296,84L300,84L300,88L296,88ZM304,84L308,84L308,88L304,88ZM316,84L320,84L320,88L316,88ZM356,84L364,84L364,88L356,88ZM368,84L372,84L372,88L368,88ZM56,88L60,88L60,92L56,92ZM72,88L84,88L84,92L72,92ZM88,88L96,88L96,92L88,92ZM100,88L108,88L108,92L100,92ZM136,88L148,88L148,92L136,92ZM152,88L156,88L156,92L152,92ZM164,88L168,88L168,92L164,92ZM176,88L180,88L180,92L176,92ZM196,88L212,88L212,92L196,92ZM216,88L220,88L220,92L216,92ZM224,88L228,88L228,92L224,92ZM232,88L244,88L244,92L232,92ZM248,88L260,88L260,92L248,92ZM264,88L268,88L268,92L264,92ZM276,88L284,88L284,92L276,92ZM288,88L292,88L292,92L288,92ZM304,88L308,88L308,92L304,92ZM312,88L316,88L316,92L312,92ZM320,88L324,88L324,92L320,92ZM332,88L340,88L340,92L332,92ZM348,88L364,88L364,92L348,92ZM48,92L56,92L56,96L48,96ZM68,92L72,92L72,96L68,96ZM80,92L100,92L100,96L80,96ZM108,92L112,92L112,96L108,96ZM116,92L140,92L140,96L116,96ZM148,92L156,92L156,96L148,96ZM160,92L164,92L164,96L160,96ZM168,92L176,92L176,96L168,96ZM180,92L184,92L184,96L180,96ZM192,92L196,92L196,96L192,96ZM208,92L212,92L212,96L208,96ZM220,92L224,92L224,96L220,96ZM232,92L240,92L240,96L232,96ZM248,92L260,92L260,96L248,96ZM264,92L268,92L268,96L264,96ZM276,92L280,92L280,96L276,96ZM320,92L332,92L332,96L320,96ZM340,92L344,92L344,96L340,96ZM356,92L372,92L372,96L356,96ZM48,96L56,96L56,100L48,100ZM64,96L76,96L76,100L64,100ZM80,96L84,96L84,100L80,100ZM88,96L92,96L92,100L88,100ZM96,96L112,96L112,100L96,100ZM120,96L132,96L132,100L120,100ZM136,96L140,96L140,100L136,100ZM144,96L148,96L148,100L144,100ZM152,96L156,96L156,100L152,100ZM176,96L192,96L192,100L176,100ZM200,96L232,96L232,100L200,100ZM240,96L248,96L248,100L240,100ZM256,96L260,96L260,100L256,100ZM268,96L284,96L284,100L268,100ZM292,96L296,96L296,100L292,100ZM300,96L316,96L316,100L300,100ZM320,96L324,96L324,100L320,100ZM336,96L340,96L340,100L336,100ZM352,96L364,96L364,100L352,100ZM48,100L52,100L52,104L48,104ZM60,100L64,100L64,104L60,104ZM80,100L88,100L88,104L80,104ZM92,100L100,100L100,104L92,104ZM108,100L112,100L112,104L108,104ZM116,100L128,100L128,104L116,104ZM136,100L152,100L152,104L136,104ZM156,100L160,100L160,104L156,104ZM176,100L180,100L180,104L176,104ZM184,100L192,100L192,104L184,104ZM196,100L212,100L212,104L196,104ZM216,100L220,100L220,104L216,104ZM232,100L236,100L236,104L232,104ZM240,100L248,100L248,104L240,104ZM268,100L272,100L272,104L268,104ZM276,100L280,100L280,104L276,104ZM284,100L292,100L292,104L284,104ZM296,100L300,100L300,104L296,104ZM320,100L332,100L332,104L320,104ZM340,100L352,100L352,104L340,104ZM360,100L364,100L364,104L360,104ZM48,104L60,104L60,108L48,108ZM68,104L76,104L76,108L68,108ZM116,104L120,104L120,108L116,108ZM132,104L136,104L136,108L132,108ZM140,104L148,104L148,108L140,108ZM176,104L180,104L180,108L176,108ZM192,104L208,104L208,108L192,108ZM212,104L216,104L216,108L212,108ZM220,104L264,104L264,108L220,108ZM276,104L280,104L280,108L276,108ZM300,104L308,104L308,108L300,108ZM312,104L316,104L316,108L312,108ZM324,104L328,104L328,108L324,108ZM336,104L340,104L340,108L336,108ZM356,104L360,104L360,108L356,108ZM364,104L368,104L368,108L364,108ZM56,108L64,108L64,112L56,112ZM80,108L84,108L84,112L80,112ZM88,108L92,108L92,112L88,112ZM100,108L112,108L112,112L100,112ZM116,108L128,108L128,112L116,112ZM132,108L144,108L144,112L132,112ZM148,108L152,108L152,112L148,112ZM164,108L168,108L168,112L164,112ZM172,108L180,108L180,112L172,112ZM192,108L220,108L220,112L192,112ZM228,108L236,108L236,112L228,112ZM244,108L248,108L248,112L244,112ZM268,108L272,108L272,112L268,112ZM276,108L284,108L284,112L276,112ZM288,108L292,108L292,112L288,112ZM304,108L308,108L308,112L304,112ZM320,108L328,108L328,112L320,112ZM348,108L352,108L352,112L348,112ZM356,108L364,108L364,112L356,112ZM368,108L372,108L372,112L368,112ZM48,112L52,112L52,116L48,116ZM68,112L88,112L88,116L68,116ZM92,112L116,112L116,116L92,116ZM124,112L128,112L128,116L124,116ZM136,112L152,112L152,116L136,116ZM156,112L164,112L164,116L156,116ZM176,112L188,112L188,116L176,116ZM192,112L204,112L204,116L192,116ZM212,112L232,112L232,116L212,116ZM236,112L248,112L248,116L236,116ZM256,112L268,112L268,116L256,116ZM272,112L276,112L276,116L272,116ZM284,112L288,112L288,116L284,116ZM292,112L296,112L296,116L292,116ZM300,112L316,112L316,116L300,116ZM320,112L324,112L324,116L320,116ZM336,112L340,112L340,116L336,116ZM348,112L356,112L356,116L348,116ZM368,112L372,112L372,116L368,116ZM48,116L72,116L72,120L48,120ZM80,116L84,116L84,120L80,120ZM88,116L100,116L100,120L88,120ZM116,116L120,116L120,120L116,120ZM124,116L128,116L128,120L124,120ZM132,116L136,116L136,120L132,120ZM148,116L152,116L152,120L148,120ZM156,116L172,116L172,120L156,120ZM188,116L192,116L192,120L188,120ZM196,116L200,116L200,120L196,120ZM212,116L216,116L216,120L212,120ZM220,116L228,116L228,120L220,120ZM232,116L244,116L244,120L232,120ZM248,116L252,116L252,120L248,120ZM256,116L264,116L264,120L256,120ZM268,116L272,116L272,120L268,120ZM276,116L292,116L292,120L276,120ZM296,116L300,116L300,120L296,120ZM316,116L320,116L320,120L316,120ZM324,116L332,116L332,120L324,120ZM340,116L348,116L348,120L340,120ZM352,116L356,116L356,120L352,120ZM360,116L368,116L368,120L360,120ZM48,120L52,120L52,124L48,124ZM56,120L68,120L68,124L56,124ZM72,120L76,120L76,124L72,124ZM80,120L92,120L92,124L80,124ZM100,120L112,120L112,124L100,124ZM120,120L128,120L128,124L120,124ZM132,120L148,120L148,124L132,124ZM152,120L160,120L160,124L152,124ZM164,120L172,120L172,124L164,124ZM180,120L184,120L184,124L180,124ZM188,120L192,120L192,124L188,124ZM196,120L208,120L208,124L196,124ZM212,120L224,120L224,124L212,124ZM236,120L240,120L240,124L236,124ZM248,120L252,120L252,124L248,124ZM264,120L268,120L268,124L264,124ZM272,120L280,120L280,124L272,124ZM296,120L308,120L308,124L296,124ZM324,120L340,120L340,124L324,124ZM356,120L360,120L360,124L356,124ZM48,124L52,124L52,128L48,128ZM56,124L72,124L72,128L56,128ZM84,124L92,124L92,128L84,128ZM104,124L108,124L108,128L104,128ZM112,124L116,124L116,128L112,128ZM120,124L128,124L128,128L120,128ZM136,124L144,124L144,128L136,128ZM148,124L152,124L152,128L148,128ZM172,124L176,124L176,128L172,128ZM180,124L184,124L184,128L180,128ZM192,124L196,124L196,128L192,128ZM204,124L208,124L208,128L204,128ZM220,124L240,124L240,128L220,128ZM248,124L260,124L260,128L248,128ZM268,124L284,124L284,128L268,128ZM288,124L292,124L292,128L288,128ZM324,124L332,124L332,128L324,128ZM340,124L344,124L344,128L340,128ZM348,124L352,124L352,128L348,128ZM360,124L368,124L368,128L360,128ZM48,128L52,128L52,132L48,132ZM56,128L76,128L76,132L56,132ZM80,128L88,128L88,132L80,132ZM112,128L128,128L128,132L112,132ZM132,128L136,128L136,132L132,132ZM152,128L160,128L160,132L152,132ZM168,128L180,128L180,132L168,132ZM184,128L188,128L188,132L184,132ZM196,128L200,128L200,132L196,132ZM204,128L220,128L220,132L204,132ZM224,128L228,128L228,132L224,132ZM236,128L240,128L240,132L236,132ZM256,128L268,128L268,132L256,132ZM276,128L288,128L288,132L276,132ZM292,128L296,128L296,132L292,132ZM308,128L316,128L316,132L308,132ZM320,128L324,128L324,132L320,132ZM332,128L340,128L340,132L332,132ZM360,128L364,128L364,132L360,132ZM56,132L72,132L72,136L56,136ZM80,132L84,132L84,136L80,136ZM88,132L92,132L92,136L88,136ZM96,132L108,132L108,136L96,136ZM120,132L132,132L132,136L120,136ZM136,132L144,132L144,136L136,136ZM156,132L160,132L160,136L156,136ZM188,132L192,132L192,136L188,136ZM200,132L204,132L204,136L200,136ZM208,132L216,132L216,136L208,136ZM220,132L224,132L224,136L220,136ZM228,132L240,132L240,136L228,136ZM244,132L248,132L248,136L244,136ZM256,132L260,132L260,136L256,136ZM272,132L280,132L280,136L272,136ZM284,132L292,132L292,136L284,136ZM296,132L308,132L308,136L296,136ZM316,132L320,132L320,136L316,136ZM324,132L332,132L332,136L324,136ZM340,132L352,132L352,136L340,136ZM360,132L364,132L364,136L360,136ZM368,132L372,132L372,136L368,136ZM52,136L56,136L56,140L52,140ZM60,136L64,136L64,140L60,140ZM68,136L76,136L76,140L68,140ZM84,136L88,136L88,140L84,140ZM92,136L96,136L96,140L92,140ZM100,136L108,136L108,140L100,140ZM116,136L120,136L120,140L116,140ZM128,136L144,136L144,140L128,140ZM156,136L164,136L164,140L156,140ZM168,136L176,136L176,140L168,140ZM180,136L192,136L192,140L180,140ZM196,136L200,136L200,140L196,140ZM204,136L208,136L208,140L204,140ZM212,136L240,136L240,140L212,140ZM244,136L248,136L248,140L244,140ZM252,136L260,136L260,140L252,140ZM296,136L304,136L304,140L296,140ZM312,136L316,136L316,140L312,140ZM320,136L328,136L328,140L320,140ZM332,136L340,136L340,140L332,140ZM348,136L352,136L352,140L348,140ZM356,136L360,136L360,140L356,140ZM364,136L368,136L368,140L364,140ZM48,140L52,140L52,144L48,144ZM56,140L64,140L64,144L56,144ZM104,140L108,140L108,144L104,144ZM116,140L128,140L128,144L116,144ZM136,140L140,140L140,144L136,144ZM148,140L156,140L156,144L148,144ZM160,140L180,140L180,144L160,144ZM188,140L200,140L200,144L188,144ZM208,140L212,140L212,144L208,144ZM220,140L224,140L224,144L220,144ZM228,140L236,140L236,144L228,144ZM244,140L252,140L252,144L244,144ZM276,140L284,140L284,144L276,144ZM288,140L292,140L292,144L288,144ZM296,140L300,140L300,144L296,144ZM304,140L308,140L308,144L304,144ZM316,140L328,140L328,144L316,144ZM336,140L340,140L340,144L336,144ZM348,140L352,140L352,144L348,144ZM360,140L372,140L372,144L360,144ZM48,144L52,144L52,148L48,148ZM64,144L92,144L92,148L64,148ZM96,144L100,144L100,148L96,148ZM104,144L112,144L112,148L104,148ZM116,144L164,144L164,148L116,148ZM192,144L196,144L196,148L192,148ZM200,144L208,144L208,148L200,148ZM212,144L224,144L224,148L212,148ZM228,144L268,144L268,148L228,148ZM272,144L280,144L280,148L272,148ZM296,144L300,144L300,148L296,148ZM308,144L316,144L316,148L308,148ZM320,144L356,144L356,148L320,148ZM52,148L60,148L60,152L52,152ZM64,148L68,148L68,152L64,152ZM80,148L88,148L88,152L80,152ZM92,148L96,148L96,152L92,152ZM104,148L108,148L108,152L104,152ZM112,148L132,148L132,152L112,152ZM136,148L140,148L140,152L136,152ZM144,148L148,148L148,152L144,152ZM160,148L164,148L164,152L160,152ZM168,148L172,148L172,152L168,152ZM176,148L188,148L188,152L176,152ZM196,148L204,148L204,152L196,152ZM212,148L228,148L228,152L212,152ZM232,148L236,148L236,152L232,152ZM240,148L244,148L244,152L240,152ZM256,148L260,148L260,152L256,152ZM272,148L296,148L296,152L272,152ZM300,148L308,148L308,152L300,152ZM320,148L328,148L328,152L320,152ZM332,148L340,148L340,152L332,152ZM352,148L356,148L356,152L352,152ZM360,148L372,148L372,152L360,152ZM60,152L68,152L68,156L60,156ZM72,152L76,152L76,156L72,156ZM80,152L88,152L88,156L80,156ZM92,152L100,152L100,156L92,156ZM104,152L108,152L108,156L104,156ZM112,152L116,152L116,156L112,156ZM128,152L132,152L132,156L128,156ZM136,152L148,152L148,156L136,156ZM152,152L156,152L156,156L152,156ZM160,152L196,152L196,156L160,156ZM204,152L236,152L236,156L204,156ZM240,152L244,152L244,156L240,156ZM248,152L252,152L252,156L248,156ZM256,152L260,152L260,156L256,156ZM272,152L280,152L280,156L272,156ZM288,152L292,152L292,156L288,156ZM300,152L312,152L312,156L300,156ZM320,152L324,152L324,156L320,156ZM336,152L340,152L340,156L336,156ZM344,152L348,152L348,156L344,156ZM352,152L360,152L360,156L352,156ZM364,152L368,152L368,156L364,156ZM52,156L68,156L68,160L52,160ZM80,156L100,156L100,160L80,160ZM104,156L112,156L112,160L104,160ZM116,156L124,156L124,160L116,160ZM132,156L148,156L148,160L132,160ZM160,156L168,156L168,160L160,160ZM172,156L180,156L180,160L172,160ZM192,156L196,156L196,160L192,160ZM204,156L216,156L216,160L204,160ZM228,156L232,156L232,160L228,160ZM240,156L244,156L244,160L240,160ZM256,156L260,156L260,160L256,160ZM276,156L288,156L288,160L276,160ZM296,156L312,156L312,160L296,160ZM324,156L340,156L340,160L324,160ZM352,156L372,156L372,160L352,160ZM52,160L84,160L84,164L52,164ZM96,160L104,160L104,164L96,164ZM108,160L116,160L116,164L108,164ZM132,160L140,160L140,164L132,164ZM144,160L208,160L208,164L144,164ZM212,160L216,160L216,164L212,164ZM220,160L224,160L224,164L220,164ZM240,160L264,160L264,164L240,164ZM272,160L280,160L280,164L272,164ZM284,160L296,160L296,164L284,164ZM300,160L312,160L312,164L300,164ZM320,160L356,160L356,164L320,164ZM360,160L364,160L364,164L360,164ZM48,164L52,164L52,168L48,168ZM68,164L72,164L72,168L68,168ZM84,164L88,164L88,168L84,168ZM104,164L132,164L132,168L104,168ZM152,164L164,164L164,168L152,168ZM176,164L180,164L180,168L176,168ZM192,164L200,164L200,168L192,168ZM216,164L220,164L220,168L216,168ZM224,164L236,164L236,168L224,168ZM240,164L252,164L252,168L240,168ZM256,164L260,164L260,168L256,168ZM264,164L272,164L272,168L264,168ZM276,164L292,164L292,168L276,168ZM296,164L300,164L300,168L296,168ZM308,164L320,164L320,168L308,168ZM324,164L328,164L328,168L324,168ZM336,164L344,164L344,168L336,168ZM352,164L356,164L356,168L352,168ZM360,164L364,164L364,168L360,168ZM368,164L372,164L372,168L368,168ZM48,168L52,168L52,172L48,172ZM56,168L60,168L60,172L56,172ZM72,168L80,168L80,172L72,172ZM88,168L92,168L92,172L88,172ZM104,168L112,168L112,172L104,172ZM116,168L120,168L120,172L116,172ZM128,168L132,168L132,172L128,172ZM140,168L144,168L144,172L140,172ZM148,168L152,168L152,172L148,172ZM156,168L164,168L164,172L156,172ZM176,168L184,168L184,172L176,172ZM196,168L204,168L204,172L196,172ZM208,168L224,168L224,172L208,172ZM232,168L240,168L240,172L232,172ZM252,168L256,168L256,172L252,172ZM264,168L268,168L268,172L264,172ZM276,168L280,168L280,172L276,172ZM288,168L292,168L292,172L288,172ZM296,168L308,168L308,172L296,172ZM324,168L332,168L332,172L324,172ZM336,168L340,168L340,172L336,172ZM348,168L352,168L352,172L348,172ZM356,168L360,168L360,172L356,172ZM364,168L372,168L372,172L364,172ZM56,172L68,172L68,176L56,176ZM88,172L92,172L92,176L88,176ZM108,172L112,172L112,176L108,176ZM116,172L120,172L120,176L116,176ZM124,172L128,172L128,176L124,176ZM136,172L156,172L156,176L136,176ZM164,172L172,172L172,176L164,176ZM188,172L196,172L196,176L188,176ZM200,172L204,172L204,176L200,176ZM208,172L212,172L212,176L208,176ZM216,172L220,172L220,176L216,176ZM228,172L232,172L232,176L228,176ZM236,172L240,172L240,176L236,176ZM248,172L256,172L256,176L248,176ZM268,172L284,172L284,176L268,176ZM288,172L292,172L292,176L288,176ZM300,172L304,172L304,176L300,176ZM312,172L320,172L320,176L312,176ZM324,172L328,172L328,176L324,176ZM332,172L344,172L344,176L332,176ZM352,172L356,172L356,176L352,176ZM360,172L364,172L364,176L360,176ZM48,176L56,176L56,180L48,180ZM72,176L84,176L84,180L72,180ZM96,176L104,176L104,180L96,180ZM112,176L120,176L120,180L112,180ZM144,176L164,176L164,180L144,180ZM168,176L176,176L176,180L168,180ZM208,176L228,176L228,180L208,180ZM248,176L260,176L260,180L248,180ZM272,176L276,176L276,180L272,180ZM292,176L296,176L296,180L292,180ZM308,176L316,176L316,180L308,180ZM320,176L324,176L324,180L320,180ZM332,176L336,176L336,180L332,180ZM364,176L368,176L368,180L364,180ZM48,180L64,180L64,184L48,184ZM68,180L72,180L72,184L68,184ZM76,180L88,180L88,184L76,184ZM92,180L96,180L96,184L92,184ZM100,180L104,180L104,184L100,184ZM108,180L120,180L120,184L108,184ZM124,180L128,180L128,184L124,184ZM132,180L136,180L136,184L132,184ZM148,180L156,180L156,184L148,184ZM160,180L164,180L164,184L160,184ZM180,180L184,180L184,184L180,184ZM204,180L208,180L208,184L204,184ZM212,180L232,180L232,184L212,184ZM236,180L240,180L240,184L236,184ZM248,180L256,180L256,184L248,184ZM264,180L272,180L272,184L264,184ZM276,180L292,180L292,184L276,184ZM296,180L308,180L308,184L296,184ZM316,180L320,180L320,184L316,184ZM324,180L340,180L340,184L324,184ZM352,180L356,180L356,184L352,184ZM360,180L368,180L368,184L360,184ZM48,184L52,184L52,188L48,188ZM60,184L64,184L64,188L60,188ZM72,184L76,184L76,188L72,188ZM96,184L100,184L100,188L96,188ZM108,184L120,184L120,188L108,188ZM140,184L148,184L148,188L140,188ZM152,184L156,184L156,188L152,188ZM160,184L168,184L168,188L160,188ZM188,184L204,184L204,188L188,188ZM208,184L212,184L212,188L208,188ZM216,184L224,184L224,188L216,188ZM228,184L240,184L240,188L228,188ZM244,184L252,184L252,188L244,188ZM264,184L268,184L268,188L264,188ZM288,184L292,184L292,188L288,188ZM296,184L308,184L308,188L296,188ZM312,184L316,184L316,188L312,188ZM320,184L328,184L328,188L320,188ZM336,184L352,184L352,188L336,188ZM356,184L360,184L360,188L356,188ZM368,184L372,184L372,188L368,188ZM52,188L68,188L68,192L52,192ZM80,188L84,188L84,192L80,192ZM88,188L92,188L92,192L88,192ZM100,188L104,188L104,192L100,192ZM112,188L116,188L116,192L112,192ZM132,188L144,188L144,192L132,192ZM152,188L156,188L156,192L152,192ZM172,188L176,188L176,192L172,192ZM184,188L196,188L196,192L184,192ZM200,188L204,188L204,192L200,192ZM212,188L224,188L224,192L212,192ZM232,188L240,188L240,192L232,192ZM248,188L252,188L252,192L248,192ZM272,188L280,188L280,192L272,192ZM296,188L308,188L308,192L296,192ZM312,188L316,188L316,192L312,192ZM324,188L328,188L328,192L324,192ZM332,188L344,188L344,192L332,192ZM360,188L372,188L372,192L360,192ZM56,192L64,192L64,196L56,196ZM72,192L76,192L76,196L72,196ZM88,192L112,192L112,196L88,196ZM124,192L136,192L136,196L124,196ZM148,192L152,192L152,196L148,196ZM160,192L180,192L180,196L160,196ZM204,192L208,192L208,196L204,196ZM216,192L220,192L220,196L216,196ZM224,192L240,192L240,196L224,196ZM260,192L268,192L268,196L260,196ZM272,192L296,192L296,196L272,196ZM300,192L316,192L316,196L300,196ZM320,192L324,192L324,196L320,196ZM336,192L344,192L344,196L336,196ZM348,192L352,192L352,196L348,196ZM356,192L368,192L368,196L356,196ZM60,196L64,196L64,200L60,200ZM68,196L72,196L72,200L68,200ZM76,196L88,196L88,200L76,200ZM108,196L112,196L112,200L108,200ZM128,196L136,196L136,200L128,200ZM140,196L152,196L152,200L140,200ZM160,196L164,196L164,200L160,200ZM168,196L180,196L180,200L168,200ZM188,196L200,196L200,200L188,200ZM204,196L212,196L212,200L204,200ZM236,196L240,196L240,200L236,200ZM256,196L260,196L260,200L256,200ZM268,196L272,196L272,200L268,200ZM284,196L288,196L288,200L284,200ZM296,196L300,196L300,200L296,200ZM324,196L340,196L340,200L324,200ZM348,196L352,196L352,200L348,200ZM360,196L364,196L364,200L360,200ZM48,200L56,200L56,204L48,204ZM60,200L64,200L64,204L60,204ZM72,200L76,200L76,204L72,204ZM80,200L84,200L84,204L80,204ZM88,200L104,200L104,204L88,204ZM116,200L120,200L120,204L116,204ZM128,200L136,200L136,204L128,204ZM140,200L148,200L148,204L140,204ZM152,200L156,200L156,204L152,204ZM176,200L188,200L188,204L176,204ZM200,200L204,200L204,204L200,204ZM208,200L216,200L216,204L208,204ZM220,200L224,200L224,204L220,204ZM228,200L232,200L232,204L228,204ZM236,200L240,200L240,204L236,204ZM244,200L252,200L252,204L244,204ZM256,200L260,200L260,204L256,204ZM264,200L268,200L268,204L264,204ZM272,200L276,200L276,204L272,204ZM280,200L292,200L292,204L280,204ZM296,200L304,200L304,204L296,204ZM308,200L312,200L312,204L308,204ZM320,200L324,200L324,204L320,204ZM336,200L348,200L348,204L336,204ZM356,200L360,200L360,204L356,204ZM368,200L372,200L372,204L368,204ZM52,204L60,204L60,208L52,208ZM84,204L96,204L96,208L84,208ZM108,204L124,204L124,208L108,208ZM132,204L144,204L144,208L132,208ZM148,204L152,204L152,208L148,208ZM160,204L164,204L164,208L160,208ZM168,204L200,204L200,208L168,208ZM216,204L220,204L220,208L216,208ZM232,204L236,204L236,208L232,208ZM240,204L244,204L244,208L240,208ZM264,204L280,204L280,208L264,208ZM312,204L316,204L316,208L312,208ZM324,204L332,204L332,208L324,208ZM336,204L340,204L340,208L336,208ZM360,204L372,204L372,208L360,208ZM52,208L56,208L56,212L52,212ZM64,208L68,208L68,212L64,212ZM72,208L80,208L80,212L72,212ZM84,208L96,208L96,212L84,212ZM100,208L108,208L108,212L100,212ZM116,208L132,208L132,212L116,212ZM140,208L164,208L164,212L140,212ZM172,208L176,208L176,212L172,212ZM188,208L192,208L192,212L188,212ZM196,208L224,208L224,212L196,212ZM240,208L244,208L244,212L240,212ZM260,208L268,208L268,212L260,212ZM272,208L276,208L276,212L272,212ZM284,208L308,208L308,212L284,212ZM316,208L324,208L324,212L316,212ZM332,208L336,208L336,212L332,212ZM356,208L360,208L360,212L356,212ZM56,212L60,212L60,216L56,216ZM68,212L72,212L72,216L68,216ZM76,212L88,212L88,216L76,216ZM96,212L104,212L104,216L96,216ZM112,212L116,212L116,216L112,216ZM128,212L132,212L132,216L128,216ZM136,212L152,212L152,216L136,216ZM156,212L160,212L160,216L156,216ZM172,212L176,212L176,216L172,216ZM180,212L200,212L200,216L180,216ZM212,212L216,212L216,216L212,216ZM224,212L228,212L228,216L224,216ZM236,212L260,212L260,216L236,216ZM272,212L276,212L276,216L272,216ZM280,212L288,212L288,216L280,216ZM300,212L308,212L308,216L300,216ZM316,212L320,212L320,216L316,216ZM324,212L332,212L332,216L324,216ZM336,212L340,212L340,216L336,216ZM348,212L356,212L356,216L348,216ZM360,212L372,212L372,216L360,216ZM48,216L60,216L60,220L48,220ZM72,216L76,216L76,220L72,220ZM80,216L92,216L92,220L80,220ZM96,216L100,216L100,220L96,220ZM104,216L108,216L108,220L104,220ZM112,216L120,216L120,220L112,220ZM124,216L132,216L132,220L124,220ZM144,216L164,216L164,220L144,220ZM168,216L176,216L176,220L168,220ZM180,216L184,216L184,220L180,220ZM188,216L196,216L196,220L188,220ZM204,216L212,216L212,220L204,220ZM216,216L220,216L220,220L216,220ZM224,216L236,216L236,220L224,220ZM248,216L252,216L252,220L248,220ZM256,216L268,216L268,220L256,220ZM276,216L280,216L280,220L276,220ZM284,216L292,216L292,220L284,220ZM296,216L312,216L312,220L296,220ZM324,216L336,216L336,220L324,220ZM340,216L348,216L348,220L340,220ZM356,216L360,216L360,220L356,220ZM52,220L56,220L56,224L52,224ZM60,220L68,220L68,224L60,224ZM76,220L84,220L84,224L76,224ZM92,220L116,220L116,224L92,224ZM128,220L136,220L136,224L128,224ZM148,220L176,220L176,224L148,224ZM184,220L188,220L188,224L184,224ZM196,220L208,220L208,224L196,224ZM212,220L228,220L228,224L212,224ZM232,220L236,220L236,224L232,224ZM240,220L244,220L244,224L240,224ZM252,220L264,220L264,224L252,224ZM276,220L280,220L280,224L276,224ZM296,220L304,220L304,224L296,224ZM324,220L332,220L332,224L324,224ZM336,220L340,220L340,224L336,224ZM348,220L356,220L356,224L348,224ZM360,220L372,220L372,224L360,224ZM52,224L60,224L60,228L52,228ZM64,224L76,224L76,228L64,228ZM80,224L92,224L92,228L80,228ZM96,224L100,224L100,228L96,228ZM108,224L116,224L116,228L108,228ZM120,224L128,224L128,228L120,228ZM132,224L136,224L136,228L132,228ZM140,224L148,224L148,228L140,228ZM168,224L176,224L176,228L168,228ZM180,224L188,224L188,228L180,228ZM196,224L200,224L200,228L196,228ZM212,224L216,224L216,228L212,228ZM220,224L232,224L232,228L220,228ZM236,224L244,224L244,228L236,228ZM252,224L264,224L264,228L252,228ZM272,224L276,224L276,228L272,228ZM296,224L300,224L300,228L296,228ZM308,224L316,224L316,228L308,228ZM320,224L324,224L324,228L320,228ZM332,224L336,224L336,228L332,228ZM340,224L352,224L352,228L340,228ZM360,224L364,224L364,228L360,228ZM48,228L52,228L52,232L48,232ZM60,228L64,228L64,232L60,232ZM76,228L80,228L80,232L76,232ZM88,228L92,228L92,232L88,232ZM96,228L100,228L100,232L96,232ZM104,228L108,228L108,232L104,232ZM120,228L124,228L124,232L120,232ZM136,228L140,228L140,232L136,232ZM148,228L152,228L152,232L148,232ZM160,228L172,228L172,232L160,232ZM192,228L196,228L196,232L192,232ZM204,228L208,228L208,232L204,232ZM216,228L244,228L244,232L216,232ZM252,228L256,228L256,232L252,232ZM260,228L272,228L272,232L260,232ZM276,228L292,228L292,232L276,232ZM300,228L308,228L308,232L300,232ZM316,228L320,228L320,232L316,232ZM324,228L332,228L332,232L324,232ZM336,228L344,228L344,232L336,232ZM352,228L364,228L364,232L352,232ZM52,232L56,232L56,236L52,236ZM60,232L68,232L68,236L60,236ZM72,232L76,232L76,236L72,236ZM80,232L84,232L84,236L80,236ZM92,232L96,232L96,236L92,236ZM100,232L116,232L116,236L100,236ZM128,232L132,232L132,236L128,236ZM136,232L144,232L144,236L136,236ZM148,232L156,232L156,236L148,236ZM164,232L168,232L168,236L164,236ZM172,232L180,232L180,236L172,236ZM188,232L192,232L192,236L188,236ZM216,232L224,232L224,236L216,236ZM228,232L236,232L236,236L228,236ZM240,232L244,232L244,236L240,236ZM272,232L280,232L280,236L272,236ZM300,232L304,232L304,236L300,236ZM312,232L316,232L316,236L312,236ZM328,232L340,232L340,236L328,236ZM348,232L352,232L352,236L348,236ZM364,232L368,232L368,236L364,236ZM48,236L52,236L52,240L48,240ZM56,236L72,236L72,240L56,240ZM76,236L80,236L80,240L76,240ZM84,236L88,236L88,240L84,240ZM116,236L120,236L120,240L116,240ZM132,236L140,236L140,240L132,240ZM152,236L180,236L180,240L152,240ZM184,236L188,236L188,240L184,240ZM196,236L200,236L200,240L196,240ZM204,236L208,236L208,240L204,240ZM216,236L220,236L220,240L216,240ZM224,236L228,236L228,240L224,240ZM232,236L236,236L236,240L232,240ZM244,236L248,236L248,240L244,240ZM252,236L268,236L268,240L252,240ZM276,236L280,236L280,240L276,240ZM288,236L292,236L292,240L288,240ZM296,236L304,236L304,240L296,240ZM312,236L316,236L316,240L312,240ZM324,236L328,236L328,240L324,240ZM344,236L348,236L348,240L344,240ZM356,236L360,236L360,240L356,240ZM364,236L372,236L372,240L364,240ZM56,240L60,240L60,244L56,244ZM64,240L88,240L88,244L64,244ZM104,240L108,240L108,244L104,244ZM112,240L124,240L124,244L112,244ZM128,240L132,240L132,244L128,244ZM136,240L140,240L140,244L136,244ZM144,240L168,240L168,244L144,244ZM176,240L180,240L180,244L176,244ZM188,240L192,240L192,244L188,244ZM204,240L212,240L212,244L204,244ZM216,240L220,240L220,244L216,244ZM228,240L236,240L236,244L228,244ZM240,240L264,240L264,244L240,244ZM272,240L276,240L276,244L272,244ZM292,240L296,240L296,244L292,244ZM300,240L316,240L316,244L300,244ZM320,240L324,240L324,244L320,244ZM336,240L364,240L364,244L336,244ZM48,244L52,244L52,248L48,248ZM56,244L60,244L60,248L56,248ZM64,244L68,244L68,248L64,248ZM80,244L88,244L88,248L80,248ZM92,244L108,244L108,248L92,248ZM120,244L132,244L132,248L120,248ZM136,244L140,244L140,248L136,248ZM144,244L148,244L148,248L144,248ZM160,244L168,244L168,248L160,248ZM192,244L196,244L196,248L192,248ZM204,244L208,244L208,248L204,248ZM212,244L216,244L216,248L212,248ZM224,244L228,244L228,248L224,248ZM232,244L244,244L244,248L232,248ZM256,244L272,244L272,248L256,248ZM276,244L292,244L292,248L276,248ZM296,244L300,244L300,248L296,248ZM316,244L320,244L320,248L316,248ZM324,244L332,244L332,248L324,248ZM336,244L340,244L340,248L336,248ZM352,244L364,244L364,248L352,248ZM52,248L56,248L56,252L52,252ZM64,248L68,248L68,252L64,252ZM72,248L76,248L76,252L72,252ZM80,248L84,248L84,252L80,252ZM100,248L104,248L104,252L100,252ZM116,248L124,248L124,252L116,252ZM128,248L132,248L132,252L128,252ZM144,248L148,248L148,252L144,252ZM152,248L156,248L156,252L152,252ZM160,248L168,248L168,252L160,252ZM176,248L184,248L184,252L176,252ZM188,248L192,248L192,252L188,252ZM208,248L216,248L216,252L208,252ZM220,248L224,248L224,252L220,252ZM228,248L232,248L232,252L228,252ZM236,248L244,248L244,252L236,252ZM248,248L252,248L252,252L248,252ZM256,248L260,248L260,252L256,252ZM272,248L284,248L284,252L272,252ZM288,248L292,248L292,252L288,252ZM300,248L304,248L304,252L300,252ZM312,248L316,248L316,252L312,252ZM324,248L328,248L328,252L324,252ZM332,248L340,248L340,252L332,252ZM344,248L348,248L348,252L344,252ZM352,248L364,248L364,252L352,252ZM52,252L60,252L60,256L52,256ZM64,252L68,252L68,256L64,256ZM80,252L88,252L88,256L80,256ZM108,252L124,252L124,256L108,256ZM132,252L140,252L140,256L132,256ZM144,252L148,252L148,256L144,256ZM160,252L168,252L168,256L160,256ZM184,252L188,252L188,256L184,256ZM196,252L212,252L212,256L196,256ZM216,252L220,252L220,256L216,256ZM228,252L244,252L244,256L228,256ZM256,252L260,252L260,256L256,256ZM264,252L292,252L292,256L264,256ZM296,252L304,252L304,256L296,256ZM324,252L332,252L332,256L324,256ZM336,252L340,252L340,256L336,256ZM352,252L356,252L356,256L352,256ZM364,252L372,252L372,256L364,256ZM56,256L60,256L60,260L56,260ZM64,256L84,256L84,260L64,260ZM88,256L104,256L104,260L88,260ZM108,256L116,256L116,260L108,260ZM120,256L124,256L124,260L120,260ZM132,256L168,256L168,260L132,260ZM172,256L176,256L176,260L172,260ZM180,256L184,256L184,260L180,260ZM200,256L204,256L204,260L200,260ZM212,256L216,256L216,260L212,260ZM220,256L224,256L224,260L220,260ZM240,256L260,256L260,260L240,260ZM264,256L268,256L268,260L264,260ZM272,256L276,256L276,260L272,260ZM292,256L296,256L296,260L292,260ZM300,256L308,256L308,260L300,260ZM320,256L332,256L332,260L320,260ZM336,256L364,256L364,260L336,260ZM48,260L60,260L60,264L48,264ZM68,260L72,260L72,264L68,264ZM76,260L88,260L88,264L76,264ZM92,260L100,260L100,264L92,264ZM104,260L112,260L112,264L104,264ZM124,260L136,260L136,264L124,264ZM140,260L144,260L144,264L140,264ZM148,260L152,260L152,264L148,264ZM164,260L168,260L168,264L164,264ZM192,260L200,260L200,264L192,264ZM208,260L212,260L212,264L208,264ZM216,260L220,260L220,264L216,264ZM228,260L232,260L232,264L228,264ZM236,260L240,260L240,264L236,264ZM252,260L256,260L256,264L252,264ZM260,260L264,260L264,264L260,264ZM268,260L272,260L272,264L268,264ZM276,260L284,260L284,264L276,264ZM296,260L300,260L300,264L296,264ZM308,260L320,260L320,264L308,264ZM324,260L328,260L328,264L324,264ZM332,260L336,260L336,264L332,264ZM340,260L344,260L344,264L340,264ZM360,260L368,260L368,264L360,264ZM56,264L60,264L60,268L56,268ZM64,264L84,264L84,268L64,268ZM96,264L100,264L100,268L96,268ZM112,264L124,264L124,268L112,268ZM128,264L140,264L140,268L128,268ZM148,264L164,264L164,268L148,268ZM172,264L176,264L176,268L172,268ZM184,264L192,264L192,268L184,268ZM196,264L200,264L200,268L196,268ZM212,264L216,264L216,268L212,268ZM220,264L228,264L228,268L220,268ZM244,264L256,264L256,268L244,268ZM260,264L264,264L264,268L260,268ZM272,264L284,264L284,268L272,268ZM288,264L292,264L292,268L288,268ZM300,264L308,264L308,268L300,268ZM320,264L328,264L328,268L320,268ZM332,264L344,264L344,268L332,268ZM352,264L360,264L360,268L352,268ZM48,268L52,268L52,272L48,272ZM56,268L60,268L60,272L56,272ZM68,268L72,268L72,272L68,272ZM76,268L88,268L88,272L76,272ZM92,268L104,268L104,272L92,272ZM108,268L116,268L116,272L108,272ZM124,268L136,268L136,272L124,272ZM152,268L164,268L164,272L152,272ZM172,268L176,268L176,272L172,272ZM180,268L188,268L188,272L180,272ZM196,268L204,268L204,272L196,272ZM220,268L224,268L224,272L220,272ZM232,268L236,268L236,272L232,272ZM240,268L244,268L244,272L240,272ZM252,268L256,268L256,272L252,272ZM264,268L268,268L268,272L264,272ZM276,268L280,268L280,272L276,272ZM288,268L292,268L292,272L288,272ZM304,268L308,268L308,272L304,272ZM324,268L340,268L340,272L324,272ZM344,268L352,268L352,272L344,272ZM360,268L372,268L372,272L360,272ZM48,272L52,272L52,276L48,276ZM56,272L60,272L60,276L56,276ZM72,272L84,272L84,276L72,276ZM88,272L92,272L92,276L88,276ZM108,272L116,272L116,276L108,276ZM132,272L140,272L140,276L132,276ZM160,272L168,272L168,276L160,276ZM172,272L184,272L184,276L172,276ZM200,272L212,272L212,276L200,276ZM216,272L220,272L220,276L216,276ZM224,272L228,272L228,276L224,276ZM232,272L236,272L236,276L232,276ZM240,272L248,272L248,276L240,276ZM256,272L260,272L260,276L256,276ZM264,272L288,272L288,276L264,276ZM300,272L308,272L308,276L300,276ZM316,272L324,272L324,276L316,276ZM340,272L348,272L348,276L340,276ZM360,272L364,272L364,276L360,276ZM52,276L68,276L68,280L52,280ZM88,276L96,276L96,280L88,280ZM100,276L108,276L108,280L100,280ZM120,276L124,276L124,280L120,280ZM128,276L136,276L136,280L128,280ZM140,276L148,276L148,280L140,280ZM152,276L156,276L156,280L152,280ZM164,276L168,276L168,280L164,280ZM172,276L184,276L184,280L172,280ZM192,276L200,276L200,280L192,280ZM204,276L208,276L208,280L204,280ZM216,276L232,276L232,280L216,280ZM236,276L252,276L252,280L236,280ZM256,276L264,276L264,280L256,280ZM268,276L272,276L272,280L268,280ZM276,276L288,276L288,280L276,280ZM296,276L308,276L308,280L296,280ZM316,276L320,276L320,280L316,280ZM324,276L340,276L340,280L324,280ZM344,276L356,276L356,280L344,280ZM360,276L372,276L372,280L360,280ZM56,280L60,280L60,284L56,284ZM64,280L68,280L68,284L64,284ZM72,280L76,280L76,284L72,284ZM88,280L96,280L96,284L88,284ZM100,280L104,280L104,284L100,284ZM124,280L128,280L128,284L124,284ZM132,280L136,280L136,284L132,284ZM156,280L160,280L160,284L156,284ZM164,280L168,280L168,284L164,284ZM172,280L184,280L184,284L172,284ZM188,280L200,280L200,284L188,284ZM212,280L216,280L216,284L212,284ZM224,280L252,280L252,284L224,284ZM256,280L260,280L260,284L256,284ZM272,280L276,280L276,284L272,284ZM280,280L284,280L284,284L280,284ZM288,280L292,280L292,284L288,284ZM300,280L308,280L308,284L300,284ZM312,280L316,280L316,284L312,284ZM320,280L324,280L324,284L320,284ZM328,280L332,280L332,284L328,284ZM340,280L344,280L344,284L340,284ZM352,280L360,280L360,284L352,284ZM364,280L368,280L368,284L364,284ZM52,284L64,284L64,288L52,288ZM88,284L104,284L104,288L88,288ZM108,284L112,284L112,288L108,288ZM116,284L120,284L120,288L116,288ZM128,284L132,284L132,288L128,288ZM136,284L140,284L140,288L136,288ZM144,284L156,284L156,288L144,288ZM160,284L164,284L164,288L160,288ZM176,284L184,284L184,288L176,288ZM192,284L196,284L196,288L192,288ZM200,284L208,284L208,288L200,288ZM224,284L228,284L228,288L224,288ZM240,284L244,284L244,288L240,288ZM248,284L252,284L252,288L248,288ZM264,284L284,284L284,288L264,288ZM288,284L292,284L292,288L288,288ZM296,284L300,284L300,288L296,288ZM316,284L320,284L320,288L316,288ZM332,284L344,284L344,288L332,288ZM348,284L352,284L352,288L348,288ZM360,284L372,284L372,288L360,288ZM48,288L52,288L52,292L48,292ZM60,288L64,288L64,292L60,292ZM68,288L76,288L76,292L68,292ZM80,288L120,288L120,292L80,292ZM124,288L140,288L140,292L124,292ZM148,288L180,288L180,292L148,292ZM188,288L196,288L196,292L188,292ZM200,288L204,288L204,292L200,292ZM224,288L228,288L228,292L224,292ZM240,288L244,288L244,292L240,292ZM252,288L260,288L260,292L252,292ZM264,288L272,288L272,292L264,292ZM300,288L304,288L304,292L300,292ZM308,288L316,288L316,292L308,292ZM320,288L324,288L324,292L320,292ZM328,288L332,288L332,292L328,292ZM336,288L340,288L340,292L336,292ZM356,288L360,288L360,292L356,292ZM56,292L64,292L64,296L56,296ZM68,292L72,292L72,296L68,296ZM76,292L80,292L80,296L76,296ZM92,292L108,292L108,296L92,296ZM112,292L116,292L116,296L112,296ZM120,292L124,292L124,296L120,296ZM128,292L136,292L136,296L128,296ZM152,292L172,292L172,296L152,296ZM176,292L204,292L204,296L176,296ZM208,292L216,292L216,296L208,296ZM220,292L228,292L228,296L220,296ZM232,292L240,292L240,296L232,296ZM252,292L268,292L268,296L252,296ZM272,292L292,292L292,296L272,296ZM296,292L308,292L308,296L296,296ZM316,292L320,292L320,296L316,296ZM344,292L352,292L352,296L344,296ZM356,292L360,292L360,296L356,296ZM48,296L52,296L52,300L48,300ZM68,296L76,296L76,300L68,300ZM80,296L84,296L84,300L80,300ZM96,296L100,296L100,300L96,300ZM112,296L124,296L124,300L112,300ZM152,296L160,296L160,300L152,300ZM164,296L168,296L168,300L164,300ZM176,296L180,296L180,300L176,300ZM192,296L208,296L208,300L192,300ZM216,296L220,296L220,300L216,300ZM228,296L232,296L232,300L228,300ZM244,296L248,296L248,300L244,300ZM260,296L268,296L268,300L260,300ZM272,296L280,296L280,300L272,300ZM288,296L292,296L292,300L288,300ZM300,296L316,296L316,300L300,300ZM320,296L332,296L332,300L320,300ZM352,296L356,296L356,300L352,300ZM368,296L372,296L372,300L368,300ZM48,300L52,300L52,304L48,304ZM56,300L60,300L60,304L56,304ZM68,300L72,300L72,304L68,304ZM88,300L100,300L100,304L88,304ZM112,300L116,300L116,304L112,304ZM120,300L124,300L124,304L120,304ZM136,300L152,300L152,304L136,304ZM160,300L164,300L164,304L160,304ZM168,300L176,300L176,304L168,304ZM188,300L196,300L196,304L188,304ZM200,300L212,300L212,304L200,304ZM216,300L228,300L228,304L216,304ZM236,300L240,300L240,304L236,304ZM244,300L256,300L256,304L244,304ZM264,300L268,300L268,304L264,304ZM276,300L280,300L280,304L276,304ZM284,300L292,300L292,304L284,304ZM296,300L304,300L304,304L296,304ZM312,300L320,300L320,304L312,304ZM324,300L328,300L328,304L324,304ZM332,300L352,300L352,304L332,304ZM356,300L360,300L360,304L356,304ZM364,300L372,300L372,304L364,304ZM52,304L56,304L56,308L52,308ZM72,304L80,304L80,308L72,308ZM84,304L92,304L92,308L84,308ZM104,304L108,304L108,308L104,308ZM112,304L120,304L120,308L112,308ZM128,304L136,304L136,308L128,308ZM160,304L168,304L168,308L160,308ZM172,304L188,304L188,308L172,308ZM192,304L204,304L204,308L192,308ZM224,304L236,304L236,308L224,308ZM244,304L256,304L256,308L244,308ZM260,304L264,304L264,308L260,308ZM272,304L276,304L276,308L272,308ZM292,304L296,304L296,308L292,308ZM300,304L308,304L308,308L300,308ZM320,304L324,304L324,308L320,308ZM360,304L364,304L364,308L360,308ZM48,308L52,308L52,312L48,312ZM56,308L60,308L60,312L56,312ZM76,308L80,308L80,312L76,312ZM84,308L92,308L92,312L84,312ZM96,308L112,308L112,312L96,312ZM128,308L132,308L132,312L128,312ZM136,308L144,308L144,312L136,312ZM148,308L152,308L152,312L148,312ZM156,308L160,308L160,312L156,312ZM168,308L180,308L180,312L168,312ZM184,308L188,308L188,312L184,312ZM200,308L204,308L204,312L200,312ZM208,308L212,308L212,312L208,312ZM220,308L224,308L224,312L220,312ZM232,308L248,308L248,312L232,312ZM260,308L264,308L264,312L260,312ZM268,308L272,308L272,312L268,312ZM276,308L292,308L292,312L276,312ZM296,308L300,308L300,312L296,312ZM308,308L320,308L320,312L308,312ZM324,308L332,308L332,312L324,312ZM348,308L356,308L356,312L348,312ZM360,308L372,308L372,312L360,312ZM48,312L52,312L52,316L48,316ZM60,312L68,312L68,316L60,316ZM72,312L76,312L76,316L72,316ZM80,312L84,312L84,316L80,316ZM96,312L112,312L112,316L96,316ZM116,312L120,312L120,316L116,316ZM124,312L128,312L128,316L124,316ZM144,312L148,312L148,316L144,316ZM156,312L160,312L160,316L156,316ZM164,312L168,312L168,316L164,316ZM172,312L176,312L176,316L172,316ZM184,312L192,312L192,316L184,316ZM196,312L200,312L200,316L196,316ZM204,312L208,312L208,316L204,316ZM212,312L244,312L244,316L212,316ZM248,312L256,312L256,316L248,316ZM264,312L268,312L268,316L264,316ZM276,312L284,312L284,316L276,316ZM300,312L308,312L308,316L300,316ZM324,312L328,312L328,316L324,316ZM348,312L352,312L352,316L348,316ZM360,312L364,312L364,316L360,316ZM48,316L52,316L52,320L48,320ZM56,316L60,316L60,320L56,320ZM68,316L72,316L72,320L68,320ZM92,316L116,316L116,320L92,320ZM136,316L156,316L156,320L136,320ZM164,316L168,316L168,320L164,320ZM176,316L180,316L180,320L176,320ZM184,316L188,316L188,320L184,320ZM192,316L200,316L200,320L192,320ZM208,316L212,316L212,320L208,320ZM216,316L224,316L224,320L216,320ZM240,316L248,316L248,320L240,320ZM252,316L256,316L256,320L252,320ZM264,316L268,316L268,320L264,320ZM272,316L280,316L280,320L272,320ZM296,316L304,316L304,320L296,320ZM316,316L320,316L320,320L316,320ZM324,316L328,316L328,320L324,320ZM332,316L348,316L348,320L332,320ZM360,316L372,316L372,320L360,320ZM48,320L52,320L52,324L48,324ZM60,320L68,320L68,324L60,324ZM72,320L76,320L76,324L72,324ZM80,320L88,320L88,324L80,324ZM96,320L100,320L100,324L96,324ZM108,320L112,320L112,324L108,324ZM116,320L128,320L128,324L116,324ZM136,320L140,320L140,324L136,324ZM144,320L148,320L148,324L144,324ZM160,320L172,320L172,324L160,324ZM176,320L180,320L180,324L176,324ZM184,320L188,320L188,324L184,324ZM192,320L196,320L196,324L192,324ZM204,320L208,320L208,324L204,324ZM212,320L216,320L216,324L212,324ZM224,320L228,320L228,324L224,324ZM236,320L248,320L248,324L236,324ZM256,320L260,320L260,324L256,324ZM268,320L272,320L272,324L268,324ZM296,320L316,320L316,324L296,324ZM320,320L324,320L324,324L320,324ZM336,320L344,320L344,324L336,324ZM348,320L356,320L356,324L348,324ZM360,320L364,320L364,324L360,324ZM48,324L52,324L52,328L48,328ZM56,324L60,324L60,328L56,328ZM80,324L92,324L92,328L80,328ZM100,324L104,324L104,328L100,328ZM108,324L116,324L116,328L108,328ZM124,324L132,324L132,328L124,328ZM148,324L152,324L152,328L148,328ZM156,324L164,324L164,328L156,328ZM172,324L176,324L176,328L172,328ZM184,324L188,324L188,328L184,328ZM192,324L196,324L196,328L192,328ZM208,324L216,324L216,328L208,328ZM224,324L228,324L228,328L224,328ZM232,324L240,324L240,328L232,328ZM260,324L264,324L264,328L260,328ZM268,324L276,324L276,328L268,328ZM280,324L296,324L296,328L280,328ZM300,324L304,324L304,328L300,328ZM316,324L320,324L320,328L316,328ZM324,324L336,324L336,328L324,328ZM360,324L364,324L364,328L360,328ZM368,324L372,324L372,328L368,328ZM52,328L64,328L64,332L52,332ZM72,328L84,328L84,332L72,332ZM92,328L100,328L100,332L92,332ZM112,328L116,328L116,332L112,332ZM140,328L144,328L144,332L140,332ZM152,328L156,328L156,332L152,332ZM160,328L172,328L172,332L160,332ZM184,328L188,328L188,332L184,332ZM192,328L200,328L200,332L192,332ZM204,328L208,328L208,332L204,332ZM212,328L232,328L232,332L212,332ZM248,328L264,328L264,332L248,332ZM268,328L272,328L272,332L268,332ZM276,328L280,328L280,332L276,332ZM296,328L304,328L304,332L296,332ZM312,328L316,328L316,332L312,332ZM320,328L328,328L328,332L320,332ZM332,328L348,328L348,332L332,332ZM352,328L360,328L360,332L352,332ZM52,332L56,332L56,336L52,336ZM68,332L72,332L72,336L68,336ZM76,332L80,332L80,336L76,336ZM84,332L88,332L88,336L84,336ZM96,332L100,332L100,336L96,336ZM104,332L112,332L112,336L104,336ZM120,332L140,332L140,336L120,336ZM148,332L152,332L152,336L148,336ZM168,332L172,332L172,336L168,336ZM176,332L188,332L188,336L176,336ZM192,332L196,332L196,336L192,336ZM200,332L208,332L208,336L200,336ZM224,332L240,332L240,336L224,336ZM248,332L256,332L256,336L248,336ZM264,332L268,332L268,336L264,336ZM272,332L280,332L280,336L272,336ZM284,332L292,332L292,336L284,336ZM296,332L304,332L304,336L296,336ZM312,332L328,332L328,336L312,336ZM344,332L352,332L352,336L344,336ZM356,332L364,332L364,336L356,336ZM52,336L64,336L64,340L52,340ZM72,336L76,336L76,340L72,340ZM80,336L84,336L84,340L80,340ZM88,336L104,336L104,340L88,340ZM108,336L116,336L116,340L108,340ZM120,336L168,336L168,340L120,340ZM176,336L180,336L180,340L176,340ZM188,336L196,336L196,340L188,340ZM200,336L204,336L204,340L200,340ZM208,336L212,336L212,340L208,340ZM220,336L236,336L236,340L220,340ZM240,336L264,336L264,340L240,340ZM268,336L272,336L272,340L268,340ZM292,336L296,336L296,340L292,340ZM300,336L304,336L304,340L300,340ZM308,336L320,336L320,340L308,340ZM336,336L356,336L356,340L336,340ZM364,336L368,336L368,340L364,340ZM80,340L88,340L88,344L80,344ZM96,340L104,340L104,344L96,344ZM116,340L120,340L120,344L116,344ZM124,340L128,340L128,344L124,344ZM132,340L136,340L136,344L132,344ZM144,340L148,340L148,344L144,344ZM160,340L164,340L164,344L160,344ZM176,340L180,340L180,344L176,344ZM192,340L204,340L204,344L192,344ZM208,340L216,340L216,344L208,344ZM220,340L232,340L232,344L220,344ZM240,340L244,340L244,344L240,344ZM256,340L280,340L280,344L256,344ZM296,340L304,340L304,344L296,344ZM320,340L324,340L324,344L320,344ZM332,340L340,340L340,344L332,344ZM352,340L368,340L368,344L352,344ZM48,344L76,344L76,348L48,348ZM84,344L88,344L88,348L84,348ZM92,344L100,344L100,348L92,348ZM104,344L108,344L108,348L104,348ZM112,344L120,344L120,348L112,348ZM132,344L148,344L148,348L132,348ZM152,344L156,344L156,348L152,348ZM160,344L164,344L164,348L160,348ZM172,344L192,344L192,348L172,348ZM196,344L204,344L204,348L196,348ZM212,344L224,344L224,348L212,348ZM228,344L244,344L244,348L228,348ZM248,344L252,344L252,348L248,348ZM256,344L280,344L280,348L256,348ZM300,344L304,344L304,348L300,348ZM308,344L316,344L316,348L308,348ZM320,344L324,344L324,348L320,348ZM328,344L340,344L340,348L328,348ZM344,344L348,344L348,348L344,348ZM352,344L356,344L356,348L352,348ZM360,344L364,344L364,348L360,348ZM48,348L52,348L52,352L48,352ZM72,348L76,348L76,352L72,352ZM92,348L116,348L116,352L92,352ZM124,348L128,348L128,352L124,352ZM132,348L140,348L140,352L132,352ZM144,348L148,348L148,352L144,352ZM160,348L164,348L164,352L160,352ZM172,348L188,348L188,352L172,352ZM196,348L200,348L200,352L196,352ZM204,348L212,348L212,352L204,352ZM216,348L220,348L220,352L216,352ZM224,348L228,348L228,352L224,352ZM232,348L244,348L244,352L232,352ZM256,348L260,348L260,352L256,352ZM272,348L280,348L280,352L272,352ZM288,348L292,348L292,352L288,352ZM296,348L300,348L300,352L296,352ZM304,348L308,348L308,352L304,352ZM312,348L320,348L320,352L312,352ZM324,348L328,348L328,352L324,352ZM332,348L340,348L340,352L332,352ZM352,348L356,348L356,352L352,352ZM360,348L372,348L372,352L360,352ZM48,352L52,352L52,356L48,356ZM56,352L68,352L68,356L56,356ZM72,352L76,352L76,356L72,356ZM80,352L92,352L92,356L80,356ZM100,352L104,352L104,356L100,356ZM108,352L120,352L120,356L108,356ZM124,352L136,352L136,356L124,356ZM140,352L164,352L164,356L140,356ZM172,352L180,352L180,356L172,356ZM184,352L188,352L188,356L184,356ZM192,352L200,352L200,356L192,356ZM204,352L208,352L208,356L204,356ZM216,352L224,352L224,356L216,356ZM228,352L260,352L260,356L228,356ZM264,352L268,352L268,356L264,356ZM272,352L284,352L284,356L272,356ZM292,352L296,352L296,356L292,356ZM300,352L316,352L316,356L300,356ZM320,352L324,352L324,356L320,356ZM336,352L356,352L356,356L336,356ZM48,356L52,356L52,360L48,360ZM56,356L68,356L68,360L56,360ZM72,356L76,356L76,360L72,360ZM80,356L96,356L96,360L80,360ZM104,356L124,356L124,360L104,360ZM140,356L144,356L144,360L140,360ZM160,356L168,356L168,360L160,360ZM172,356L180,356L180,360L172,360ZM188,356L192,356L192,360L188,360ZM200,356L212,356L212,360L200,360ZM216,356L232,356L232,360L216,360ZM236,356L244,356L244,360L236,360ZM248,356L252,356L252,360L248,360ZM256,356L264,356L264,360L256,360ZM268,356L272,356L272,360L268,360ZM284,356L292,356L292,360L284,360ZM296,356L300,356L300,360L296,360ZM316,356L320,356L320,360L316,360ZM324,356L336,356L336,360L324,360ZM340,356L356,356L356,360L340,360ZM360,356L368,356L368,360L360,360ZM48,360L52,360L52,364L48,364ZM56,360L68,360L68,364L56,364ZM72,360L76,360L76,364L72,364ZM80,360L84,360L84,364L80,364ZM88,360L104,360L104,364L88,364ZM108,360L112,360L112,364L108,364ZM120,360L128,360L128,364L120,364ZM140,360L152,360L152,364L140,364ZM168,360L172,360L172,364L168,364ZM180,360L184,360L184,364L180,364ZM188,360L208,360L208,364L188,364ZM212,360L216,360L216,364L212,364ZM220,360L224,360L224,364L220,364ZM228,360L232,360L232,364L228,364ZM244,360L248,360L248,364L244,364ZM256,360L260,360L260,364L256,364ZM264,360L268,360L268,364L264,364ZM280,360L284,360L284,364L280,364ZM288,360L292,360L292,364L288,364ZM300,360L308,360L308,364L300,364ZM312,360L316,360L316,364L312,364ZM336,360L340,360L340,364L336,364ZM348,360L352,360L352,364L348,364ZM356,360L360,360L360,364L356,364ZM48,364L52,364L52,368L48,368ZM72,364L76,364L76,368L72,368ZM92,364L104,364L104,368L92,368ZM108,364L112,364L112,368L108,368ZM120,364L124,364L124,368L120,368ZM132,364L136,364L136,368L132,368ZM140,364L144,364L144,368L140,368ZM148,364L160,364L160,368L148,368ZM168,364L172,364L172,368L168,368ZM180,364L188,364L188,368L180,368ZM200,364L204,364L204,368L200,368ZM220,364L224,364L224,368L220,368ZM228,364L240,364L240,368L228,368ZM248,364L252,364L252,368L248,368ZM268,364L280,364L280,368L268,368ZM288,364L292,364L292,368L288,368ZM300,364L308,364L308,368L300,368ZM316,364L320,364L320,368L316,368ZM324,364L332,364L332,368L324,368ZM336,364L340,364L340,368L336,368ZM352,364L356,364L356,368L352,368ZM360,364L372,364L372,368L360,368ZM48,368L76,368L76,372L48,372ZM100,368L108,368L108,372L100,372ZM112,368L116,368L116,372L112,372ZM124,368L144,368L144,372L124,372ZM156,368L164,368L164,372L156,372ZM176,368L180,368L180,372L176,372ZM184,368L196,368L196,372L184,372ZM208,368L220,368L220,372L208,372ZM228,368L236,368L236,372L228,372ZM240,368L248,368L248,372L240,372ZM256,368L260,368L260,372L256,372ZM272,368L276,368L276,372L272,372ZM292,368L296,368L296,372L292,372ZM300,368L316,368L316,372L300,372ZM320,368L324,368L324,372L320,372ZM336,368L352,368L352,372L336,372ZM360,368L368,368L368,372L360,372Z"/></svg>
